<svg xmlns="http://www.w3.org/2000/svg" xmlns:xlink="http://www.w3.org/1999/xlink" width="500" zoomAndPan="magnify" viewBox="0 0 375 374.999991" height="500" preserveAspectRatio="xMidYMid meet" version="1.0"><defs><g/><clipPath id="id1"><path d="M 150 139 L 226 139 L 226 216 L 150 216 Z M 150 139 " clip-rule="nonzero"/></clipPath><clipPath id="id2"><path d="M 135.375 167.183594 L 198.875 124.519531 L 239.863281 185.527344 L 176.363281 228.191406 Z M 135.375 167.183594 " clip-rule="nonzero"/></clipPath><clipPath id="id3"><path d="M 135.375 167.183594 L 198.875 124.519531 L 239.863281 185.527344 L 176.363281 228.191406 Z M 135.375 167.183594 " clip-rule="nonzero"/></clipPath><clipPath id="id4"><path d="M 126.800781 124.730469 L 219.578125 124.730469 L 219.578125 220.730469 L 126.800781 220.730469 Z M 126.800781 124.730469 " clip-rule="nonzero"/></clipPath></defs><rect x="-37.5" width="450" fill="#ffffff" y="-37.499999" height="449.999989" fill-opacity="1"/><rect x="-37.5" width="450" fill="#ffffff" y="-37.499999" height="449.999989" fill-opacity="1"/><rect x="-37.5" width="450" fill="#e8ded7" y="-37.499999" height="449.999989" fill-opacity="1"/><g clip-path="url(#id1)"><g clip-path="url(#id2)"><g clip-path="url(#id3)"><path fill="#f4f2f0" d="M 215.886719 152.738281 C 216.394531 153.179688 216.890625 153.632812 217.410156 154.058594 C 217.902344 154.464844 218.414062 154.847656 218.921875 155.238281 C 219.261719 155.5 219.625 155.742188 219.621094 156.25 C 219.628906 156.34375 219.667969 156.425781 219.742188 156.488281 C 220.574219 157.214844 221.292969 158.039062 221.90625 158.960938 C 222.789062 160.171875 223.332031 161.558594 223.875 162.964844 C 224.484375 164.554688 224.585938 166.226562 225.011719 167.839844 C 225.304688 168.953125 225.28125 170.144531 225.40625 171.300781 C 225.460938 171.816406 225.523438 172.332031 225.585938 172.847656 C 225.601562 172.96875 225.65625 173.085938 225.664062 173.207031 C 225.726562 174.542969 225.921875 175.890625 225.816406 177.214844 C 225.648438 179.246094 225.75 181.320312 225.011719 183.285156 C 224.976562 183.40625 224.960938 183.523438 224.96875 183.648438 C 224.925781 184.988281 224.550781 186.234375 223.851562 187.382812 C 223.730469 187.585938 223.75 187.867188 223.652344 188.089844 C 223.457031 188.535156 223.230469 188.964844 223.015625 189.402344 C 222.667969 190.113281 222.324219 190.828125 221.964844 191.535156 C 221.789062 191.925781 221.578125 192.296875 221.332031 192.648438 C 220.695312 193.464844 219.984375 194.226562 219.367188 195.0625 C 219.007812 195.550781 218.816406 196.160156 218.464844 196.660156 C 218.230469 196.996094 217.835938 197.21875 217.546875 197.519531 C 217.246094 197.773438 217.003906 198.074219 216.816406 198.421875 C 216.515625 199.210938 216.046875 199.886719 215.414062 200.449219 C 214.65625 201.117188 213.960938 201.851562 213.246094 202.5625 C 212.421875 203.378906 211.417969 204.019531 210.476562 204.714844 C 209.949219 205.035156 209.488281 205.433594 209.089844 205.90625 C 208.730469 206.464844 208.222656 206.777344 207.558594 206.84375 C 207.046875 206.875 206.757812 207.257812 206.449219 207.609375 C 206.296875 207.839844 206.109375 208.035156 205.882812 208.195312 C 204.621094 208.828125 203.609375 209.832031 202.257812 210.359375 C 200.285156 211.125 198.410156 212.144531 196.472656 213.003906 C 195.898438 213.199219 195.308594 213.34375 194.707031 213.429688 C 194.589844 213.457031 194.429688 213.414062 194.347656 213.476562 C 193.769531 213.90625 193.074219 213.867188 192.425781 214.015625 C 190.453125 214.464844 188.492188 214.964844 186.515625 215.390625 C 186.023438 215.496094 185.492188 215.394531 184.980469 215.402344 C 184.832031 215.40625 184.683594 215.464844 184.539062 215.472656 C 183.839844 215.550781 183.140625 215.578125 182.441406 215.558594 C 181.285156 215.464844 180.128906 215.300781 178.984375 215.105469 C 178.300781 214.980469 177.628906 214.804688 176.96875 214.578125 C 176.164062 214.320312 175.441406 213.871094 174.570312 213.722656 C 173.96875 213.621094 173.421875 213.183594 172.859375 212.882812 C 171.484375 212.144531 170.125 211.382812 168.738281 210.664062 C 168.351562 210.46875 168.355469 210.253906 168.605469 209.816406 C 168.398438 209.953125 168.171875 210.007812 167.929688 209.976562 C 167.683594 209.945312 167.480469 209.839844 167.316406 209.660156 C 166.65625 209.117188 165.972656 208.609375 165.261719 208.140625 C 165.1875 208.085938 165.117188 208.027344 165.050781 207.964844 C 164.042969 206.90625 162.996094 205.882812 162.058594 204.769531 C 161.71875 204.339844 161.339844 203.949219 160.917969 203.601562 C 160.398438 203.167969 159.949219 202.671875 159.570312 202.113281 C 159.371094 201.742188 159.21875 201.351562 159.117188 200.941406 C 158.4375 200.960938 158.433594 200.953125 158.332031 199.625 C 157.882812 199.808594 157.617188 199.546875 157.371094 199.222656 C 157.050781 198.796875 156.738281 198.363281 156.386719 197.960938 C 156.148438 197.695312 155.996094 197.382812 155.9375 197.027344 C 155.875 196.671875 155.914062 196.328125 156.050781 195.996094 C 154.71875 195.886719 154.589844 194.691406 154.148438 193.851562 C 153.699219 193.003906 153.542969 192.003906 153.226562 191.082031 C 153.09375 190.679688 152.886719 190.304688 152.714844 189.917969 C 151.746094 187.621094 151.105469 185.234375 150.792969 182.757812 C 150.585938 181.277344 150.542969 179.789062 150.660156 178.296875 C 150.691406 177.867188 150.667969 177.4375 150.597656 177.015625 C 150.390625 175.625 150.535156 174.273438 151.03125 172.953125 C 151.0625 172.867188 151.140625 172.734375 151.113281 172.707031 C 150.597656 172.167969 150.980469 171.582031 151.058594 171.039062 C 151.34375 168.753906 151.847656 166.515625 152.578125 164.328125 C 153.546875 161.558594 154.796875 158.921875 156.324219 156.414062 C 156.652344 155.886719 156.902344 155.242188 157.597656 155.019531 C 157.683594 154.992188 157.734375 154.835938 157.785156 154.730469 C 158.230469 153.703125 158.867188 152.8125 159.691406 152.054688 C 160.398438 151.421875 160.96875 150.640625 161.675781 150.011719 C 162.621094 149.175781 163.628906 148.40625 164.632812 147.640625 C 165.320312 147.117188 166.023438 146.605469 166.753906 146.152344 C 167.695312 145.566406 168.664062 145.011719 169.652344 144.507812 C 169.898438 144.382812 170.273438 144.511719 170.675781 144.527344 C 170.914062 144.230469 171.175781 143.957031 171.46875 143.714844 C 171.839844 143.488281 172.230469 143.304688 172.640625 143.171875 C 173.472656 142.847656 174.316406 142.546875 175.152344 142.238281 C 175.519531 142.109375 175.867188 142.144531 176.199219 142.339844 C 177.125 142.789062 177.308594 142.679688 177.628906 141.652344 C 178.257812 141.5 178.90625 141.332031 179.558594 141.203125 C 179.730469 141.167969 179.886719 141.207031 180.023438 141.316406 C 180.359375 141.671875 180.675781 141.535156 180.839844 141.222656 C 181.222656 140.488281 181.898438 140.316406 182.601562 140.195312 C 183.453125 140.050781 184.304688 139.914062 185.164062 139.851562 C 185.863281 139.796875 186.542969 139.921875 187.269531 139.65625 C 187.832031 139.453125 188.542969 139.667969 189.1875 139.695312 C 189.671875 139.734375 190.15625 139.746094 190.640625 139.730469 C 190.90625 139.667969 191.15625 139.566406 191.390625 139.421875 C 191.660156 139.660156 191.921875 139.910156 192.207031 140.125 C 192.320312 140.210938 192.535156 140.304688 192.628906 140.253906 C 193.414062 139.8125 194.179688 140.136719 194.988281 140.242188 L 195.191406 140.875 C 195.554688 140.847656 195.917969 140.707031 196.171875 140.816406 C 197.335938 141.320312 197.324219 141.34375 197.527344 141.90625 C 198.859375 142.078125 200.417969 141.75 201.15625 143.464844 L 201.734375 143.125 C 202.296875 143.488281 202.875 143.882812 203.472656 144.242188 C 204.308594 144.746094 205.183594 145.195312 206.003906 145.726562 C 206.660156 146.152344 207.261719 146.664062 207.890625 147.136719 C 208.003906 147.222656 208.125 147.300781 208.246094 147.371094 C 208.425781 147.472656 208.695312 147.523438 208.777344 147.675781 C 209.210938 148.472656 210.042969 148.769531 210.691406 149.296875 C 210.917969 149.480469 211.015625 149.859375 211.257812 149.980469 C 211.523438 150.113281 211.910156 149.996094 212.207031 150.089844 C 212.484375 150.214844 212.734375 150.375 212.960938 150.578125 C 213.945312 151.296875 214.929688 152.015625 215.910156 152.742188 C 215.609375 152.746094 215.3125 152.753906 214.871094 152.765625 C 215.042969 152.957031 215.195312 153.175781 215.234375 153.160156 C 215.464844 153.035156 215.679688 152.894531 215.886719 152.738281 Z M 215.886719 152.738281 " fill-opacity="1" fill-rule="nonzero"/></g></g></g><g clip-path="url(#id4)"><path fill="#9c8d87" d="M 126.84375 146.429688 C 126.878906 145.375 127.328125 144.609375 128.121094 144.023438 C 128.753906 143.558594 129.480469 143.304688 130.292969 143.449219 C 131.230469 143.621094 132.175781 143.558594 133.109375 143.488281 C 133.863281 143.429688 134.632812 143.285156 135.273438 142.816406 C 135.597656 141.347656 136.269531 140.058594 137.285156 138.953125 C 138.378906 137.734375 139.679688 136.753906 140.976562 135.773438 C 141.695312 135.234375 142.449219 134.738281 143.214844 134.273438 C 143.703125 133.980469 144.09375 133.59375 144.386719 133.105469 C 144.71875 132.550781 145.117188 132.042969 145.574219 131.585938 C 146.1875 130.988281 146.78125 130.363281 147.417969 129.78125 C 147.699219 129.515625 148.011719 129.292969 148.359375 129.121094 C 149.167969 128.730469 149.996094 128.390625 150.816406 128.019531 C 151.214844 127.851562 151.632812 127.773438 152.0625 127.78125 C 152.980469 127.761719 153.832031 128.023438 154.695312 128.28125 C 155.652344 128.566406 156.496094 129.050781 157.226562 129.734375 C 158.089844 130.542969 159.097656 131.085938 160.242188 131.363281 C 160.808594 131.496094 161.394531 131.753906 162.003906 131.574219 C 162.632812 131.390625 163.277344 131.390625 163.917969 131.429688 C 164.984375 131.488281 166.046875 131.578125 167.109375 131.667969 C 167.285156 131.675781 167.445312 131.726562 167.597656 131.808594 C 168.601562 132.386719 169.746094 132.644531 170.742188 133.300781 C 170.90625 133.09375 171.050781 132.941406 171.164062 132.765625 C 171.398438 132.40625 171.625 132.039062 171.835938 131.664062 C 172.28125 130.871094 172.988281 130.277344 173.488281 129.527344 C 173.984375 128.777344 174.613281 128.121094 175.214844 127.453125 C 175.886719 126.710938 176.695312 126.152344 177.554688 125.664062 C 177.96875 125.4375 178.40625 125.273438 178.867188 125.164062 C 180.535156 124.738281 182.179688 124.96875 183.808594 125.355469 C 185.136719 125.675781 186.402344 126.222656 187.652344 126.773438 C 188.585938 127.183594 189.503906 127.628906 190.460938 128.007812 C 191.792969 128.53125 193.109375 128.957031 194.554688 128.816406 C 194.683594 128.816406 194.808594 128.824219 194.9375 128.835938 C 195.410156 128.839844 195.871094 128.773438 196.324219 128.640625 C 197.71875 128.226562 199.113281 127.824219 200.558594 127.632812 C 201.109375 127.542969 201.65625 127.566406 202.195312 127.695312 C 203.140625 127.9375 204.039062 128.402344 205.0625 128.351562 C 205.21875 128.34375 205.378906 128.464844 205.542969 128.511719 C 206.867188 128.882812 208.128906 129.390625 209.289062 130.140625 C 209.894531 130.535156 210.445312 130.984375 210.757812 131.664062 C 211.570312 132.199219 212.28125 132.859375 212.964844 133.53125 C 213.679688 134.214844 214.429688 134.851562 215.21875 135.449219 C 215.960938 136.027344 216.664062 136.65625 217.390625 137.253906 C 217.695312 137.503906 217.929688 137.804688 218.101562 138.160156 C 218.324219 138.625 218.492188 139.113281 218.695312 139.585938 C 218.910156 140.082031 219.011719 140.636719 219.433594 141.019531 C 219.464844 141.535156 219.488281 142.050781 219.527344 142.5625 C 219.539062 142.734375 219.574219 142.902344 219.628906 143.066406 C 219.796875 143.527344 219.808594 143.992188 219.664062 144.464844 C 219.53125 144.929688 219.539062 145.398438 219.472656 145.867188 C 219.234375 147.628906 218.632812 149.277344 217.824219 150.847656 C 217.289062 151.886719 216.476562 152.714844 215.628906 153.519531 C 214.3125 154.78125 212.910156 155.871094 211.105469 156.339844 C 210.660156 156.457031 210.171875 156.625 209.839844 156.925781 C 209.4375 157.285156 209 157.644531 208.734375 158.160156 C 208.320312 158.960938 207.878906 159.75 207.441406 160.539062 C 206.941406 161.4375 206.488281 162.375 205.90625 163.214844 C 205.164062 164.28125 204.644531 165.453125 204.175781 166.652344 C 203.582031 168.167969 203.070312 169.722656 202.449219 171.226562 C 201.894531 172.574219 201.300781 173.90625 200.433594 175.09375 C 199.828125 175.925781 199.199219 176.742188 198.640625 177.601562 C 198.011719 178.570312 197.445312 179.585938 196.847656 180.585938 C 196.496094 181.175781 196.171875 181.789062 195.765625 182.332031 C 194.390625 184.207031 192.800781 185.890625 191.113281 187.488281 C 190.925781 187.667969 190.726562 187.828125 190.511719 187.972656 C 189.789062 188.4375 189.066406 188.890625 188.335938 189.339844 C 188.085938 189.511719 187.820312 189.648438 187.539062 189.75 C 186.667969 190.023438 185.902344 190.503906 185.148438 190.984375 C 184.75 191.242188 184.320312 191.421875 183.859375 191.523438 C 183.109375 191.695312 182.371094 191.914062 181.597656 191.921875 C 180.527344 191.933594 179.457031 191.960938 178.386719 191.96875 C 177.828125 191.96875 177.273438 191.957031 176.75 191.722656 C 176.570312 191.644531 176.332031 191.59375 176.164062 191.792969 C 176.132812 191.878906 176.074219 191.960938 176.082031 192.035156 C 176.171875 192.890625 176.234375 193.75 176.378906 194.59375 C 176.851562 197.347656 177.523438 200.058594 178.195312 202.761719 C 178.753906 205.011719 179.472656 207.214844 180.101562 209.445312 C 180.542969 211.011719 181.125 212.53125 181.648438 214.074219 C 181.761719 214.398438 181.855469 214.746094 182.042969 215.023438 C 182.515625 215.710938 182.734375 216.496094 183.046875 217.25 C 183.324219 217.925781 183.652344 218.578125 183.957031 219.242188 C 184.058594 219.472656 184.175781 219.707031 184.261719 219.949219 C 184.320312 220.136719 184.273438 220.289062 184.117188 220.410156 C 183.777344 220.71875 183.328125 220.707031 183.128906 220.335938 C 182.804688 219.730469 182.429688 219.132812 182.234375 218.484375 C 181.710938 216.746094 180.800781 215.191406 180.1875 213.492188 C 179.675781 212.082031 179.074219 210.703125 178.519531 209.308594 C 178.441406 209.113281 178.402344 208.898438 178.339844 208.691406 C 177.964844 207.503906 177.78125 206.269531 177.496094 205.0625 C 176.984375 202.898438 176.355469 200.761719 175.746094 198.621094 C 175.464844 197.625 175.207031 196.632812 175.234375 195.585938 C 175.242188 195.371094 175.265625 195.144531 175.207031 194.945312 C 174.957031 194.070312 174.921875 193.183594 174.953125 192.285156 C 174.953125 192.183594 174.855469 192.070312 174.816406 191.988281 C 174.578125 191.925781 174.453125 192.066406 174.316406 192.15625 C 172.644531 193.289062 170.792969 193.847656 168.792969 193.992188 C 167.945312 194.050781 167.101562 194.214844 166.265625 194.371094 C 165.246094 194.558594 164.222656 194.582031 163.195312 194.4375 C 161.722656 194.246094 160.277344 193.882812 158.792969 193.679688 C 158.085938 193.574219 157.371094 193.382812 156.746094 192.972656 C 155.75 192.3125 154.71875 191.691406 154.011719 190.675781 C 153.886719 190.5 153.734375 190.347656 153.554688 190.222656 C 152.710938 189.605469 152.085938 188.789062 151.421875 188.003906 C 150.195312 186.550781 149.207031 184.953125 148.453125 183.203125 C 147.804688 181.707031 147.160156 180.210938 146.535156 178.703125 C 145.71875 176.722656 144.941406 174.726562 144.101562 172.753906 C 143.546875 171.453125 142.976562 170.160156 141.992188 169.089844 C 141.121094 168.144531 140.292969 167.152344 139.515625 166.125 C 138.660156 164.992188 137.886719 163.808594 137.082031 162.644531 C 137.03125 162.574219 136.992188 162.496094 136.964844 162.414062 C 136.761719 161.722656 136.261719 161.257812 135.753906 160.792969 C 135.503906 160.558594 135.234375 160.339844 134.992188 160.101562 C 133.890625 159.019531 132.765625 157.957031 131.839844 156.703125 C 131.382812 156.085938 130.960938 155.4375 130.5 154.820312 C 129.9375 154.058594 129.449219 153.25 129.027344 152.402344 C 128.53125 151.402344 128.015625 150.414062 127.550781 149.398438 C 127.121094 148.464844 126.808594 147.507812 126.84375 146.429688 Z M 182.894531 218.753906 C 183.023438 218.207031 182.828125 217.855469 182.476562 217.570312 C 182.375 218.007812 182.625 218.34375 182.894531 218.753906 Z M 181.699219 215.761719 C 181.816406 216.34375 182.011719 216.894531 182.285156 217.421875 C 182.308594 217.46875 182.386719 217.484375 182.449219 217.507812 C 182.433594 216.785156 182.117188 216.164062 181.816406 215.488281 C 181.761719 215.617188 181.683594 215.699219 181.699219 215.761719 Z M 178.472656 207.699219 C 178.699219 208.375 178.9375 209.050781 179.175781 209.722656 C 179.285156 208.679688 179.136719 208.269531 178.558594 207.503906 C 178.527344 207.570312 178.453125 207.648438 178.472656 207.699219 Z M 145.609375 132.335938 C 146.121094 132.175781 146.398438 131.769531 146.855469 131.285156 C 146.105469 131.425781 145.898438 131.941406 145.609375 132.335938 Z M 166.730469 132.4375 C 166.558594 132.429688 166.394531 132.386719 166.238281 132.304688 C 165.828125 132.101562 165.386719 132.128906 164.980469 132.234375 C 163.628906 132.589844 162.261719 132.441406 160.898438 132.441406 C 160.371094 132.429688 159.886719 132.277344 159.445312 131.984375 C 158.757812 131.550781 158.089844 131.09375 157.414062 130.640625 C 156.847656 130.253906 156.316406 129.804688 155.71875 129.480469 C 154.886719 129.027344 153.964844 128.84375 153.011719 128.792969 C 151.980469 128.742188 150.972656 128.917969 149.964844 129.101562 C 149.707031 129.15625 149.484375 129.273438 149.296875 129.457031 C 148.886719 129.835938 148.523438 130.28125 148.066406 130.589844 C 147.574219 130.914062 147.34375 131.429688 146.9375 131.808594 C 146.101562 132.601562 145.425781 133.570312 144.402344 134.164062 C 144.097656 134.34375 143.90625 134.632812 143.710938 134.914062 C 143.035156 135.890625 142.125 136.582031 141.078125 137.097656 C 140.152344 137.542969 139.28125 138.078125 138.464844 138.707031 C 137.917969 139.136719 137.496094 139.664062 137.199219 140.296875 C 136.9375 140.835938 136.722656 141.398438 136.5 141.957031 C 136.476562 142.015625 136.535156 142.109375 136.566406 142.242188 C 136.910156 142.203125 137.140625 141.933594 137.421875 141.78125 C 137.683594 141.636719 137.917969 141.445312 138.179688 141.296875 C 138.472656 141.121094 138.777344 140.964844 139.089844 140.824219 C 139.363281 140.707031 139.65625 140.632812 139.945312 140.539062 C 140.277344 140.601562 140.609375 140.675781 140.945312 140.730469 C 142.214844 140.941406 143.101562 141.691406 143.757812 142.765625 C 143.886719 142.996094 143.945312 143.242188 143.933594 143.503906 C 143.945312 144.160156 143.804688 144.785156 143.519531 145.375 C 142.984375 146.453125 142.425781 147.507812 141.566406 148.378906 C 141.175781 148.773438 140.851562 149.234375 140.792969 149.828125 C 140.753906 150.203125 140.851562 150.511719 141.1875 150.707031 C 141.558594 150.929688 141.933594 151.121094 142.394531 150.941406 C 142.789062 150.789062 143.210938 150.703125 143.609375 150.554688 C 144.246094 150.316406 144.871094 150.054688 145.5 149.792969 C 146.40625 149.417969 147.316406 149.050781 148.210938 148.644531 C 148.628906 148.449219 149.089844 148.300781 149.445312 147.867188 C 149.351562 147.664062 149.25 147.4375 149.144531 147.21875 C 149.019531 146.945312 148.882812 146.675781 148.769531 146.394531 C 148.683594 146.175781 148.414062 145.992188 148.628906 145.691406 C 149.265625 146.289062 149.359375 147.234375 150.070312 147.863281 C 150.636719 147.726562 151.269531 147.722656 151.878906 147.511719 C 152.433594 147.316406 153.023438 147.21875 153.671875 147.0625 C 153.46875 146.507812 153.285156 145.996094 153.09375 145.480469 C 152.90625 144.96875 152.714844 144.4375 152.507812 143.921875 C 152.359375 143.5625 152.316406 143.195312 152.378906 142.8125 C 152.738281 142.90625 152.730469 143.277344 152.777344 143.507812 C 152.953125 144.359375 153.398438 145.09375 153.703125 145.886719 C 153.820312 146.195312 154.066406 146.460938 154.285156 146.707031 C 154.386719 146.824219 154.570312 146.878906 154.726562 146.933594 C 154.945312 147.015625 155.199219 146.8125 155.121094 146.609375 C 154.96875 146.210938 154.855469 145.816406 154.949219 145.386719 C 155.089844 145.390625 155.171875 145.464844 155.1875 145.605469 C 155.265625 146.039062 155.464844 146.417969 155.691406 146.78125 C 155.773438 146.914062 155.941406 146.992188 156.054688 147.089844 C 156.433594 146.867188 156.070312 146.480469 156.3125 146.257812 C 156.867188 147.304688 156.878906 147.3125 157.585938 147.339844 C 157.644531 146.878906 157.152344 146.515625 157.359375 145.933594 C 157.597656 146.339844 157.8125 146.679688 158.003906 147.03125 C 158.332031 147.648438 158.328125 147.652344 159.246094 147.59375 C 158.832031 146.296875 158.382812 145.023438 158.019531 143.726562 C 157.667969 142.464844 157.269531 141.199219 157.324219 139.855469 C 157.484375 140.496094 157.714844 141.113281 157.835938 141.769531 C 157.992188 142.617188 158.269531 143.417969 158.671875 144.175781 C 159.1875 145.160156 159.542969 146.226562 159.992188 147.246094 C 160.277344 147.890625 160.695312 148.332031 161.433594 148.585938 C 162.308594 148.882812 163.09375 149.449219 163.917969 149.894531 C 164.296875 150.101562 164.679688 150.289062 165.058594 150.484375 C 165.289062 150.601562 165.4375 150.394531 165.636719 150.324219 L 166.488281 151.285156 C 166.8125 150.984375 166.292969 150.632812 166.625 150.339844 C 167.085938 150.984375 167.191406 151.863281 167.917969 152.3125 C 167.976562 152.292969 168.019531 152.253906 168.042969 152.191406 C 168.0625 152.132812 168.058594 152.078125 168.027344 152.019531 C 167.425781 150.605469 166.910156 149.15625 166.484375 147.675781 C 166.328125 147.136719 166.203125 146.609375 166.335938 145.933594 C 167.0625 148.980469 168.445312 152.3125 169.480469 153.527344 C 169.617188 153.382812 169.644531 153.109375 169.925781 153.136719 C 170.230469 153.167969 170.378906 153.339844 170.367188 153.648438 L 170.011719 153.523438 C 170.011719 154.316406 170.410156 154.816406 171.492188 155.375 C 171.5625 155.128906 171.316406 155.035156 171.253906 154.859375 C 171.1875 154.664062 171.140625 154.460938 171.082031 154.261719 C 171.203125 154.296875 171.335938 154.378906 171.4375 154.347656 C 171.523438 154.324219 171.589844 154.183594 171.640625 154.078125 C 171.660156 153.996094 171.671875 153.914062 171.679688 153.828125 C 171.894531 153.078125 172.285156 152.953125 172.851562 153.4375 C 173.09375 153.621094 173.21875 153.867188 173.226562 154.171875 C 173.53125 154.28125 173.628906 154.554688 173.675781 154.84375 C 173.75 155.261719 173.722656 155.707031 174.054688 156.117188 C 174.273438 155.960938 174.503906 155.820312 174.738281 155.699219 C 174.96875 155.59375 175.226562 155.5625 175.496094 155.492188 L 176.148438 156.128906 C 176.191406 156.050781 176.25 155.988281 176.253906 155.925781 C 176.308594 155.238281 176.28125 154.554688 176.167969 153.871094 C 176.054688 153.25 176.089844 152.597656 176.066406 151.957031 C 176.023438 150.972656 175.792969 150.007812 175.769531 149.015625 C 175.757812 148.4375 175.570312 147.847656 175.335938 147.285156 C 174.972656 146.421875 174.605469 145.5625 174.492188 144.609375 C 174.4375 144.152344 174.210938 143.714844 174.058594 143.269531 C 173.886719 142.78125 173.683594 142.308594 173.535156 141.8125 C 173.308594 141.070312 173.019531 140.351562 172.671875 139.660156 C 172.390625 139.082031 172.152344 138.484375 171.890625 137.894531 C 171.632812 137.304688 171.363281 136.722656 170.988281 136.195312 C 170.488281 135.496094 170.039062 134.761719 169.5 134.09375 C 168.789062 133.214844 167.964844 132.472656 166.730469 132.4375 Z M 139.070312 141.355469 C 139.203125 141.621094 139.367188 141.691406 139.535156 141.703125 C 139.875 141.730469 140.21875 141.734375 140.558594 141.71875 C 141.515625 141.65625 142.1875 142.140625 142.742188 142.84375 C 142.945312 143.109375 143.105469 143.421875 143.289062 143.707031 C 143.324219 143.734375 143.363281 143.746094 143.40625 143.730469 C 143.460938 143.683594 143.550781 143.613281 143.542969 143.554688 C 143.519531 143.246094 143.414062 142.972656 143.226562 142.726562 C 142.695312 142.039062 142.066406 141.472656 141.199219 141.242188 C 140.261719 140.996094 140.261719 140.996094 139.070312 141.355469 Z M 171.902344 154.53125 C 171.914062 154.613281 171.9375 154.695312 171.976562 154.769531 L 172.671875 155.292969 C 172.871094 155.441406 173.074219 155.589844 173.257812 155.722656 C 173.445312 155.617188 173.503906 155.457031 173.4375 155.25 C 173.339844 154.890625 173.140625 154.558594 173.183594 154.167969 C 173.09375 154.109375 173.007812 154.050781 172.925781 153.984375 C 172.683594 153.777344 172.480469 153.394531 172.109375 153.597656 C 171.734375 153.804688 171.925781 154.207031 171.902344 154.53125 Z M 173.847656 158 C 173.929688 158.515625 174.011719 158.828125 174.359375 159 C 174.398438 158.9375 174.46875 158.878906 174.46875 158.816406 C 174.472656 158.457031 174.363281 158.171875 173.847656 158 Z M 174.761719 157.792969 C 175.011719 157.511719 174.964844 157.257812 174.945312 157.011719 C 174.925781 156.929688 174.875 156.875 174.800781 156.84375 C 174.71875 156.828125 174.644531 156.847656 174.578125 156.898438 C 174.210938 157.199219 174.234375 157.320312 174.761719 157.796875 Z M 175.589844 158.933594 C 175.984375 158.324219 176.035156 158.160156 175.984375 157.488281 C 175.957031 156.945312 175.78125 156.457031 175.457031 156.023438 C 175.113281 157.238281 175.160156 158 175.589844 158.9375 Z M 176.398438 148.148438 C 176.472656 148.023438 176.550781 147.957031 176.550781 147.890625 C 176.539062 146.902344 176.539062 145.914062 176.492188 144.925781 C 176.464844 144.417969 176.398438 143.914062 176.296875 143.417969 C 176.117188 142.488281 175.933594 141.5625 175.703125 140.65625 C 175.523438 139.945312 175.15625 139.308594 174.78125 138.6875 C 174.515625 138.25 174.199219 137.847656 173.902344 137.429688 C 174.3125 138.730469 174.382812 140.027344 174.746094 141.25 C 174.925781 141.867188 175.050781 142.496094 175.207031 143.113281 C 175.523438 144.359375 175.910156 145.585938 176.070312 146.871094 C 176.117188 147.292969 176.273438 147.695312 176.394531 148.152344 Z M 170.199219 133.777344 C 169.996094 133.824219 169.953125 133.886719 170.007812 133.957031 C 171.21875 135.480469 172.175781 137.148438 172.886719 138.960938 C 173.34375 140.113281 174.019531 141.179688 174.347656 142.5625 C 174.457031 142.246094 174.46875 141.925781 174.378906 141.601562 C 174.148438 140.683594 173.96875 139.753906 173.675781 138.859375 C 173.449219 138.164062 173.15625 137.496094 172.792969 136.859375 C 172.117188 135.65625 171.199219 134.644531 170.199219 133.777344 Z M 179.066406 125.859375 C 179.011719 125.796875 178.941406 125.757812 178.855469 125.746094 C 178.542969 125.699219 178.265625 125.847656 178.007812 125.980469 C 176.953125 126.542969 175.945312 127.167969 175.226562 128.167969 C 175.101562 128.339844 174.949219 128.488281 174.601562 128.878906 C 175.316406 128.75 175.6875 128.570312 176.042969 128.359375 C 176.628906 128.007812 177.203125 127.648438 177.792969 127.300781 C 178.3125 126.992188 178.710938 126.546875 179.089844 126.085938 C 179.121094 126.007812 179.113281 125.933594 179.066406 125.859375 Z M 207.152344 130.210938 C 207.742188 130.800781 208.363281 131.207031 208.976562 131.632812 C 208.992188 131.644531 209.046875 131.609375 209.078125 131.59375 C 208.476562 130.660156 208.054688 130.339844 207.152344 130.210938 Z M 212.101562 133.257812 C 211.652344 132.925781 211.25 132.542969 210.898438 132.105469 C 210.785156 131.988281 210.730469 131.84375 210.730469 131.679688 C 210.621094 131.660156 210.507812 131.65625 210.398438 131.667969 C 210.339844 131.679688 210.285156 131.777344 210.246094 131.84375 C 210.238281 131.890625 210.25 131.929688 210.277344 131.96875 C 210.964844 132.910156 211.75 133.730469 212.84375 134.199219 C 212.867188 134.210938 212.914062 134.160156 212.972656 134.121094 C 212.792969 133.722656 212.433594 133.5 212.101562 133.257812 Z M 216.863281 138.335938 C 216.21875 137.542969 215.59375 136.742188 214.917969 135.972656 C 214.449219 135.414062 213.847656 135.113281 213.121094 135.078125 C 213.324219 135.695312 213.878906 135.921875 214.195312 136.347656 C 214.550781 136.820312 214.9375 137.273438 215.441406 137.613281 C 215.898438 137.914062 216.332031 138.246094 216.773438 138.558594 C 216.886719 138.492188 216.921875 138.410156 216.863281 138.335938 Z M 210.304688 155.578125 C 210.597656 155.664062 210.714844 155.382812 210.910156 155.269531 C 211.863281 154.695312 212.824219 154.136719 213.75 153.519531 C 215.855469 152.128906 217.375 150.257812 218.316406 147.90625 C 218.746094 146.847656 219.058594 145.722656 219.039062 144.527344 C 219.023438 143.761719 219.054688 143.015625 218.867188 142.253906 C 218.515625 140.820312 217.601562 139.800781 216.484375 138.996094 C 214.726562 137.730469 213.304688 136.125 211.824219 134.578125 C 211.625 134.351562 211.414062 134.140625 211.1875 133.949219 C 210.367188 133.332031 209.527344 132.742188 208.714844 132.121094 C 207.898438 131.5 207.09375 130.855469 206.300781 130.203125 C 205.863281 129.851562 205.390625 129.5625 204.882812 129.328125 C 204.308594 129.046875 203.757812 128.882812 203.054688 129.019531 C 200.949219 129.429688 198.800781 129.316406 196.664062 129.378906 C 196.28125 129.390625 195.902344 129.441406 195.523438 129.484375 C 193.945312 129.648438 192.363281 129.6875 190.851562 129.078125 C 189.976562 128.730469 189.109375 128.359375 188.257812 127.96875 C 187.089844 127.441406 185.945312 126.84375 184.761719 126.359375 C 184.003906 126.066406 183.222656 125.851562 182.421875 125.714844 C 181.707031 125.585938 180.992188 125.652344 180.328125 126.085938 C 179.757812 126.460938 179.164062 126.785156 178.644531 127.25 C 178.238281 127.621094 177.734375 127.882812 177.257812 128.171875 C 176.5625 128.589844 175.910156 129.070312 175.128906 129.351562 C 174.429688 129.621094 173.84375 130.042969 173.371094 130.625 C 172.597656 131.546875 171.871094 132.5 171.40625 133.578125 C 171.398438 133.921875 171.605469 134.09375 171.78125 134.273438 C 172.109375 134.613281 172.4375 134.953125 172.777344 135.28125 C 173.121094 135.605469 173.453125 135.941406 173.628906 136.398438 C 173.871094 137.015625 174.429688 137.394531 174.765625 137.949219 C 175.339844 138.898438 175.941406 139.820312 176.097656 140.960938 C 176.191406 141.640625 176.464844 142.277344 176.59375 142.957031 C 176.867188 144.4375 177.011719 145.929688 177.027344 147.433594 C 177.042969 148.121094 177.046875 148.8125 177.015625 149.5 C 176.980469 150.246094 177.054688 150.957031 177.414062 151.621094 C 177.652344 151.378906 177.527344 151.042969 177.613281 150.761719 C 177.699219 150.480469 177.816406 150.203125 177.980469 149.792969 C 178.019531 150.964844 177.6875 152 177.859375 153.03125 C 178.101562 153.105469 178.199219 152.964844 178.273438 152.816406 C 178.378906 152.628906 178.460938 152.429688 178.511719 152.21875 C 178.761719 150.96875 179.261719 149.773438 179.390625 148.492188 C 179.398438 148.429688 179.476562 148.375 179.527344 148.308594 C 179.730469 148.6875 179.640625 149.0625 179.535156 149.441406 C 179.332031 150.179688 179.117188 150.917969 178.9375 151.664062 C 178.878906 151.933594 178.898438 152.195312 178.996094 152.449219 C 179.171875 152.03125 179.34375 151.613281 179.519531 151.191406 C 179.667969 151.386719 179.648438 151.601562 179.585938 151.808594 C 179.429688 152.34375 179.316406 152.90625 179.066406 153.394531 C 178.765625 153.976562 178.832031 154.523438 178.953125 155.292969 C 179.613281 154.089844 180.011719 152.964844 180.507812 151.886719 C 180.894531 152.070312 181.265625 152.191406 181.261719 152.699219 C 181.261719 152.90625 181.363281 153.105469 181.4375 153.335938 C 181.597656 153.28125 181.734375 153.179688 181.8125 153.214844 C 181.988281 153.289062 181.929688 153.480469 181.949219 153.636719 C 182.132812 153.648438 182.25 153.523438 182.347656 153.398438 C 182.796875 152.832031 183.25 152.261719 183.675781 151.679688 C 183.894531 151.382812 184.070312 151.0625 184.386719 150.847656 C 184.441406 150.914062 184.496094 150.964844 184.488281 150.980469 C 183.929688 152.078125 183.132812 153.019531 182.453125 154.058594 L 182.769531 154.328125 C 183.15625 154.273438 183.28125 153.875 183.613281 153.769531 C 183.652344 153.792969 183.679688 153.828125 183.6875 153.871094 C 183.695312 153.917969 183.683594 153.957031 183.652344 153.992188 C 183.3125 154.527344 182.738281 154.898438 182.628906 155.578125 C 182.660156 155.585938 182.753906 155.652344 182.808594 155.628906 C 183.082031 155.515625 183.339844 155.304688 183.625 155.273438 C 183.914062 155.238281 184.175781 155.414062 184.460938 155.445312 C 184.765625 155.464844 185.070312 155.46875 185.375 155.453125 C 186.230469 154.371094 187.058594 153.300781 187.671875 152.070312 C 188.359375 150.691406 189.105469 149.34375 189.824219 147.984375 C 189.898438 147.847656 189.976562 147.707031 190.148438 147.683594 C 190.136719 147.613281 190.136719 147.546875 190.15625 147.476562 C 190.46875 146.769531 190.875 146.121094 191.378906 145.535156 C 191.609375 145.269531 191.816406 144.925781 192.207031 144.847656 C 192.195312 144.773438 192.207031 144.703125 192.234375 144.632812 C 192.746094 143.9375 193.308594 143.296875 194.101562 142.910156 C 194.839844 142.550781 195.566406 142.179688 196.289062 141.800781 C 197.609375 141.105469 199 141.066406 200.410156 141.363281 C 201.328125 141.558594 202.234375 141.804688 203.125 142.09375 C 203.550781 142.230469 203.976562 142.3125 204.382812 142.195312 C 205.101562 141.992188 205.824219 142.035156 206.550781 142.023438 C 207.40625 142.011719 208.265625 141.96875 209.121094 142.023438 C 210.703125 142.121094 211.960938 142.824219 212.886719 144.15625 C 213.632812 145.226562 213.761719 146.382812 213.476562 147.601562 C 212.863281 150.207031 211.875 152.660156 210.511719 154.960938 C 210.429688 155.113281 210.355469 155.265625 210.296875 155.429688 C 210.285156 155.460938 210.300781 155.503906 210.304688 155.578125 Z M 178.546875 154.035156 L 177.734375 154.21875 C 177.523438 154.40625 177.53125 154.667969 177.523438 154.921875 C 177.507812 155.59375 177.632812 156.269531 177.410156 156.894531 C 177.71875 157.042969 177.785156 156.875 177.867188 156.734375 C 178.550781 155.5625 178.652344 155.175781 178.542969 154.039062 Z M 178.402344 157.148438 C 178.542969 157.285156 178.699219 157.3125 178.875 157.226562 C 179.046875 157.179688 179.167969 157.074219 179.234375 156.90625 C 179.234375 156.867188 179.21875 156.835938 179.191406 156.8125 C 178.992188 156.65625 178.792969 156.722656 178.625 156.855469 C 178.535156 156.945312 178.460938 157.042969 178.402344 157.152344 Z M 180.828125 153.640625 C 180.964844 153.332031 181.042969 153.015625 180.746094 152.652344 C 180.304688 153.277344 179.863281 153.855469 179.953125 154.679688 C 180.585938 154.566406 180.644531 154.050781 180.828125 153.640625 Z M 180.007812 155.628906 C 180.050781 155.699219 180.097656 155.769531 180.148438 155.832031 C 180.171875 155.859375 180.25 155.882812 180.261719 155.867188 C 180.371094 155.75 180.472656 155.625 180.570312 155.496094 C 180.585938 155.453125 180.582031 155.417969 180.554688 155.382812 C 180.488281 155.339844 180.402344 155.277344 180.339844 155.300781 C 180.167969 155.34375 180.054688 155.453125 180.003906 155.628906 Z M 181.910156 154 C 181.964844 153.925781 181.9375 153.792969 181.933594 153.679688 C 181.445312 153.917969 181.21875 154.433594 180.789062 154.726562 C 180.890625 154.964844 181.0625 154.980469 181.179688 154.855469 C 181.445312 154.589844 181.683594 154.304688 181.90625 154 Z M 181.464844 155.269531 C 181.511719 155.320312 181.554688 155.414062 181.605469 155.421875 C 181.820312 155.46875 182.015625 155.429688 182.191406 155.296875 C 182.386719 155.140625 182.457031 154.871094 182.320312 154.769531 C 182.152344 154.644531 182.015625 154.722656 181.875 154.820312 C 181.707031 154.9375 181.507812 155.027344 181.464844 155.269531 Z M 198.0625 147.882812 C 197.398438 149.300781 196.421875 150.507812 195.359375 151.628906 C 194.066406 153 192.804688 154.40625 191.308594 155.578125 C 191.21875 155.664062 191.136719 155.757812 191.0625 155.863281 C 191.191406 156.03125 191.363281 156.070312 191.519531 155.984375 C 191.886719 155.777344 192.242188 155.542969 192.609375 155.316406 C 192.699219 155.660156 192.703125 155.664062 192.347656 156.074219 C 192.410156 156.105469 192.480469 156.175781 192.53125 156.167969 C 193.464844 155.914062 194.179688 155.289062 194.917969 154.710938 C 195.117188 154.554688 195.285156 154.359375 195.570312 154.433594 C 195.582031 154.621094 195.460938 154.742188 195.335938 154.84375 C 194.875 155.222656 194.40625 155.597656 193.933594 155.964844 C 193.796875 156.066406 193.660156 156.167969 193.632812 156.414062 C 194.6875 156.507812 195.742188 156.535156 196.800781 156.492188 C 196.886719 156.503906 196.96875 156.492188 197.050781 156.457031 C 197.554688 156.105469 198.136719 156.046875 198.714844 155.914062 C 199.253906 155.796875 199.675781 155.375 200.105469 155.019531 C 200.148438 154.984375 200.253906 155.019531 200.328125 155.019531 L 200.277344 155.398438 L 200.707031 155.472656 C 200.6875 155.546875 200.660156 155.617188 200.625 155.683594 C 200.5625 155.785156 200.433594 155.898438 200.523438 156.023438 C 200.601562 156.128906 200.703125 156.183594 200.832031 156.195312 C 202.21875 155.988281 203.621094 155.886719 204.96875 155.421875 C 206.117188 155.03125 207.140625 154.425781 208.035156 153.609375 C 209.375 152.386719 210.507812 150.996094 211.433594 149.433594 C 211.914062 148.613281 212.261719 147.738281 212.464844 146.804688 C 212.695312 145.785156 212.410156 144.859375 211.707031 144.0625 C 211.054688 143.328125 210.226562 142.914062 209.324219 142.621094 C 208.902344 142.664062 208.480469 142.71875 208.058594 142.75 C 207.460938 142.789062 206.863281 142.804688 206.277344 142.953125 C 205.734375 143.097656 205.175781 143.058594 204.621094 142.953125 C 204.332031 142.886719 204.035156 142.84375 203.738281 142.816406 C 201.941406 142.742188 200.171875 142.429688 198.40625 142.121094 C 197.355469 141.9375 196.472656 142.203125 195.667969 142.875 C 194.414062 143.929688 193.351562 145.15625 192.480469 146.550781 C 191.816406 147.605469 191.230469 148.707031 190.550781 149.742188 C 189.894531 150.746094 189.191406 151.722656 188.457031 152.671875 C 187.78125 153.554688 187.191406 154.507812 186.285156 155.371094 L 188.535156 155.699219 C 188.789062 155.738281 189.058594 155.722656 189.289062 155.816406 C 189.898438 156.058594 190.386719 155.847656 190.824219 155.460938 C 191.726562 154.667969 192.667969 153.90625 193.492188 153.042969 C 194.261719 152.238281 195.0625 151.464844 195.753906 150.578125 C 196.308594 149.867188 196.859375 149.160156 197.3125 148.382812 C 197.5 148.054688 197.734375 147.765625 198.019531 147.515625 C 198.160156 147.640625 198.109375 147.765625 198.058594 147.882812 Z M 193.445312 156.859375 C 195.414062 157.460938 197.199219 157.71875 199.039062 157.246094 C 199.894531 157.023438 200.761719 156.839844 201.855469 156.585938 C 200.632812 156.429688 199.664062 156.351562 198.746094 156.839844 C 198.59375 156.921875 198.433594 156.960938 198.261719 156.953125 C 197.878906 156.941406 197.875 156.964844 197.480469 157.226562 C 197.050781 157.074219 196.632812 156.84375 196.1875 156.78125 C 195.339844 156.660156 194.488281 156.75 193.441406 156.859375 Z M 208.941406 153.394531 C 210.148438 152.890625 210.667969 152.445312 211.09375 151.652344 C 211.355469 151.167969 211.597656 150.6875 212.050781 150.316406 C 212.527344 149.925781 212.589844 149.375 212.492188 148.390625 C 212.191406 148.484375 212.28125 148.800781 212.148438 148.972656 C 212.007812 149.1875 211.886719 149.414062 211.78125 149.648438 C 211.660156 149.875 211.554688 150.109375 211.421875 150.328125 C 211.289062 150.546875 211.140625 150.757812 210.984375 150.960938 C 210.855469 151.132812 210.699219 151.285156 210.566406 151.449219 C 210.40625 151.652344 210.261719 151.863281 210.097656 152.0625 C 209.9375 152.261719 209.746094 152.433594 209.578125 152.628906 C 209.40625 152.820312 209.25 153.019531 208.941406 153.394531 Z M 192.25 144.875 C 192.234375 144.992188 192.238281 145.128906 192.171875 145.191406 C 191.480469 145.886719 190.980469 146.722656 190.464844 147.550781 C 190.417969 147.628906 190.300781 147.65625 190.199219 147.707031 C 190.25 148.070312 189.984375 148.324219 189.847656 148.621094 C 189.414062 149.546875 188.941406 150.457031 188.484375 151.371094 C 188.425781 151.488281 188.371094 151.605469 188.492188 151.75 C 188.78125 151.773438 188.851562 151.480469 188.964844 151.304688 C 189.886719 149.875 190.8125 148.445312 191.679688 146.980469 C 192.160156 146.171875 192.605469 145.351562 193.28125 144.683594 C 193.394531 144.570312 193.4375 144.386719 193.503906 144.234375 C 193.511719 144.21875 193.453125 144.167969 193.421875 144.140625 C 193.390625 144.117188 193.34375 144.085938 193.324219 144.097656 C 193.175781 144.171875 193.035156 144.261719 192.90625 144.367188 C 192.699219 144.554688 192.566406 144.839844 192.25 144.875 Z M 199.964844 174.941406 C 200.277344 174.480469 200.621094 174.035156 200.875 173.542969 C 201.398438 172.511719 201.921875 171.488281 202.277344 170.382812 C 202.433594 169.898438 202.679688 169.441406 202.878906 168.972656 C 202.980469 168.738281 203.105469 168.503906 202.957031 168.238281 C 202.710938 168.261719 202.632812 168.472656 202.546875 168.640625 C 201.980469 169.742188 201.390625 170.828125 200.941406 171.988281 C 200.683594 172.664062 200.320312 173.300781 200 173.953125 C 199.847656 174.269531 199.785156 174.539062 199.761719 175.023438 C 199.832031 174.996094 199.929688 174.988281 199.964844 174.941406 Z M 194.972656 182.503906 C 194.902344 182.371094 194.820312 182.34375 194.746094 182.425781 C 194.179688 183.058594 193.613281 183.691406 193.0625 184.335938 C 193 184.414062 193.023438 184.5625 193.011719 184.683594 C 193.125 184.644531 193.261719 184.628906 193.335938 184.550781 C 193.9375 183.910156 194.523438 183.25 194.972656 182.503906 Z M 191.40625 186.59375 C 191.890625 186.117188 192.367188 185.632812 192.84375 185.152344 C 192.976562 185.03125 193.027344 184.878906 193.003906 184.703125 C 192.453125 184.785156 192.199219 185.273438 191.839844 185.605469 C 191.53125 185.890625 191.300781 186.257812 191.039062 186.589844 C 191.160156 186.835938 191.300781 186.695312 191.40625 186.59375 Z M 176.960938 189.441406 C 177.675781 188.378906 178.605469 187.472656 179.226562 186.234375 C 179.496094 186.679688 179.4375 186.996094 179.125 187.25 C 178.871094 187.453125 179.058594 187.808594 178.796875 188.015625 C 178.605469 188.164062 178.496094 188.410156 178.378906 188.578125 C 178.445312 188.769531 178.496094 188.785156 178.582031 188.699219 C 179.042969 188.253906 179.503906 187.808594 179.96875 187.359375 C 180.035156 187.445312 180.109375 187.5 180.125 187.566406 C 180.175781 187.789062 180.328125 187.859375 180.484375 187.738281 C 181.25 187.109375 181.910156 186.378906 182.546875 185.625 C 183.347656 184.675781 184.160156 183.738281 184.976562 182.804688 C 185.046875 182.726562 185.171875 182.699219 185.277344 182.652344 C 185.253906 183.148438 184.914062 183.5 184.648438 183.855469 C 183.902344 184.847656 183.1875 185.871094 182.308594 186.757812 C 182.15625 186.910156 182.035156 187.09375 181.871094 187.226562 C 181.707031 187.363281 181.710938 187.699219 181.347656 187.699219 C 181.132812 187.699219 181.234375 188.066406 181.109375 188.230469 C 180.507812 188.960938 179.820312 189.601562 179.054688 190.15625 C 178.933594 190.25 178.824219 190.363281 178.644531 190.53125 C 179.804688 190.238281 180.285156 189.9375 182.226562 188.496094 C 183.296875 187.710938 184.191406 186.730469 185.152344 185.824219 C 185.207031 185.886719 185.269531 185.9375 185.261719 185.949219 C 184.535156 187.199219 183.332031 187.988281 182.355469 189.003906 C 182.09375 189.277344 181.761719 189.480469 181.394531 189.769531 C 181.921875 189.976562 182.167969 189.597656 182.46875 189.417969 C 182.765625 189.238281 182.964844 188.945312 183.308594 188.851562 C 183.476562 188.9375 183.425781 189.042969 183.324219 189.125 C 182.726562 189.609375 182.121094 190.085938 181.507812 190.574219 C 181.488281 190.785156 181.644531 190.828125 181.820312 190.84375 C 182.644531 190.914062 183.433594 190.691406 184.21875 190.488281 C 185.546875 190.144531 186.789062 189.554688 187.957031 188.832031 C 188.84375 188.292969 189.609375 187.613281 190.253906 186.792969 C 190.808594 186.085938 191.453125 185.457031 192.066406 184.792969 C 193.34375 183.40625 194.585938 181.992188 195.769531 180.523438 C 196.195312 179.988281 196.6875 179.511719 197.121094 178.980469 C 197.933594 177.960938 198.375 176.734375 198.898438 175.558594 C 199.773438 173.605469 200.578125 171.605469 201.507812 169.675781 C 202.085938 168.484375 202.816406 167.363281 203.527344 166.242188 C 203.949219 165.597656 204.339844 164.929688 204.695312 164.242188 C 205.234375 163.171875 205.6875 162.042969 206.351562 161.054688 C 207.167969 159.835938 207.769531 158.507812 208.5 157.246094 C 209.191406 156.039062 209.816406 154.785156 210.402344 153.480469 C 210.234375 153.46875 210.132812 153.429688 210.085938 153.464844 C 208.773438 154.375 207.253906 154.871094 205.871094 155.636719 C 205.679688 155.726562 205.480469 155.804688 205.273438 155.859375 C 203.816406 156.351562 202.351562 156.824219 200.90625 157.34375 C 200.496094 157.492188 200.0625 157.488281 199.660156 157.613281 C 198.960938 157.828125 198.214844 157.734375 197.523438 158.011719 C 197.265625 158.113281 196.910156 158.085938 196.636719 158.003906 C 195.605469 157.6875 194.511719 157.832031 193.480469 157.539062 C 192.988281 157.402344 192.472656 157.351562 191.980469 157.222656 C 191.070312 156.988281 190.167969 156.738281 189.265625 156.480469 C 187.859375 156.078125 187.054688 156.003906 185.636719 156.164062 C 185.464844 156.191406 185.296875 156.207031 185.125 156.214844 C 183.554688 156.207031 182.121094 156.75 180.664062 157.25 C 179.289062 157.722656 178.207031 158.628906 177.09375 159.484375 C 176.660156 159.820312 176.179688 160.101562 175.808594 160.535156 C 175.527344 160.867188 175.382812 161.195312 175.53125 161.589844 C 175.9375 162.722656 176.1875 163.898438 176.585938 165.027344 C 176.925781 165.992188 177.457031 166.890625 177.953125 167.792969 C 178.351562 168.554688 178.683594 169.34375 178.945312 170.160156 C 179 170.28125 179.035156 170.402344 179.058594 170.53125 C 179.160156 171.773438 179.261719 173.011719 179.339844 174.253906 C 179.375 174.8125 179.394531 175.355469 179.597656 175.902344 C 180.105469 177.230469 180.019531 178.621094 179.742188 179.972656 C 179.242188 182.414062 178.472656 184.78125 177.574219 187.101562 C 177.269531 187.898438 176.863281 188.65625 176.515625 189.40625 C 176.6875 189.628906 176.851562 189.601562 176.960938 189.441406 Z M 176.84375 166.832031 C 176.921875 168.28125 177.359375 169.472656 177.789062 170.667969 C 178.042969 171.375 178.28125 172.089844 178.785156 172.863281 C 178.863281 171.917969 178.648438 171.171875 178.46875 170.441406 C 178.167969 169.203125 177.710938 168.011719 176.84375 166.832031 Z M 178.34375 180.121094 C 178.050781 181.234375 177.839844 182.371094 177.59375 183.5 C 177.351562 184.625 177.121094 185.742188 176.878906 186.871094 C 176.964844 186.90625 177.046875 186.898438 177.125 186.851562 C 177.203125 186.804688 177.246094 186.738281 177.257812 186.644531 C 177.453125 185.804688 177.804688 185.027344 178.160156 184.25 C 178.234375 184.09375 178.296875 183.9375 178.339844 183.769531 C 178.640625 182.566406 178.957031 181.363281 179.214844 180.152344 C 179.375 179.441406 179.480469 178.722656 179.527344 177.996094 C 179.550781 177.601562 179.375 177.195312 179.253906 176.613281 C 178.734375 177.855469 178.632812 179.011719 178.34375 180.121094 Z M 175.304688 193.152344 C 175.550781 192.890625 175.457031 192.652344 175.480469 192.441406 C 175.488281 192.238281 175.488281 192.03125 175.480469 191.824219 C 175.242188 192.238281 175.261719 192.648438 175.304688 193.152344 Z M 150.488281 185.734375 C 150.296875 184.945312 150.296875 184.945312 149.863281 184.613281 C 149.980469 185.035156 150.101562 185.417969 150.488281 185.734375 Z M 142.746094 169.070312 C 142.769531 168.992188 142.835938 168.890625 142.808594 168.84375 C 142.382812 168.148438 142.046875 167.367188 141.496094 166.792969 C 140.472656 165.71875 139.71875 164.378906 138.429688 163.554688 C 139.5 165.421875 141.632812 168.074219 142.746094 169.070312 Z M 136.453125 160.6875 C 136.875 161.523438 137.507812 162.164062 138.234375 162.683594 C 139.1875 163.371094 140.019531 164.148438 140.644531 165.148438 C 140.761719 165.328125 140.902344 165.492188 141.0625 165.636719 C 141.90625 166.453125 142.53125 167.429688 143.09375 168.445312 C 144.050781 170.175781 144.878906 171.96875 145.480469 173.863281 C 145.804688 174.878906 146.148438 175.902344 146.683594 176.847656 C 146.828125 177.105469 146.902344 177.402344 147.011719 177.6875 C 147.476562 178.886719 148.03125 180.042969 148.679688 181.152344 C 149.144531 181.976562 149.609375 182.800781 150.027344 183.648438 C 150.753906 185.117188 151.703125 186.445312 152.582031 187.8125 C 152.746094 188.066406 152.925781 188.308594 153.070312 188.574219 C 153.75 189.820312 154.761719 190.722656 155.976562 191.410156 C 156.238281 191.554688 156.527344 191.667969 156.757812 191.855469 C 157.28125 192.273438 157.882812 192.472656 158.519531 192.574219 C 159.734375 192.789062 160.957031 192.972656 162.175781 193.164062 C 162.207031 193.171875 162.25 193.128906 162.292969 193.105469 C 161.554688 192.71875 160.796875 192.375 160.128906 191.792969 C 160.761719 191.683594 161.132812 192.359375 161.722656 192.175781 C 161.757812 192.164062 161.789062 192.125 161.824219 192.097656 C 161.808594 192.058594 161.804688 192 161.777344 191.980469 C 160.167969 190.929688 158.808594 189.554688 157.28125 188.402344 C 156.660156 187.929688 156.128906 187.375 155.6875 186.730469 C 155.203125 186.027344 154.617188 185.394531 154.054688 184.746094 C 153.128906 183.671875 152.363281 182.480469 151.609375 181.28125 C 151.371094 180.921875 151.1875 180.535156 151.050781 180.125 C 150.792969 179.257812 150.378906 178.453125 150.007812 177.640625 C 149.617188 176.78125 149.324219 175.890625 149.128906 174.964844 C 148.964844 174.167969 148.816406 173.371094 148.582031 172.589844 C 148.484375 172.277344 148.40625 171.921875 148.632812 171.527344 C 149.039062 172.703125 149.296875 173.859375 149.5625 175.015625 C 149.765625 175.898438 150.003906 176.757812 150.402344 177.570312 C 150.835938 178.457031 151.285156 179.335938 151.597656 180.28125 C 151.683594 180.523438 151.792969 180.757812 151.929688 180.980469 C 152.777344 182.375 153.695312 183.722656 154.777344 184.949219 C 155.316406 185.558594 155.820312 186.203125 156.335938 186.832031 C 156.472656 186.996094 156.570312 187.203125 156.734375 187.335938 C 158.128906 188.46875 159.429688 189.730469 161.03125 190.589844 C 161.085938 190.621094 161.183594 190.578125 161.269531 190.566406 C 161.253906 190.496094 161.269531 190.402344 161.222656 190.359375 C 160.847656 190.011719 160.445312 189.6875 160.082031 189.324219 C 158.953125 188.207031 157.855469 187.0625 156.910156 185.78125 C 156.8125 185.652344 156.695312 185.507812 156.796875 185.328125 C 156.949219 185.203125 157.027344 185.335938 157.097656 185.421875 C 157.507812 185.914062 157.902344 186.425781 158.328125 186.90625 C 160.101562 188.917969 162.136719 190.617188 164.433594 191.996094 C 164.761719 192.191406 165.140625 192.316406 165.457031 192.539062 C 166.21875 193.09375 167.070312 193.132812 167.910156 192.929688 C 168.582031 192.769531 169.261719 192.734375 169.9375 192.628906 C 169.972656 192.34375 169.761719 192.277344 169.582031 192.210938 C 168.015625 191.613281 166.5625 190.792969 165.144531 189.910156 C 164.53125 189.527344 163.949219 189.082031 163.363281 188.652344 C 162.882812 188.292969 162.421875 187.90625 161.941406 187.550781 C 161.660156 187.34375 161.441406 187.113281 161.378906 186.761719 C 161.550781 186.71875 161.707031 186.75 161.84375 186.867188 C 162.492188 187.421875 163.125 187.996094 163.796875 188.527344 C 164.339844 188.945312 164.90625 189.332031 165.496094 189.6875 C 166.582031 190.363281 167.6875 191.011719 168.871094 191.515625 C 169.074219 191.601562 169.261719 191.6875 169.480469 191.574219 L 169.1875 191.328125 C 169.222656 191.273438 169.25 191.203125 169.300781 191.171875 C 169.53125 191.039062 169.53125 191.042969 169.476562 190.726562 C 170.207031 190.523438 170.910156 190.625 171.59375 190.921875 C 172.140625 191.15625 172.699219 191.367188 173.246094 191.609375 C 173.542969 191.742188 173.816406 191.75 174.101562 191.566406 C 173.855469 191.128906 173.230469 191.222656 172.964844 190.703125 C 173.554688 190.675781 174.027344 191.027344 174.503906 191.101562 C 174.722656 190.972656 174.859375 190.78125 174.90625 190.53125 C 173.765625 190.125 172.878906 189.359375 171.988281 188.554688 C 170.351562 187.070312 169.0625 185.320312 167.824219 183.511719 C 167.613281 183.203125 167.402344 182.894531 167.347656 182.46875 C 167.453125 182.515625 167.539062 182.523438 167.566406 182.574219 C 168.28125 183.800781 169.1875 184.894531 170.070312 185.984375 C 171.144531 187.308594 172.339844 188.554688 173.800781 189.480469 C 173.980469 189.59375 174.167969 189.710938 174.398438 189.542969 C 174.457031 189.21875 174.195312 189.023438 174.066406 188.773438 C 173.65625 187.988281 173.292969 187.183594 173.226562 186.28125 C 173.566406 186.375 173.570312 186.730469 173.644531 186.96875 C 173.859375 187.636719 174.199219 188.21875 174.558594 188.808594 C 174.78125 188.648438 174.714844 188.511719 174.636719 188.359375 C 174.496094 188.09375 174.375 187.816406 174.269531 187.535156 C 174.203125 187.335938 174.152344 187.117188 174.371094 186.859375 C 174.644531 187.78125 175.113281 188.554688 175.695312 189.363281 C 176.007812 188.816406 176.214844 188.234375 176.316406 187.613281 C 176.59375 186.140625 176.878906 184.667969 177.175781 183.195312 C 177.292969 182.609375 177.480469 182.03125 177.546875 181.4375 C 177.632812 180.703125 177.855469 180.015625 178.039062 179.308594 C 178.335938 178.191406 178.566406 177.054688 178.792969 175.914062 C 178.84375 175.671875 178.785156 175.398438 178.746094 175.152344 C 178.5625 173.90625 178.050781 172.769531 177.628906 171.601562 C 177.160156 170.3125 176.734375 169.015625 176.523438 167.648438 C 176.195312 165.558594 175.636719 163.542969 174.613281 161.667969 C 174.078125 160.6875 173.589844 159.683594 172.886719 158.808594 C 172.808594 158.703125 172.75 158.589844 172.703125 158.46875 C 172.03125 156.875 170.785156 155.75 169.578125 154.585938 C 168.398438 153.460938 167.121094 152.460938 165.746094 151.589844 C 164.238281 150.617188 162.742188 149.597656 160.96875 149.144531 C 159.816406 148.851562 158.675781 148.550781 157.472656 148.425781 C 155.769531 148.253906 154.070312 148.25 152.367188 148.214844 C 151.71875 148.203125 151.09375 148.308594 150.484375 148.53125 C 149.644531 148.835938 148.8125 149.15625 147.984375 149.496094 C 146.679688 150.03125 145.382812 150.578125 144.097656 151.136719 C 143.746094 151.289062 143.421875 151.488281 143.046875 151.605469 C 142.199219 151.902344 141.359375 151.875 140.53125 151.53125 C 140.347656 151.457031 140.171875 151.277344 139.90625 151.457031 C 140.117188 152.988281 140.757812 154.378906 141.5 155.722656 C 142.222656 157.035156 143.023438 158.308594 143.792969 159.597656 C 143.90625 159.78125 144.023438 159.964844 144.148438 160.136719 C 145.175781 161.566406 146.207031 162.988281 147.238281 164.414062 C 147.414062 164.65625 147.574219 164.910156 147.722656 165.175781 C 148.816406 167.167969 150.011719 169.101562 151.179688 171.050781 C 152.242188 172.824219 152.976562 174.753906 153.542969 176.746094 C 153.789062 177.609375 153.941406 178.496094 154.105469 179.386719 C 154.148438 179.625 154.25 179.890625 154.09375 180.164062 C 153.722656 180.027344 153.511719 179.808594 153.40625 179.390625 C 153.058594 178.0625 152.671875 176.742188 152.277344 175.425781 C 151.480469 172.777344 150.261719 170.328125 148.75 168.019531 C 148 166.871094 147.257812 165.71875 146.480469 164.585938 C 145.78125 163.554688 145.089844 162.527344 144.472656 161.449219 C 143.984375 160.597656 143.339844 159.824219 142.679688 159.097656 C 140.867188 157.09375 139.917969 154.691406 139.328125 152.101562 C 139.292969 151.886719 139.277344 151.671875 139.285156 151.457031 C 139.285156 151.023438 139.21875 150.605469 139.089844 150.191406 C 138.824219 149.355469 139.070312 148.65625 139.796875 148.1875 C 140.886719 147.480469 141.6875 146.457031 142.660156 145.628906 C 143.167969 145.195312 143.191406 144.566406 142.863281 143.980469 C 142.722656 143.714844 142.566406 143.460938 142.390625 143.214844 C 141.9375 142.597656 141.367188 142.183594 140.550781 142.25 C 140.207031 142.265625 139.867188 142.261719 139.527344 142.230469 C 138.871094 142.203125 138.25 142.339844 137.664062 142.640625 C 136.710938 143.121094 135.734375 143.558594 134.699219 143.832031 C 134.03125 144.003906 133.359375 144.148438 132.671875 144.105469 C 131.855469 144.054688 131.058594 144.207031 130.257812 144.34375 C 129.214844 144.527344 128.761719 145.039062 128.703125 146.070312 C 128.660156 146.804688 128.703125 147.539062 128.992188 148.230469 C 129.3125 148.980469 129.636719 149.730469 130.015625 150.449219 C 130.9375 152.199219 132.113281 153.796875 133.171875 155.464844 C 133.835938 156.511719 134.578125 157.515625 135.246094 158.566406 C 135.6875 159.253906 136.089844 159.960938 136.453125 160.6875 Z M 140.742188 148.546875 C 140.777344 148.5 140.742188 148.398438 140.734375 148.324219 C 140.722656 148.222656 140.53125 148.214844 140.410156 148.324219 C 140.292969 148.433594 140.121094 148.558594 140.085938 148.699219 C 139.976562 149.199219 139.914062 149.707031 139.832031 150.210938 C 139.816406 150.328125 139.816406 150.328125 140.203125 150.726562 C 140.230469 150.589844 140.285156 150.472656 140.273438 150.363281 C 140.183594 149.695312 140.339844 149.089844 140.742188 148.546875 Z M 127.988281 149.289062 C 128.371094 150.054688 128.730469 150.832031 129.113281 151.597656 C 129.886719 153.128906 130.792969 154.574219 131.835938 155.9375 C 132.777344 157.210938 133.824219 158.394531 134.976562 159.484375 C 135.207031 159.363281 135.078125 159.214844 135.003906 159.09375 C 134.378906 158.121094 133.75 157.152344 133.121094 156.183594 C 132.304688 154.921875 131.507812 153.65625 130.679688 152.40625 C 129.945312 151.296875 129.351562 150.113281 128.785156 148.910156 C 128.210938 147.675781 127.960938 146.390625 128.417969 145.042969 C 128.453125 144.941406 128.402344 144.804688 128.382812 144.597656 C 127.808594 144.976562 127.460938 145.421875 127.394531 146.050781 C 127.269531 147.191406 127.464844 148.269531 127.988281 149.289062 Z M 127.988281 149.289062 " fill-opacity="1" fill-rule="nonzero"/></g><path fill="#9c8d87" d="M 159.804688 171.804688 C 160.390625 173.554688 161.199219 175.21875 161.910156 176.917969 C 162.246094 177.710938 162.636719 178.476562 163.082031 179.207031 C 163.703125 180.238281 164.371094 181.234375 165.058594 182.21875 C 165.492188 182.855469 165.972656 183.457031 166.5 184.019531 C 167.566406 185.128906 168.445312 186.421875 169.707031 187.34375 C 169.773438 187.40625 169.808594 187.480469 169.808594 187.570312 C 169.808594 187.640625 169.734375 187.707031 169.671875 187.808594 C 168.863281 187.554688 168.328125 186.914062 167.792969 186.320312 C 166.9375 185.367188 166.128906 184.363281 165.332031 183.355469 C 164.933594 182.855469 164.632812 182.277344 164.234375 181.773438 C 163.292969 180.597656 162.511719 179.320312 161.890625 177.945312 C 161.5 177.085938 161.113281 176.226562 160.753906 175.355469 C 160.183594 173.972656 159.664062 172.578125 159.164062 171.167969 C 159.0625 170.878906 158.976562 170.59375 159.171875 170.28125 C 159.386719 170.800781 159.632812 171.292969 159.804688 171.804688 Z M 159.804688 171.804688 " fill-opacity="1" fill-rule="nonzero"/><path fill="#9c8d87" d="M 163.988281 177.933594 C 163.644531 177.515625 163.335938 177.066406 163.179688 176.527344 C 162.871094 175.453125 162.460938 174.417969 161.945312 173.429688 C 161.648438 172.871094 161.476562 172.242188 161.335938 171.609375 C 161.167969 170.816406 160.945312 170.035156 160.667969 169.269531 C 160.023438 167.5 159.675781 165.652344 159.367188 163.796875 C 159.3125 163.46875 159.21875 163.121094 159.433594 162.761719 C 159.484375 162.875 159.523438 162.992188 159.554688 163.113281 C 159.671875 163.875 159.722656 164.648438 159.910156 165.390625 C 160.238281 166.671875 160.648438 167.929688 161.019531 169.199219 C 161.234375 169.933594 161.441406 170.671875 161.65625 171.410156 C 161.902344 172.273438 162.117188 173.148438 162.597656 173.925781 C 162.828125 174.292969 163.003906 174.679688 163.125 175.09375 C 163.367188 175.964844 163.695312 176.800781 164.117188 177.601562 C 164.175781 177.71875 164.164062 177.832031 163.988281 177.933594 Z M 163.988281 177.933594 " fill-opacity="1" fill-rule="nonzero"/><path fill="#9c8d87" d="M 162.15625 180.40625 C 162.378906 180.761719 162.625 181.105469 162.847656 181.464844 C 162.9375 181.597656 162.917969 181.714844 162.792969 181.8125 C 162.304688 181.511719 162.007812 181.042969 161.726562 180.5625 C 161.027344 179.355469 160.308594 178.160156 160.011719 176.753906 C 160.125 176.882812 160.222656 177.019531 160.308594 177.167969 C 160.832031 178.304688 161.503906 179.351562 162.15625 180.40625 Z M 162.15625 180.40625 " fill-opacity="1" fill-rule="nonzero"/><path fill="#9c8d87" d="M 161.371094 186.753906 L 161.378906 186.753906 L 161.378906 186.761719 L 161.363281 186.761719 C 161.367188 186.757812 161.367188 186.753906 161.371094 186.753906 Z M 161.371094 186.753906 " fill-opacity="1" fill-rule="nonzero"/><path fill="#9c8d87" d="M 160.472656 185.929688 C 159.800781 184.796875 159.109375 183.667969 158.605469 182.449219 C 158.558594 182.332031 158.558594 182.222656 158.765625 182.164062 C 158.9375 182.484375 159.109375 182.824219 159.304688 183.148438 C 159.945312 184.199219 160.425781 185.347656 161.230469 186.292969 C 161.347656 186.425781 161.390625 186.578125 161.371094 186.753906 C 160.921875 186.644531 160.679688 186.28125 160.472656 185.929688 Z M 160.472656 185.929688 " fill-opacity="1" fill-rule="nonzero"/><path fill="#9c8d87" d="M 156.503906 177.214844 C 156.492188 177.214844 156.484375 177.214844 156.472656 177.214844 C 156.472656 177.199219 156.472656 177.179688 156.480469 177.164062 L 156.5 177.191406 Z M 156.503906 177.214844 " fill-opacity="1" fill-rule="nonzero"/><path fill="#9c8d87" d="M 156.734375 177.4375 C 157.238281 178.652344 157.648438 179.90625 158.242188 181.085938 C 158.292969 181.183594 158.25 181.328125 158.25 181.570312 C 158.117188 181.386719 158.050781 181.304688 158 181.214844 C 157.425781 180.164062 157.011719 179.046875 156.59375 177.933594 C 156.511719 177.710938 156.527344 177.453125 156.503906 177.214844 C 156.628906 177.226562 156.691406 177.324219 156.734375 177.4375 Z M 156.734375 177.4375 " fill-opacity="1" fill-rule="nonzero"/><path fill="#9c8d87" d="M 173.183594 186.214844 C 173.195312 186.222656 173.207031 186.230469 173.214844 186.238281 L 173.214844 186.277344 L 173.179688 186.269531 C 173.179688 186.25 173.183594 186.234375 173.183594 186.214844 Z M 173.183594 186.214844 " fill-opacity="1" fill-rule="nonzero"/><path fill="#9c8d87" d="M 173.03125 186.085938 C 172.6875 185.035156 172.371094 183.980469 172.210938 182.886719 C 172.195312 182.765625 172.230469 182.640625 172.25 182.414062 C 172.410156 182.851562 172.558594 183.183594 172.660156 183.53125 C 172.855469 184.226562 173.039062 184.925781 173.199219 185.632812 C 173.242188 185.816406 173.199219 186.019531 173.191406 186.214844 C 173.121094 186.175781 173.046875 186.140625 173.03125 186.085938 Z M 173.03125 186.085938 " fill-opacity="1" fill-rule="nonzero"/><path fill="#9c8d87" d="M 156.480469 177.152344 C 155.9375 176.417969 155.894531 176.128906 156.132812 174.871094 C 156.300781 175.703125 156.574219 176.398438 156.480469 177.152344 Z M 156.480469 177.152344 " fill-opacity="1" fill-rule="nonzero"/><path fill="#9c8d87" d="M 167.027344 189.871094 C 167.292969 190.023438 167.589844 190.1875 167.878906 190.367188 C 167.929688 190.398438 167.945312 190.488281 167.980469 190.554688 C 167.410156 190.480469 167.398438 190.46875 166.980469 190.15625 C 166.882812 190.082031 166.804688 189.980469 167.027344 189.871094 Z M 167.027344 189.871094 " fill-opacity="1" fill-rule="nonzero"/><path fill="#9c8d87" d="M 148.203125 170.113281 C 148.253906 170.273438 148.359375 170.484375 148.101562 170.621094 C 147.875 170.195312 147.65625 169.789062 147.855469 169.269531 C 147.984375 169.574219 148.113281 169.839844 148.203125 170.113281 Z M 148.203125 170.113281 " fill-opacity="1" fill-rule="nonzero"/><path fill="#9c8d87" d="M 185.199219 149.742188 C 185.15625 149.710938 185.117188 149.675781 185.082031 149.640625 C 185.0625 149.605469 185.03125 149.554688 185.042969 149.527344 C 185.585938 148.417969 186.125 147.308594 186.671875 146.199219 C 186.820312 146.558594 186.734375 146.789062 186.613281 147.015625 C 186.136719 147.917969 185.804688 148.898438 185.199219 149.742188 Z M 185.199219 149.742188 " fill-opacity="1" fill-rule="nonzero"/><path fill="#9c8d87" d="M 180.003906 145.808594 C 179.976562 145.835938 179.910156 145.863281 179.890625 145.851562 C 179.835938 145.808594 179.746094 145.730469 179.757812 145.695312 C 179.960938 145.160156 179.914062 144.609375 179.90625 144.050781 C 179.902344 143.585938 179.953125 143.125 179.980469 142.65625 C 180.144531 143.664062 180.167969 144.675781 180.054688 145.691406 C 180.050781 145.734375 180.03125 145.773438 180.003906 145.808594 Z M 180.003906 145.808594 " fill-opacity="1" fill-rule="nonzero"/><path fill="#9c8d87" d="M 187.144531 145.257812 C 187.277344 144.589844 187.335938 143.890625 187.847656 143.359375 C 187.871094 144.082031 187.476562 144.660156 187.144531 145.257812 Z M 187.144531 145.257812 " fill-opacity="1" fill-rule="nonzero"/><path fill="#9c8d87" d="M 187.847656 143.363281 C 187.847656 143.339844 187.847656 143.316406 187.847656 143.292969 L 187.882812 143.25 C 187.882812 143.277344 187.882812 143.300781 187.882812 143.328125 Z M 187.847656 143.363281 " fill-opacity="1" fill-rule="nonzero"/><path fill="#9c8d87" d="M 180.226562 141.292969 L 180.226562 139.851562 C 180.324219 140.050781 180.367188 140.257812 180.355469 140.476562 C 180.355469 140.765625 180.34375 141.058594 180.335938 141.347656 Z M 180.226562 141.292969 " fill-opacity="1" fill-rule="nonzero"/><path fill="#9c8d87" d="M 188.308594 142.066406 C 188.257812 142.769531 188.261719 142.796875 187.878906 143.25 C 187.859375 142.796875 188.003906 142.402344 188.308594 142.066406 Z M 188.308594 142.066406 " fill-opacity="1" fill-rule="nonzero"/><path fill="#9c8d87" d="M 186.378906 177.613281 C 187.277344 175.804688 188.046875 173.941406 188.679688 172.023438 C 189.078125 170.84375 189.410156 169.644531 189.769531 168.457031 C 190.28125 166.777344 190.710938 165.082031 191.183594 163.347656 C 191.199219 163.511719 191.199219 163.679688 191.179688 163.84375 C 190.964844 164.976562 190.796875 166.125 190.496094 167.242188 C 189.996094 169.101562 189.609375 170.996094 188.882812 172.796875 C 188.316406 174.1875 187.863281 175.621094 187.199219 176.972656 C 186.722656 177.933594 186.277344 178.917969 185.726562 179.835938 C 185.015625 181.058594 184.234375 182.230469 183.375 183.351562 C 183.101562 183.023438 183.359375 182.828125 183.484375 182.632812 C 184.542969 181.011719 185.507812 179.339844 186.378906 177.613281 Z M 186.378906 177.613281 " fill-opacity="1" fill-rule="nonzero"/><path fill="#9c8d87" d="M 181.261719 182.007812 C 181.324219 181.875 181.445312 181.769531 181.605469 181.570312 C 181.28125 183.023438 180.621094 184.433594 179.976562 185.109375 C 179.953125 185.078125 179.898438 185.03125 179.90625 185.007812 C 180.351562 184.003906 180.800781 183.003906 181.261719 182.007812 Z M 181.261719 182.007812 " fill-opacity="1" fill-rule="nonzero"/><path fill="#9c8d87" d="M 188.917969 175.332031 C 188.96875 174.558594 189.316406 173.882812 189.523438 173.097656 C 189.59375 173.246094 189.65625 173.320312 189.65625 173.394531 C 189.667969 173.605469 189.652344 173.816406 189.609375 174.023438 C 189.425781 174.714844 189.242188 175.40625 189.011719 176.082031 C 188.941406 176.28125 188.941406 176.585938 188.640625 176.648438 C 188.566406 176.171875 188.886719 175.773438 188.917969 175.332031 Z M 188.917969 175.332031 " fill-opacity="1" fill-rule="nonzero"/><path fill="#9c8d87" d="M 188.640625 176.644531 C 188.640625 176.65625 188.640625 176.667969 188.648438 176.683594 L 188.613281 176.707031 C 188.613281 176.6875 188.613281 176.667969 188.613281 176.652344 C 188.625 176.648438 188.632812 176.648438 188.640625 176.644531 Z M 188.640625 176.644531 " fill-opacity="1" fill-rule="nonzero"/><path fill="#9c8d87" d="M 188.359375 176.898438 C 188.402344 176.816406 188.519531 176.765625 188.613281 176.707031 C 188.613281 176.859375 188.644531 177.023438 188.589844 177.152344 C 188.246094 177.921875 187.875 178.683594 187.519531 179.441406 C 187.328125 179.335938 187.316406 179.199219 187.359375 179.089844 C 187.683594 178.355469 188.015625 177.625 188.359375 176.898438 Z M 188.359375 176.898438 " fill-opacity="1" fill-rule="nonzero"/><path fill="#9c8d87" d="M 186.761719 180.394531 C 186.617188 181.035156 186.613281 181.050781 186.089844 181.539062 C 186.292969 180.792969 186.308594 180.78125 186.761719 180.394531 Z M 186.761719 180.394531 " fill-opacity="1" fill-rule="nonzero"/><path fill="#9c8d87" d="M 186.089844 181.535156 C 186.085938 181.558594 186.082031 181.574219 186.074219 181.597656 L 186.046875 181.605469 C 186.046875 181.597656 186.046875 181.585938 186.046875 181.574219 Z M 186.089844 181.535156 " fill-opacity="1" fill-rule="nonzero"/><path fill="#9c8d87" d="M 185.308594 182.601562 C 185.308594 182.613281 185.308594 182.625 185.308594 182.636719 L 185.277344 182.652344 C 185.277344 182.636719 185.277344 182.628906 185.277344 182.613281 Z M 185.308594 182.601562 " fill-opacity="1" fill-rule="nonzero"/><path fill="#9c8d87" d="M 186.046875 181.609375 C 186.03125 182.113281 185.726562 182.402344 185.308594 182.601562 C 185.28125 182.066406 185.582031 181.777344 186.046875 181.609375 Z M 186.046875 181.609375 " fill-opacity="1" fill-rule="nonzero"/><path fill="#9c8d87" d="M 152.144531 142.523438 C 152.039062 142.066406 151.929688 141.613281 151.824219 141.160156 C 151.667969 140.457031 151.503906 139.753906 151.359375 139.050781 C 151.320312 138.855469 151.257812 138.636719 151.476562 138.457031 C 151.761719 139.574219 152.050781 140.679688 152.324219 141.789062 C 152.417969 142.113281 152.429688 142.441406 152.363281 142.773438 C 152.238281 142.738281 152.164062 142.652344 152.144531 142.523438 Z M 152.144531 142.523438 " fill-opacity="1" fill-rule="nonzero"/><path fill="#9c8d87" d="M 152.363281 142.773438 L 152.382812 142.78125 C 152.386719 142.789062 152.386719 142.800781 152.382812 142.808594 C 152.375 142.808594 152.367188 142.804688 152.359375 142.804688 C 152.359375 142.792969 152.363281 142.785156 152.363281 142.773438 Z M 152.363281 142.773438 " fill-opacity="1" fill-rule="nonzero"/><path fill="#9c8d87" d="M 154.933594 145.363281 L 154.953125 145.363281 L 154.953125 145.382812 L 154.933594 145.382812 Z M 154.933594 145.363281 " fill-opacity="1" fill-rule="nonzero"/><path fill="#9c8d87" d="M 154.222656 142.96875 C 154.222656 142.933594 154.265625 142.898438 154.363281 142.757812 C 154.515625 143.695312 154.953125 144.46875 154.933594 145.363281 C 154.894531 145.363281 154.847656 145.363281 154.828125 145.339844 C 154.484375 144.726562 154.203125 143.636719 154.222656 142.96875 Z M 154.222656 142.96875 " fill-opacity="1" fill-rule="nonzero"/><path fill="#9c8d87" d="M 195.605469 154.414062 L 195.589844 154.4375 L 195.566406 154.4375 C 195.566406 154.433594 195.566406 154.425781 195.566406 154.421875 Z M 195.605469 154.414062 " fill-opacity="1" fill-rule="nonzero"/><path fill="#9c8d87" d="M 197.15625 152.652344 C 197.171875 152.640625 197.285156 152.722656 197.398438 152.78125 C 197.007812 153.398438 196.519531 153.921875 195.933594 154.355469 C 195.855469 154.417969 195.722656 154.402344 195.605469 154.414062 C 196.015625 153.734375 196.617188 153.21875 197.15625 152.652344 Z M 197.15625 152.652344 " fill-opacity="1" fill-rule="nonzero"/><path fill="#9c8d87" d="M 201.832031 154.8125 C 201.375 155.027344 201.21875 155.472656 200.75 155.449219 C 201.230469 154.796875 201.238281 154.796875 201.832031 154.8125 Z M 201.832031 154.8125 " fill-opacity="1" fill-rule="nonzero"/><path fill="#9c8d87" d="M 200.75 155.449219 L 200.734375 155.476562 L 200.703125 155.46875 L 200.707031 155.449219 Z M 200.75 155.449219 " fill-opacity="1" fill-rule="nonzero"/><g fill="#9c8d87" fill-opacity="1"><g transform="translate(152.460361, 246.664949)"><g><path d="M 21.476562 4.242188 C 18.378906 4.1875 14.136719 6.578125 10.414062 8.699219 C 7.3125 10.441406 3.777344 12.453125 2.773438 11.691406 C 2.5 11.5 2.148438 10.847656 2.636719 8.617188 C 3.75 3.699219 6.035156 -5.03125 8.046875 -12.125 C 10.496094 -20.71875 11.773438 -24.25 12.398438 -25.691406 C 12.398438 -25.476562 12.371094 -25.175781 12.34375 -24.820312 C 12.316406 -24.523438 12.535156 -24.277344 12.804688 -24.25 C 13.105469 -24.222656 13.347656 -24.441406 13.375 -24.742188 C 13.539062 -26.671875 13.511719 -27.566406 12.804688 -27.675781 C 12.179688 -27.785156 11.472656 -27.894531 7.285156 -13.1875 C 5.191406 -5.871094 2.800781 3.207031 1.632812 8.375 C 1.113281 10.574219 1.277344 11.90625 2.148438 12.535156 C 2.472656 12.777344 2.882812 12.886719 3.371094 12.886719 C 5.109375 12.886719 7.777344 11.390625 10.929688 9.597656 C 14.546875 7.558594 18.652344 5.21875 21.449219 5.273438 C 21.722656 5.300781 21.96875 5.058594 21.96875 4.785156 C 21.996094 4.484375 21.75 4.242188 21.476562 4.242188 Z M 21.476562 4.242188 "/></g></g></g><g fill="#9c8d87" fill-opacity="1"><g transform="translate(170.893542, 246.664949)"><g><path d="M 11.363281 -6.035156 C 11.121094 -6.144531 10.792969 -6.035156 10.683594 -5.789062 C 8.617188 -1.578125 7.070312 -0.246094 6.335938 -0.378906 C 6.035156 -0.433594 5.058594 -1.007812 4.8125 -5.765625 C 4.8125 -5.980469 4.648438 -6.171875 4.457031 -6.226562 C 4.242188 -6.28125 3.996094 -6.226562 3.886719 -6.035156 C 3.726562 -5.84375 3.5625 -5.628906 3.398438 -5.382812 C 2.71875 -4.457031 1.820312 -3.207031 0.734375 -2.039062 C 0.570312 -1.847656 0.433594 -1.738281 0.351562 -1.6875 C 0.164062 -2.636719 1.167969 -6.28125 2.773438 -7.421875 C 3.234375 -7.75 3.859375 -7.992188 4.703125 -7.015625 C 4.894531 -6.796875 5.21875 -6.769531 5.4375 -6.960938 C 5.65625 -7.125 5.683594 -7.476562 5.519531 -7.695312 C 4.484375 -8.890625 3.507812 -8.863281 2.855469 -8.644531 C 0.761719 -7.910156 -0.652344 -3.886719 -0.707031 -2.039062 C -0.734375 -1.277344 -0.515625 -0.789062 -0.0820312 -0.625 C 0.597656 -0.351562 1.277344 -1.085938 1.496094 -1.332031 C 2.417969 -2.339844 3.261719 -3.425781 3.859375 -4.269531 C 4.160156 -1.167969 4.894531 0.378906 6.117188 0.652344 C 6.226562 0.652344 6.335938 0.679688 6.445312 0.679688 C 8.292969 0.679688 10.277344 -2.554688 11.609375 -5.328125 C 11.746094 -5.601562 11.636719 -5.898438 11.363281 -6.035156 Z M 11.363281 -6.035156 "/></g></g></g><g fill="#9c8d87" fill-opacity="1"><g transform="translate(181.007326, 246.664949)"><g><path d="M 12.097656 -6.226562 C 11.882812 -6.417969 11.554688 -6.390625 11.363281 -6.171875 C 9.214844 -3.699219 5.84375 0.246094 5.300781 0.953125 C 5.136719 1.140625 4.976562 1.359375 4.8125 1.578125 C 4.59375 1.03125 4.324219 0.515625 3.96875 -0.0273438 C 2.664062 -2.039062 1.496094 -3.941406 1.550781 -5.273438 C 1.605469 -6.335938 2.148438 -7.257812 3.046875 -7.804688 C 3.777344 -8.238281 4.59375 -8.320312 5.21875 -8.019531 C 5.464844 -7.910156 5.789062 -8.019531 5.898438 -8.292969 C 6.035156 -8.535156 5.925781 -8.863281 5.65625 -8.972656 C 4.730469 -9.40625 3.535156 -9.296875 2.5 -8.699219 C 1.304688 -7.964844 0.597656 -6.742188 0.515625 -5.328125 C 0.433594 -3.671875 1.632812 -1.6875 3.097656 0.542969 C 3.5625 1.25 3.859375 1.929688 4.050781 2.582031 C 1.929688 5.464844 -0.351562 9.164062 0.816406 10.304688 C 1.007812 10.496094 1.25 10.574219 1.496094 10.574219 C 1.929688 10.574219 2.417969 10.359375 2.9375 9.949219 C 4.40625 8.726562 5.925781 5.953125 5.191406 2.800781 C 5.492188 2.417969 5.789062 2.011719 6.117188 1.605469 C 6.660156 0.925781 10.03125 -3.019531 12.152344 -5.492188 C 12.34375 -5.710938 12.316406 -6.035156 12.097656 -6.226562 Z M 3.261719 7.992188 C 2.527344 9.082031 1.792969 9.515625 1.550781 9.542969 C 1.441406 9.164062 1.792969 7.585938 4.324219 3.996094 C 4.429688 5.953125 3.617188 7.449219 3.261719 7.992188 Z M 3.261719 7.992188 "/></g></g></g><g fill="#9c8d87" fill-opacity="1"><g transform="translate(191.963922, 246.664949)"><g><path d="M 12.859375 -6.199219 C 12.613281 -6.363281 12.289062 -6.28125 12.152344 -6.035156 C 8.292969 0.191406 6.933594 0.0546875 6.796875 0.0273438 C 6.523438 -0.0546875 6.226562 -0.597656 6.144531 -1.929688 C 6.117188 -2.527344 5.980469 -4.324219 4.785156 -4.484375 C 3.398438 -4.675781 1.738281 -2.257812 0.246094 0.871094 C 1.167969 -3.261719 2.5 -8.945312 3.480469 -12.96875 C 7.125 -19.519531 8.972656 -24.441406 8.210938 -25.5 C 8.046875 -25.746094 7.777344 -25.828125 7.503906 -25.773438 C 6.335938 -25.554688 4.511719 -21.585938 3.289062 -16.558594 C 3.234375 -16.367188 -1.632812 3.507812 -1.792969 5.953125 C -1.792969 6.226562 -1.632812 6.445312 -1.359375 6.496094 C -1.332031 6.496094 -1.304688 6.496094 -1.277344 6.496094 C -1.058594 6.496094 -0.84375 6.363281 -0.761719 6.171875 C 1.605469 -0.625 3.914062 -3.453125 4.59375 -3.453125 C 4.621094 -3.453125 4.621094 -3.453125 4.621094 -3.453125 C 4.730469 -3.453125 5.03125 -3.125 5.109375 -1.875 C 5.136719 -1.222656 5.273438 0.707031 6.523438 1.03125 C 7.070312 1.167969 8.671875 1.578125 13.023438 -5.492188 C 13.1875 -5.738281 13.105469 -6.0625 12.859375 -6.199219 Z M 7.3125 -24.277344 C 7.097656 -23.191406 6.335938 -20.851562 4.511719 -17.183594 C 5.546875 -21.097656 6.660156 -23.355469 7.3125 -24.277344 Z M 7.3125 -24.277344 "/></g></g></g><g fill="#9c8d87" fill-opacity="1"><g transform="translate(203.681767, 246.664949)"><g><path d="M 9.1875 -6.0625 C 8.945312 -6.226562 8.617188 -6.171875 8.457031 -5.925781 C 6.417969 -3.070312 4.757812 -1.277344 3.125 -0.109375 C 2.3125 0.460938 1.523438 0.570312 1.007812 0.191406 C 0.679688 -0.0546875 -0.328125 -1.140625 0.84375 -4.949219 C 3.480469 -7.125 4.921875 -9.1875 4.539062 -10.277344 C 4.40625 -10.601562 4.078125 -10.820312 3.726562 -10.820312 C 2.636719 -10.792969 0.980469 -8.917969 -0.109375 -5.410156 C -1.441406 -1.085938 -0.351562 0.488281 0.40625 1.03125 C 0.789062 1.332031 1.222656 1.46875 1.710938 1.46875 C 2.339844 1.46875 3.046875 1.222656 3.726562 0.734375 C 5.464844 -0.515625 7.175781 -2.367188 9.296875 -5.328125 C 9.460938 -5.574219 9.40625 -5.898438 9.1875 -6.0625 Z M 3.507812 -9.679688 C 3.398438 -9.242188 2.9375 -8.375 1.660156 -7.070312 C 2.367188 -8.644531 3.125 -9.40625 3.507812 -9.679688 Z M 3.507812 -9.679688 "/></g></g></g><g fill="#9c8d87" fill-opacity="1"><g transform="translate(211.593353, 246.664949)"><g><path d="M 12.097656 -6.226562 C 11.882812 -6.417969 11.554688 -6.390625 11.363281 -6.171875 C 9.214844 -3.699219 5.84375 0.246094 5.300781 0.953125 C 5.136719 1.140625 4.976562 1.359375 4.8125 1.578125 C 4.59375 1.03125 4.324219 0.515625 3.96875 -0.0273438 C 2.664062 -2.039062 1.496094 -3.941406 1.550781 -5.273438 C 1.605469 -6.335938 2.148438 -7.257812 3.046875 -7.804688 C 3.777344 -8.238281 4.59375 -8.320312 5.21875 -8.019531 C 5.464844 -7.910156 5.789062 -8.019531 5.898438 -8.292969 C 6.035156 -8.535156 5.925781 -8.863281 5.65625 -8.972656 C 4.730469 -9.40625 3.535156 -9.296875 2.5 -8.699219 C 1.304688 -7.964844 0.597656 -6.742188 0.515625 -5.328125 C 0.433594 -3.671875 1.632812 -1.6875 3.097656 0.542969 C 3.5625 1.25 3.859375 1.929688 4.050781 2.582031 C 1.929688 5.464844 -0.351562 9.164062 0.816406 10.304688 C 1.007812 10.496094 1.25 10.574219 1.496094 10.574219 C 1.929688 10.574219 2.417969 10.359375 2.9375 9.949219 C 4.40625 8.726562 5.925781 5.953125 5.191406 2.800781 C 5.492188 2.417969 5.789062 2.011719 6.117188 1.605469 C 6.660156 0.925781 10.03125 -3.019531 12.152344 -5.492188 C 12.34375 -5.710938 12.316406 -6.035156 12.097656 -6.226562 Z M 3.261719 7.992188 C 2.527344 9.082031 1.792969 9.515625 1.550781 9.542969 C 1.441406 9.164062 1.792969 7.585938 4.324219 3.996094 C 4.429688 5.953125 3.617188 7.449219 3.261719 7.992188 Z M 3.261719 7.992188 "/></g></g></g><g fill="#9c8d87" fill-opacity="1"><g transform="translate(157.239762, 274.13526)"><g><path d="M 4.65625 -4.203125 C 4.65625 -4.671875 4.425781 -5.015625 3.96875 -5.234375 C 3.675781 -5.359375 3.335938 -5.421875 2.953125 -5.421875 L 0.328125 -5.421875 L 0.328125 -5.1875 L 1.046875 -5.1875 L 1.046875 -0.234375 L 0.328125 -0.234375 L 0.328125 0 L 3 0 C 3.789062 0 4.363281 -0.242188 4.71875 -0.734375 C 4.90625 -0.992188 5 -1.273438 5 -1.578125 C 5 -2.097656 4.757812 -2.484375 4.28125 -2.734375 C 4.09375 -2.835938 3.878906 -2.910156 3.640625 -2.953125 C 4.097656 -3.117188 4.40625 -3.394531 4.5625 -3.78125 C 4.625 -3.925781 4.65625 -4.066406 4.65625 -4.203125 Z M 2.671875 -5.1875 C 3.296875 -5.1875 3.644531 -4.90625 3.71875 -4.34375 C 3.726562 -4.269531 3.734375 -4.195312 3.734375 -4.125 C 3.734375 -3.707031 3.570312 -3.40625 3.25 -3.21875 C 3.082031 -3.113281 2.890625 -3.0625 2.671875 -3.0625 L 1.921875 -3.0625 L 1.921875 -5.1875 Z M 2.859375 -2.828125 C 3.398438 -2.828125 3.757812 -2.59375 3.9375 -2.125 C 4 -1.957031 4.03125 -1.773438 4.03125 -1.578125 C 4.03125 -1.085938 3.875 -0.71875 3.5625 -0.46875 C 3.363281 -0.3125 3.132812 -0.234375 2.875 -0.234375 L 1.921875 -0.234375 L 1.921875 -2.828125 Z M 2.859375 -2.828125 "/></g></g></g><g fill="#9c8d87" fill-opacity="1"><g transform="translate(165.665825, 274.13526)"><g><path d="M 3.734375 0 C 3.691406 -0.144531 3.613281 -0.222656 3.5 -0.234375 L 3 -0.234375 L 3 -2.265625 L 4.34375 -4.9375 C 4.476562 -5.09375 4.640625 -5.175781 4.828125 -5.1875 C 4.953125 -5.1875 5.023438 -5.238281 5.046875 -5.34375 C 5.054688 -5.375 5.0625 -5.398438 5.0625 -5.421875 L 3.453125 -5.421875 L 3.453125 -5.1875 L 4.171875 -5.1875 L 2.828125 -2.59375 L 1.40625 -5.1875 L 2.09375 -5.1875 L 2.09375 -5.421875 L -0.03125 -5.421875 L -0.03125 -5.1875 L 0.4375 -5.1875 L 2.140625 -2.1875 L 2.140625 -0.234375 L 1.40625 -0.234375 L 1.40625 0 Z M 3.734375 0 "/></g></g></g><g fill="#9c8d87" fill-opacity="1"><g transform="translate(173.775148, 274.13526)"><g/></g></g><g fill="#9c8d87" fill-opacity="1"><g transform="translate(178.590369, 274.13526)"><g><path d="M 2.640625 0 C 2.640625 -0.132812 2.59375 -0.207031 2.5 -0.21875 C 2.46875 -0.226562 2.4375 -0.234375 2.40625 -0.234375 L 1.921875 -0.234375 L 1.921875 -2.671875 L 4.609375 -2.671875 L 4.609375 -0.234375 L 3.875 -0.234375 L 3.875 0 L 6.203125 0 C 6.203125 -0.132812 6.148438 -0.207031 6.046875 -0.21875 C 6.023438 -0.226562 6 -0.234375 5.96875 -0.234375 L 5.46875 -0.234375 L 5.46875 -5.1875 L 6.203125 -5.1875 L 6.203125 -5.421875 L 3.875 -5.421875 L 3.875 -5.1875 L 4.609375 -5.1875 L 4.609375 -2.9375 L 1.921875 -2.9375 L 1.921875 -5.1875 L 2.640625 -5.1875 L 2.640625 -5.421875 L 0.328125 -5.421875 L 0.328125 -5.1875 L 1.046875 -5.1875 L 1.046875 -0.234375 L 0.328125 -0.234375 L 0.328125 0 Z M 2.640625 0 "/></g></g></g><g fill="#9c8d87" fill-opacity="1"><g transform="translate(188.165748, 274.13526)"><g><path d="M 3.21875 -5.515625 C 2.476562 -5.515625 1.84375 -5.273438 1.3125 -4.796875 C 0.75 -4.265625 0.46875 -3.582031 0.46875 -2.75 C 0.46875 -1.78125 0.800781 -1.03125 1.46875 -0.5 C 1.96875 -0.101562 2.539062 0.09375 3.1875 0.09375 C 3.914062 0.09375 4.539062 -0.148438 5.0625 -0.640625 C 5.632812 -1.179688 5.921875 -1.875 5.921875 -2.71875 C 5.921875 -3.707031 5.570312 -4.460938 4.875 -4.984375 C 4.394531 -5.335938 3.84375 -5.515625 3.21875 -5.515625 Z M 3.21875 -0.15625 C 2.125 -0.15625 1.539062 -0.898438 1.46875 -2.390625 C 1.46875 -2.492188 1.46875 -2.601562 1.46875 -2.71875 C 1.46875 -4.28125 1.953125 -5.125 2.921875 -5.25 C 3.015625 -5.257812 3.101562 -5.265625 3.1875 -5.265625 C 4.320312 -5.253906 4.894531 -4.414062 4.90625 -2.75 C 4.90625 -1.269531 4.476562 -0.421875 3.625 -0.203125 C 3.488281 -0.171875 3.351562 -0.15625 3.21875 -0.15625 Z M 3.21875 -0.15625 "/></g></g></g><g fill="#9c8d87" fill-opacity="1"><g transform="translate(197.59633, 274.13526)"><g><path d="M 4.375 0 L 4.421875 -1.84375 L 4.21875 -1.84375 L 4.046875 -1.1875 C 3.910156 -0.65625 3.675781 -0.347656 3.34375 -0.265625 C 3.269531 -0.242188 3.191406 -0.234375 3.109375 -0.234375 L 1.921875 -0.234375 L 1.921875 -5.1875 L 2.6875 -5.1875 L 2.6875 -5.421875 L 0.328125 -5.421875 L 0.328125 -5.1875 L 1.046875 -5.1875 L 1.046875 -0.234375 L 0.328125 -0.234375 L 0.328125 0 Z M 4.375 0 "/></g></g></g><g fill="#9c8d87" fill-opacity="1"><g transform="translate(205.144568, 274.13526)"><g><path d="M 4.375 0 L 4.421875 -1.84375 L 4.21875 -1.84375 L 4.046875 -1.1875 C 3.910156 -0.65625 3.675781 -0.347656 3.34375 -0.265625 C 3.269531 -0.242188 3.191406 -0.234375 3.109375 -0.234375 L 1.921875 -0.234375 L 1.921875 -5.1875 L 2.6875 -5.1875 L 2.6875 -5.421875 L 0.328125 -5.421875 L 0.328125 -5.1875 L 1.046875 -5.1875 L 1.046875 -0.234375 L 0.328125 -0.234375 L 0.328125 0 Z M 4.375 0 "/></g></g></g><g fill="#9c8d87" fill-opacity="1"><g transform="translate(212.692805, 274.13526)"><g><path d="M 3.734375 0 C 3.691406 -0.144531 3.613281 -0.222656 3.5 -0.234375 L 3 -0.234375 L 3 -2.265625 L 4.34375 -4.9375 C 4.476562 -5.09375 4.640625 -5.175781 4.828125 -5.1875 C 4.953125 -5.1875 5.023438 -5.238281 5.046875 -5.34375 C 5.054688 -5.375 5.0625 -5.398438 5.0625 -5.421875 L 3.453125 -5.421875 L 3.453125 -5.1875 L 4.171875 -5.1875 L 2.828125 -2.59375 L 1.40625 -5.1875 L 2.09375 -5.1875 L 2.09375 -5.421875 L -0.03125 -5.421875 L -0.03125 -5.1875 L 0.4375 -5.1875 L 2.140625 -2.1875 L 2.140625 -0.234375 L 1.40625 -0.234375 L 1.40625 0 Z M 3.734375 0 "/></g></g></g></svg>