<svg xmlns="http://www.w3.org/2000/svg" xmlns:xlink="http://www.w3.org/1999/xlink" width="1350" zoomAndPan="magnify" viewBox="0 0 1012.5 487.499991" height="650" preserveAspectRatio="xMidYMid meet" version="1.0"><defs><g/><clipPath id="id1"><path d="M 0.269531 0 L 1011.730469 0 L 1011.730469 487 L 0.269531 487 Z M 0.269531 0 " clip-rule="nonzero"/></clipPath><clipPath id="id2"><path d="M 0.269531 0 L 228.570312 0 L 228.570312 187 L 0.269531 187 Z M 0.269531 0 " clip-rule="nonzero"/></clipPath><clipPath id="id3"><path d="M 0.269531 0 L 225 0 L 225 212.136719 L 0.269531 212.136719 Z M 0.269531 0 " clip-rule="nonzero"/></clipPath><clipPath id="id4"><path d="M 186.859375 48.722656 L 825.519531 48.722656 L 825.519531 438.515625 L 186.859375 438.515625 Z M 186.859375 48.722656 " clip-rule="nonzero"/></clipPath><clipPath id="id5"><path d="M 350 167.277344 L 643.632812 167.277344 L 643.632812 438.636719 L 350 438.636719 Z M 350 167.277344 " clip-rule="nonzero"/></clipPath><clipPath id="id6"><path d="M 785.582031 12.09375 L 865.789062 12.09375 L 865.789062 92.300781 L 785.582031 92.300781 Z M 785.582031 12.09375 " clip-rule="nonzero"/></clipPath><clipPath id="id7"><path d="M 176.957031 355.378906 L 280.652344 355.378906 L 280.652344 458.492188 L 176.957031 458.492188 Z M 176.957031 355.378906 " clip-rule="nonzero"/></clipPath><clipPath id="id8"><path d="M 785.582031 300 L 1011.730469 300 L 1011.730469 487 L 785.582031 487 Z M 785.582031 300 " clip-rule="nonzero"/></clipPath><clipPath id="id9"><path d="M 790 275.195312 L 1011.730469 275.195312 L 1011.730469 487 L 790 487 Z M 790 275.195312 " clip-rule="nonzero"/></clipPath></defs><g clip-path="url(#id1)"><path fill="#ffffff" d="M 0.269531 0 L 1012.230469 0 L 1012.230469 493.988281 L 0.269531 493.988281 Z M 0.269531 0 " fill-opacity="1" fill-rule="nonzero"/><path fill="#f1e2d2" d="M 0.269531 0 L 1012.230469 0 L 1012.230469 487.242188 L 0.269531 487.242188 Z M 0.269531 0 " fill-opacity="1" fill-rule="nonzero"/><path fill="#ffffff" d="M 0.269531 0 L 1012.230469 0 L 1012.230469 487.242188 L 0.269531 487.242188 Z M 0.269531 0 " fill-opacity="1" fill-rule="nonzero"/><path fill="#f1e2d2" d="M 0.269531 0 L 1012.230469 0 L 1012.230469 487.242188 L 0.269531 487.242188 Z M 0.269531 0 " fill-opacity="1" fill-rule="nonzero"/></g><g clip-path="url(#id2)"><path fill="#ceb9a2" d="M -4.0625 0 L -4.0625 185.300781 C -1.207031 185.714844 1.679688 185.925781 4.523438 186.066406 C 26.753906 187.148438 49.65625 185.125 69.820312 175.683594 C 89.972656 166.230469 107.074219 148.425781 111.582031 126.601562 C 115.117188 109.527344 111.253906 90.183594 120.988281 75.71875 C 131.699219 59.796875 153.472656 57.269531 171.558594 50.871094 C 196.152344 42.15625 216.878906 23.34375 228.484375 0 Z M -4.0625 0 " fill-opacity="1" fill-rule="nonzero"/></g><g clip-path="url(#id3)"><path fill="#ffffff" d="M 10.84375 207.902344 C 5.910156 208.292969 0.917969 208.609375 -4.0625 208.585938 L -4.0625 212.089844 C -2.359375 212.089844 -0.679688 212.042969 1.023438 211.984375 C 26.929688 211.042969 53.871094 206.210938 75.9375 191.851562 C 94.882812 179.515625 110.21875 159.890625 113.414062 137.066406 C 115.175781 124.425781 113.203125 111.691406 114.070312 99 C 114.507812 92.792969 115.738281 86.523438 118.664062 80.972656 C 121.09375 76.363281 124.523438 72.4375 128.574219 69.179688 C 136.832031 62.5 147.121094 58.738281 156.9375 55 C 167.4375 50.988281 177.714844 46.777344 187.121094 40.511719 C 202.550781 30.222656 215.269531 16.191406 224.183594 0 L 220.179688 0 C 209.949219 17.863281 194.824219 32.890625 176.691406 42.664062 C 167.109375 47.824219 156.714844 51.09375 146.695312 55.246094 C 137.230469 59.160156 127.648438 63.898438 120.789062 71.742188 C 103.609375 91.382812 114.25 118.285156 109.070312 141.359375 C 104.042969 163.6875 87.332031 182.011719 67.578125 192.710938 C 55.996094 198.992188 43.3125 202.964844 30.40625 205.375 C 23.9375 206.585938 17.40625 207.398438 10.84375 207.902344 Z M 10.84375 207.902344 " fill-opacity="1" fill-rule="nonzero"/></g><g clip-path="url(#id4)"><path fill="#ceb9a2" d="M 188.980469 58.097656 C 188.980469 54.117188 192.207031 50.890625 196.1875 50.890625 L 221.917969 50.890625 L 221.917969 48.722656 L 196.230469 48.722656 C 191.058594 48.722656 186.859375 52.925781 186.859375 58.097656 L 186.859375 71.214844 L 188.980469 71.214844 L 188.980469 58.097656 M 192.339844 62.207031 C 192.339844 57.785156 195.921875 54.207031 200.339844 54.207031 L 221.917969 54.207031 L 221.917969 53.632812 L 200.339844 53.632812 C 195.613281 53.632812 191.765625 57.476562 191.765625 62.207031 L 191.765625 71.132812 L 192.339844 71.132812 L 192.339844 62.207031 M 186.859375 71.132812 L 188.980469 71.132812 L 188.980469 417.386719 L 186.859375 417.386719 L 186.859375 71.132812 M 191.8125 71.132812 L 192.386719 71.132812 L 192.386719 417.386719 L 191.8125 417.386719 L 191.8125 71.132812 M 196.230469 436.394531 C 192.253906 436.394531 189.027344 433.167969 189.027344 429.1875 L 189.027344 417.386719 L 186.859375 417.386719 L 186.859375 429.1875 C 186.859375 434.359375 191.058594 438.5625 196.230469 438.5625 L 222.171875 438.5625 L 222.171875 436.394531 L 196.230469 436.394531 M 200.339844 433.035156 C 195.921875 433.035156 192.339844 429.453125 192.339844 425.035156 L 192.339844 417.386719 L 191.765625 417.386719 L 191.765625 425.035156 C 191.765625 429.765625 195.613281 433.609375 200.339844 433.609375 L 221.917969 433.609375 L 221.917969 433.035156 L 200.339844 433.035156 M 221.917969 436.394531 L 762.1875 436.394531 L 762.1875 438.515625 L 221.917969 438.515625 L 221.917969 436.394531 M 221.917969 433.035156 L 762.1875 433.035156 L 762.1875 433.609375 L 221.917969 433.609375 L 221.917969 433.035156 M 823.398438 417.386719 L 823.398438 429.1875 C 823.398438 433.167969 820.171875 436.394531 816.195312 436.394531 L 762.1875 436.394531 L 762.1875 438.515625 L 816.195312 438.515625 C 821.367188 438.515625 825.566406 434.316406 825.566406 429.144531 L 825.566406 417.386719 L 823.398438 417.386719 M 820.039062 425.035156 C 820.039062 429.453125 816.460938 433.035156 812.039062 433.035156 L 762.1875 433.035156 L 762.1875 433.609375 L 812.039062 433.609375 C 816.769531 433.609375 820.613281 429.765625 820.613281 425.035156 L 820.613281 417.386719 L 820.039062 417.386719 L 820.039062 425.035156 M 823.398438 71.132812 L 825.519531 71.132812 L 825.519531 417.386719 L 823.398438 417.386719 L 823.398438 71.132812 M 820.039062 71.132812 L 820.613281 71.132812 L 820.613281 417.386719 L 820.039062 417.386719 L 820.039062 71.132812 M 816.195312 50.847656 C 820.171875 50.847656 823.398438 54.074219 823.398438 58.050781 L 823.398438 71.132812 L 825.519531 71.132812 L 825.519531 58.097656 C 825.519531 52.925781 821.324219 48.722656 816.152344 48.722656 L 761.933594 48.722656 L 761.933594 50.847656 L 816.195312 50.847656 M 812.039062 53.675781 L 762.1875 53.675781 L 762.1875 54.25 L 812.039062 54.25 C 816.460938 54.25 820.039062 57.832031 820.039062 62.25 L 820.039062 71.214844 L 820.613281 71.214844 L 820.613281 62.207031 C 820.613281 57.476562 816.769531 53.675781 812.039062 53.675781 M 221.917969 48.722656 L 762.1875 48.722656 L 762.1875 50.847656 L 221.917969 50.847656 L 221.917969 48.722656 M 221.917969 53.675781 L 762.1875 53.675781 L 762.1875 54.25 L 221.917969 54.25 L 221.917969 53.675781 " fill-opacity="1" fill-rule="nonzero"/></g><g clip-path="url(#id5)"><path fill="#000000" d="M 551.238281 182.359375 C 553.433594 182.359375 557.761719 175.960938 557.761719 172.726562 C 557.761719 175.960938 562.089844 182.359375 564.285156 182.359375 C 562.089844 182.359375 557.761719 188.757812 557.761719 191.992188 C 557.761719 188.757812 553.367188 182.359375 551.238281 182.359375 Z M 519.785156 240.707031 C 517.585938 240.707031 513.261719 234.308594 513.261719 231.074219 C 513.261719 234.308594 508.933594 240.707031 506.738281 240.707031 C 508.933594 240.707031 513.261719 247.109375 513.261719 250.34375 C 513.261719 247.109375 517.585938 240.707031 519.785156 240.707031 Z M 462.234375 162.679688 C 462.234375 159.445312 466.5625 153.046875 468.757812 153.046875 C 466.5625 153.046875 462.234375 146.648438 462.234375 143.414062 C 462.234375 146.648438 457.910156 153.046875 455.710938 153.046875 C 457.910156 153.117188 462.234375 159.515625 462.234375 162.679688 Z M 642.851562 242.980469 C 642.164062 242.292969 640.925781 242.292969 639.964844 242.773438 C 639.277344 243.117188 638.660156 243.667969 638.109375 244.285156 C 637.90625 244.148438 637.699219 244.011719 637.492188 243.941406 C 634.472656 242.773438 630.625 248.003906 628.976562 249.929688 C 626.160156 253.230469 623.894531 256.671875 621.492188 260.25 C 619.089844 263.757812 616.203125 266.855469 613.800781 270.296875 C 611.398438 273.738281 609.679688 277.519531 606.933594 280.753906 C 604.117188 284.058594 601.027344 286.878906 597.800781 289.839844 C 594.503906 292.933594 591.273438 296.101562 587.910156 299.128906 C 586.054688 300.777344 584.269531 302.429688 582.417969 304.082031 C 581.386719 305.042969 579.945312 306.695312 578.363281 306.351562 C 578.914062 303.667969 581.660156 301.191406 583.582031 299.332031 C 586.332031 296.71875 589.144531 294.242188 591.894531 291.695312 C 594.503906 289.355469 597.386719 287.15625 599.652344 284.472656 C 601.714844 281.992188 602.8125 278.691406 604.324219 275.800781 C 607.070312 270.503906 610.160156 265.273438 613.25 260.113281 C 615.65625 256.121094 619.226562 251.304688 619.84375 246.421875 C 621.011719 244.492188 622.042969 242.566406 622.523438 240.433594 C 622.726562 239.539062 622.796875 238.507812 622.109375 237.886719 C 621.492188 237.269531 620.324219 237.269531 619.433594 237.679688 C 618.539062 238.09375 617.921875 238.851562 617.371094 239.539062 C 617.304688 239.609375 617.234375 239.675781 617.234375 239.746094 C 616.410156 239.609375 615.722656 240.089844 614.96875 240.503906 C 612.5625 241.949219 610.777344 244.285156 608.925781 246.421875 C 604.804688 251.167969 601.027344 256.191406 596.90625 260.9375 C 588.734375 270.433594 580.355469 279.859375 571.015625 288.1875 C 566.277344 292.453125 560.921875 296.167969 555.839844 299.953125 C 551.101562 303.460938 546.773438 307.523438 542.105469 311.03125 C 540.730469 309.171875 546.15625 302.980469 547.1875 301.398438 C 549.453125 298.027344 551.789062 295.34375 555.082031 292.933594 C 558.175781 290.664062 561.128906 288.601562 563.460938 285.570312 C 565.386719 283.09375 567.515625 279.308594 566.691406 276.007812 C 566.550781 275.527344 566.414062 275.113281 566.207031 274.769531 C 567.445312 273.738281 568.613281 272.566406 569.644531 271.328125 C 570.398438 270.367188 571.085938 269.195312 570.742188 268.164062 C 570.398438 267.199219 569.023438 266.71875 567.789062 266.855469 C 566.550781 266.992188 565.386719 267.613281 564.21875 268.230469 C 562.292969 269.332031 560.371094 270.433594 558.585938 271.671875 C 556.730469 272.980469 555.152344 274.289062 554.121094 276.007812 C 551.789062 277.519531 549.660156 279.035156 548.492188 279.792969 C 544.988281 281.925781 541.554688 283.507812 539.015625 286.878906 C 536.816406 289.839844 534.757812 292.933594 532.351562 295.753906 C 529.675781 298.851562 526.859375 301.535156 524.59375 305.042969 C 522.257812 308.554688 521.5 312.476562 520.335938 316.46875 C 517.929688 324.792969 515.183594 332.914062 513.46875 341.375 C 511.886719 349.152344 510.582031 357.339844 510.238281 365.183594 C 509.828125 373.578125 510.855469 382.109375 511.886719 390.4375 C 512.847656 398.488281 513.261719 406.8125 513.125 414.933594 C 512.984375 423.601562 512.574219 432.339844 512.023438 441.011719 C 511.75 445.207031 511.339844 449.40625 511.0625 453.601562 C 510.789062 457.457031 509.414062 461.859375 510.101562 465.714844 C 510.582031 468.742188 511.269531 464.40625 511.40625 463.304688 C 511.613281 461.242188 511.820312 459.175781 512.023438 457.042969 C 512.4375 452.847656 512.644531 448.578125 512.917969 444.382812 C 513.535156 436.195312 514.152344 427.9375 514.152344 419.75 C 514.152344 411.285156 513.878906 402.890625 513.398438 394.425781 C 512.917969 386.515625 511.476562 378.601562 511.339844 370.6875 C 511.132812 362.363281 512.644531 353.96875 514.015625 345.78125 C 515.390625 337.453125 517.792969 329.472656 520.335938 321.351562 C 521.433594 317.84375 522.464844 314.335938 523.425781 310.824219 C 524.386719 307.382812 526.582031 304.5625 528.851562 301.878906 C 531.253906 298.988281 533.726562 296.238281 536.0625 293.277344 C 538.328125 290.457031 540.25 286.8125 543.273438 284.746094 C 546.429688 282.542969 549.863281 280.753906 553.160156 278.761719 C 553.230469 280.136719 554.328125 281.375 556.25 281.097656 C 557.417969 280.960938 558.449219 280.273438 559.410156 279.65625 C 561.402344 278.347656 563.324219 277.039062 565.179688 275.59375 C 566.277344 277.589844 564.835938 280.960938 563.941406 282.613281 C 562.089844 286.054688 559.339844 288.324219 556.183594 290.59375 C 553.023438 292.867188 550.207031 294.859375 547.941406 298.09375 C 545.539062 301.46875 542.859375 304.976562 541.074219 308.761719 C 540.660156 309.722656 539.5625 312.339844 541.074219 312.890625 C 541.898438 313.234375 544.300781 310.757812 545.125 310.136719 C 548.148438 307.796875 551.03125 305.183594 554.121094 302.84375 C 560.234375 298.09375 566.894531 293.964844 572.527344 288.601562 C 578.5 283.027344 584.203125 277.175781 589.695312 271.121094 C 595.191406 265.066406 600.476562 258.597656 605.695312 252.335938 C 608.101562 249.378906 610.367188 246.074219 613.113281 243.460938 C 613.730469 242.84375 614.898438 241.671875 615.929688 241.257812 C 615.449219 241.949219 614.96875 242.636719 614.554688 243.324219 C 613.386719 245.113281 612.703125 246.832031 612.90625 248.828125 C 613.046875 250.34375 614.691406 251.582031 616.410156 250.753906 C 616.890625 250.480469 617.304688 250.136719 617.644531 249.652344 C 616.820312 251.71875 615.65625 253.714844 614.625 255.433594 C 612.496094 259.011719 610.433594 262.589844 608.375 266.167969 C 606.316406 269.675781 604.117188 273.117188 602.332031 276.765625 C 600.546875 280.410156 599.105469 283.234375 596.082031 285.984375 C 590.519531 291.007812 584.132812 295.894531 579.324219 301.671875 C 578.433594 302.707031 576.578125 304.976562 576.714844 306.421875 C 576.851562 308.140625 578.433594 308.210938 579.667969 307.660156 C 582.898438 306.214844 586.054688 302.566406 588.664062 300.160156 C 591.617188 297.40625 594.570312 294.585938 597.523438 291.765625 C 600.203125 289.21875 603.292969 287.015625 605.765625 284.195312 C 607.140625 282.613281 608.71875 281.03125 609.953125 279.308594 C 611.121094 277.660156 611.738281 275.664062 612.90625 273.945312 C 615.105469 270.710938 617.507812 267.542969 619.914062 264.449219 C 624.582031 258.394531 628.152344 250.6875 634.472656 246.007812 C 635.570312 245.179688 636.394531 245.113281 637.011719 245.457031 C 635.980469 246.695312 635.019531 248.003906 634.128906 249.308594 C 632.753906 251.304688 631.863281 253.300781 631.929688 255.570312 C 632 257.292969 633.714844 258.738281 635.640625 257.703125 C 635.84375 257.636719 635.980469 257.5 636.1875 257.359375 C 635.433594 258.738281 634.609375 260.113281 633.785156 261.351562 C 631.585938 264.722656 629.113281 267.820312 626.710938 271.054688 C 624.582031 273.875 622.933594 277.382812 621.21875 280.480469 C 619.433594 283.578125 617.371094 286.742188 616.339844 290.183594 C 615.242188 293.761719 614.144531 296.996094 611.535156 299.882812 C 608.925781 302.84375 605.695312 305.183594 602.675781 307.660156 C 599.789062 310.136719 597.386719 313.234375 594.640625 315.917969 C 593.609375 316.949219 590.863281 318.667969 590.382812 319.976562 C 589.625 322.109375 592.167969 320.25 592.855469 319.632812 C 595.671875 316.949219 598.210938 314.058594 600.957031 311.304688 C 606.246094 306.007812 613.457031 302.015625 616.410156 294.792969 C 617.785156 291.421875 618.539062 288.117188 620.394531 284.882812 C 622.179688 281.855469 623.550781 277.933594 626.023438 275.457031 C 629.390625 290.457031 621.765625 304.425781 612.769531 315.917969 C 610.367188 319.011719 607.824219 321.902344 605.421875 325.066406 C 604.390625 326.445312 603.363281 327.820312 602.332031 329.195312 C 602.058594 329.609375 599.859375 332.085938 601.578125 331.949219 C 602.539062 331.878906 604.1875 329.128906 604.734375 328.441406 C 605.902344 326.925781 607 325.414062 608.101562 323.828125 C 609.886719 321.351562 611.945312 317.914062 614.417969 316.054688 C 615.515625 319.699219 616.273438 324.105469 614.761719 327.75 C 613.113281 331.742188 609.953125 335.320312 607.480469 338.828125 C 605.011719 342.269531 602.605469 345.710938 600.410156 349.359375 C 598.28125 353.003906 596.355469 357.132812 593.609375 360.4375 C 591.273438 363.257812 589.007812 365.734375 586.46875 368.28125 C 580.011719 374.746094 572.9375 380.597656 565.589844 386.03125 C 562.019531 388.648438 558.65625 391.191406 556.59375 395.253906 C 554.738281 398.96875 554.257812 403.371094 553.640625 407.433594 C 550.894531 425.183594 551.71875 443.007812 552.128906 460.894531 C 552.128906 461.652344 551.789062 466.195312 553.09375 465.851562 C 553.847656 465.644531 553.503906 462.273438 553.503906 461.515625 C 553.503906 456.835938 553.433594 452.15625 553.09375 447.546875 C 552.886719 443.488281 552.472656 439.359375 552.609375 435.300781 C 552.75 430.757812 553.230469 426.21875 553.433594 421.675781 C 553.640625 417.546875 554.054688 413.488281 554.671875 409.425781 C 555.289062 405.367188 555.632812 400.964844 557.210938 397.109375 C 560.304688 389.75 567.855469 386.582031 573.695312 381.699219 C 580.289062 376.125 586.949219 370.207031 592.648438 363.738281 C 598.210938 357.476562 601.507812 349.632812 606.316406 342.753906 C 610.847656 336.285156 617.304688 329.953125 617.027344 321.558594 C 617.027344 320.457031 616.960938 319.21875 616.683594 318.117188 C 616.480469 317.222656 615.929688 316.398438 615.859375 315.433594 C 615.65625 313.578125 617.304688 312.476562 618.195312 311.101562 C 620.597656 307.660156 622.453125 303.738281 624.101562 299.882812 C 625.820312 295.894531 627.328125 292.039062 627.808594 287.707031 C 628.289062 283.234375 627.605469 279.035156 627.261719 274.5625 C 627.054688 272.222656 628.359375 271.261719 629.734375 269.472656 C 631.105469 267.75 632.273438 265.894531 633.511719 264.105469 C 635.777344 260.800781 638.109375 257.359375 639.210938 253.4375 C 640.859375 251.03125 642.367188 248.554688 643.054688 245.800781 C 643.398438 244.90625 643.535156 243.667969 642.851562 242.980469 Z M 481.050781 414.039062 C 480.570312 405.367188 480.160156 396.699219 480.023438 387.960938 C 479.886719 379.839844 480.367188 371.515625 481.257812 363.464844 C 482.21875 355.136719 483.320312 346.605469 482.90625 338.210938 C 482.5625 330.296875 481.257812 322.109375 479.679688 314.335938 C 477.960938 305.871094 475.214844 297.683594 472.8125 289.425781 C 471.644531 285.433594 470.886719 281.511719 468.554688 277.933594 C 466.289062 274.492188 463.472656 271.742188 460.863281 268.644531 C 458.457031 265.824219 456.398438 262.726562 454.199219 259.769531 C 451.726562 256.328125 448.292969 254.816406 444.722656 252.613281 C 443.554688 251.855469 441.425781 250.34375 439.09375 248.828125 C 437.992188 247.109375 436.484375 245.730469 434.628906 244.492188 C 432.773438 243.253906 430.921875 242.085938 428.996094 240.984375 C 427.898438 240.363281 426.664062 239.746094 425.425781 239.609375 C 424.191406 239.46875 422.816406 239.882812 422.472656 240.914062 C 422.128906 241.949219 422.816406 243.117188 423.570312 244.082031 C 424.601562 245.320312 425.699219 246.488281 427.003906 247.519531 C 426.800781 247.863281 426.664062 248.277344 426.523438 248.757812 C 425.632812 251.992188 427.828125 255.847656 429.753906 258.324219 C 432.085938 261.421875 435.039062 263.484375 438.128906 265.753906 C 441.425781 268.164062 443.761719 270.847656 445.960938 274.21875 C 446.988281 275.800781 452.414062 281.992188 451.042969 283.851562 C 446.371094 280.273438 442.046875 276.28125 437.308594 272.703125 C 432.226562 268.851562 426.867188 265.136719 422.128906 260.871094 C 412.789062 252.476562 404.410156 243.046875 396.308594 233.554688 C 392.257812 228.804688 388.480469 223.714844 384.359375 219.035156 C 382.503906 216.96875 380.789062 214.5625 378.316406 213.117188 C 377.558594 212.636719 376.875 212.222656 376.050781 212.289062 C 375.980469 212.222656 375.910156 212.152344 375.910156 212.085938 C 375.292969 211.328125 374.675781 210.640625 373.851562 210.226562 C 372.957031 209.8125 371.859375 209.8125 371.171875 210.433594 C 370.488281 211.050781 370.554688 212.085938 370.761719 212.980469 C 371.242188 215.113281 372.273438 217.039062 373.4375 218.964844 C 374.058594 223.917969 377.628906 228.667969 380.03125 232.660156 C 383.054688 237.820312 386.144531 243.046875 388.960938 248.347656 C 390.46875 251.238281 391.5 254.539062 393.628906 257.015625 C 395.828125 259.699219 398.78125 261.972656 401.320312 264.308594 C 404.136719 266.855469 406.953125 269.332031 409.632812 271.949219 C 411.554688 273.804688 414.300781 276.28125 414.851562 278.964844 C 413.269531 279.308594 411.828125 277.660156 410.796875 276.695312 C 408.945312 275.042969 407.160156 273.394531 405.375 271.742188 C 402.007812 268.714844 398.78125 265.546875 395.484375 262.453125 C 392.324219 259.492188 389.164062 256.742188 386.417969 253.371094 C 383.742188 250.136719 382.023438 246.351562 379.621094 242.910156 C 377.214844 239.46875 374.261719 236.375 371.929688 232.863281 C 369.523438 229.285156 367.257812 225.847656 364.441406 222.542969 C 362.792969 220.617188 358.949219 215.320312 355.925781 216.558594 C 355.722656 216.625 355.445312 216.761719 355.308594 216.902344 C 354.761719 216.417969 354.140625 215.867188 353.457031 215.457031 C 352.492188 214.972656 351.1875 214.972656 350.570312 215.664062 C 349.882812 216.417969 350.019531 217.589844 350.296875 218.550781 C 351.050781 221.234375 352.492188 223.78125 354.140625 226.191406 C 355.242188 230.113281 357.574219 233.554688 359.773438 236.855469 C 361.007812 238.644531 362.246094 240.503906 363.550781 242.222656 C 364.921875 244.011719 366.230469 244.976562 366.023438 247.316406 C 365.679688 251.785156 364.921875 255.984375 365.40625 260.457031 C 365.886719 264.792969 367.394531 268.714844 369.113281 272.636719 C 370.761719 276.488281 372.683594 280.410156 375.019531 283.851562 C 375.980469 285.226562 377.558594 286.328125 377.355469 288.1875 C 377.285156 289.082031 376.734375 289.976562 376.53125 290.871094 C 376.253906 291.972656 376.1875 293.210938 376.1875 294.3125 C 375.910156 302.707031 382.367188 309.035156 386.898438 315.503906 C 391.636719 322.382812 394.933594 330.230469 400.496094 336.558594 C 406.265625 343.027344 412.859375 348.945312 419.453125 354.519531 C 425.21875 359.402344 432.773438 362.570312 435.863281 369.929688 C 437.511719 373.785156 437.789062 378.1875 438.40625 382.25 C 439.023438 386.375 439.4375 390.367188 439.574219 394.496094 C 439.777344 399.039062 440.191406 403.578125 440.328125 408.121094 C 440.464844 412.179688 440.054688 416.308594 439.847656 420.367188 C 439.574219 425.046875 439.4375 429.726562 439.4375 434.335938 C 439.4375 435.160156 439.09375 438.535156 439.847656 438.671875 C 441.152344 439.015625 440.808594 434.472656 440.808594 433.71875 C 441.222656 415.828125 442.046875 398.003906 439.367188 380.253906 C 438.75 376.191406 438.269531 371.789062 436.414062 368.074219 C 434.355469 364.082031 430.988281 361.46875 427.417969 358.851562 C 420.070312 353.417969 412.996094 347.570312 406.539062 341.03125 C 404 338.484375 401.664062 335.941406 399.398438 333.1875 C 396.71875 329.882812 394.796875 325.824219 392.667969 322.109375 C 390.539062 318.460938 388.066406 315.023438 385.664062 311.582031 C 383.191406 308.074219 380.101562 304.496094 378.382812 300.433594 C 376.875 296.789062 377.628906 292.382812 378.726562 288.738281 C 381.199219 290.59375 383.261719 294.035156 384.976562 296.582031 C 386.074219 298.164062 387.175781 299.679688 388.339844 301.191406 C 388.890625 301.878906 390.539062 304.632812 391.5 304.699219 C 393.21875 304.769531 391.089844 302.292969 390.746094 301.949219 C 389.785156 300.570312 388.683594 299.195312 387.65625 297.820312 C 385.320312 294.722656 382.777344 291.765625 380.375 288.667969 C 371.449219 277.175781 363.824219 263.210938 367.191406 248.207031 C 369.664062 250.6875 371.035156 254.609375 372.820312 257.636719 C 374.675781 260.800781 375.429688 264.171875 376.804688 267.542969 C 379.757812 274.699219 386.96875 278.761719 392.257812 284.058594 C 395.003906 286.808594 397.476562 289.769531 400.359375 292.382812 C 401.046875 293.003906 403.519531 294.929688 402.832031 292.726562 C 402.351562 291.421875 399.605469 289.632812 398.574219 288.667969 C 395.828125 285.984375 393.421875 282.820312 390.539062 280.410156 C 387.519531 277.867188 384.359375 275.527344 381.679688 272.566406 C 379.140625 269.675781 378.039062 266.441406 376.875 262.863281 C 375.84375 259.425781 373.78125 256.257812 371.996094 253.164062 C 370.28125 250.066406 368.632812 246.558594 366.503906 243.738281 C 364.101562 240.503906 361.628906 237.40625 359.429688 234.035156 C 358.605469 232.726562 357.78125 231.417969 357.027344 229.976562 C 357.230469 230.113281 357.371094 230.25 357.574219 230.320312 C 359.5 231.351562 361.285156 229.90625 361.285156 228.1875 C 361.351562 225.847656 360.460938 223.917969 359.085938 221.855469 C 358.195312 220.546875 357.230469 219.242188 356.203125 218 C 356.820312 217.65625 357.644531 217.726562 358.742188 218.550781 C 365.0625 223.230469 368.632812 230.9375 373.300781 236.992188 C 375.707031 240.089844 378.109375 243.253906 380.308594 246.488281 C 381.472656 248.207031 382.09375 250.203125 383.261719 251.855469 C 384.496094 253.574219 386.074219 255.160156 387.449219 256.742188 C 389.921875 259.5625 392.941406 261.765625 395.621094 264.308594 C 398.574219 267.132812 401.527344 269.882812 404.480469 272.703125 C 407.019531 275.113281 410.179688 278.761719 413.476562 280.203125 C 414.710938 280.753906 416.292969 280.6875 416.429688 278.964844 C 416.566406 277.519531 414.710938 275.25 413.820312 274.21875 C 409.011719 268.4375 402.625 263.554688 397.132812 258.53125 C 394.109375 255.777344 392.667969 252.957031 390.953125 249.308594 C 389.304688 246.007812 387.105469 242.566406 385.046875 239.058594 C 382.984375 235.480469 380.925781 231.832031 378.796875 228.324219 C 377.765625 226.601562 376.597656 224.609375 375.773438 222.542969 C 376.117188 222.957031 376.460938 223.367188 377.011719 223.644531 C 378.726562 224.539062 380.375 223.300781 380.511719 221.785156 C 380.71875 219.722656 380.03125 218.070312 378.863281 216.28125 C 378.453125 215.59375 377.972656 214.90625 377.492188 214.21875 C 378.519531 214.628906 379.6875 215.800781 380.308594 216.417969 C 383.054688 219.035156 385.320312 222.40625 387.722656 225.296875 C 392.941406 231.625 398.164062 238.09375 403.65625 244.148438 C 409.148438 250.203125 414.917969 256.054688 420.824219 261.625 C 426.457031 266.992188 433.117188 271.121094 439.230469 275.871094 C 442.25 278.210938 445.136719 280.824219 448.15625 283.164062 C 448.980469 283.78125 451.386719 286.261719 452.210938 285.917969 C 453.652344 285.367188 452.621094 282.683594 452.210938 281.789062 C 450.421875 278.003906 447.746094 274.492188 445.410156 271.121094 C 443.144531 267.886719 440.328125 265.894531 437.167969 263.621094 C 434.011719 261.351562 431.261719 259.082031 429.476562 255.640625 C 428.585938 253.988281 427.144531 250.617188 428.242188 248.621094 C 430.097656 250.066406 432.019531 251.375 434.011719 252.679688 C 434.972656 253.300781 436 253.988281 437.167969 254.125 C 439.09375 254.402344 440.191406 253.230469 440.257812 251.785156 C 443.554688 253.78125 446.921875 255.570312 450.082031 257.773438 C 453.101562 259.835938 455.023438 263.484375 457.292969 266.304688 C 459.625 269.265625 462.097656 272.085938 464.5 274.90625 C 466.769531 277.589844 468.964844 280.410156 469.925781 283.851562 C 470.886719 287.359375 471.917969 290.871094 472.949219 294.378906 C 475.421875 302.429688 477.824219 310.410156 479.199219 318.804688 C 480.570312 326.996094 482.015625 335.390625 481.808594 343.714844 C 481.601562 351.628906 480.160156 359.542969 479.679688 367.453125 C 479.128906 375.917969 478.855469 384.3125 478.855469 392.777344 C 478.855469 401.03125 479.472656 409.222656 480.089844 417.410156 C 480.433594 421.605469 480.570312 425.871094 480.984375 430.070312 C 481.191406 432.132812 481.394531 434.265625 481.601562 436.332031 C 481.738281 437.363281 482.355469 441.699219 482.90625 438.738281 C 483.523438 434.886719 482.152344 430.484375 481.945312 426.628906 C 481.671875 422.433594 481.257812 418.234375 481.050781 414.039062 Z M 481.050781 414.039062 " fill-opacity="1" fill-rule="nonzero"/></g><g clip-path="url(#id6)"><path fill="#000000" d="M 813.855469 40.367188 C 825.292969 28.929688 825.632812 14.800781 825.640625 12.09375 C 825.660156 14.839844 826.046875 28.957031 837.488281 40.394531 C 848.929688 51.835938 863.042969 52.222656 865.789062 52.242188 C 863.082031 52.253906 848.953125 52.589844 837.515625 64.027344 C 835.601562 65.941406 825.800781 76.128906 825.734375 92.300781 C 825.710938 89.554688 825.324219 75.4375 813.882812 64 C 802.441406 52.558594 788.328125 52.171875 785.582031 52.152344 C 788.292969 52.144531 802.421875 51.804688 813.855469 40.367188 Z M 813.855469 40.367188 " fill-opacity="1" fill-rule="nonzero"/></g><g fill="#122a36" fill-opacity="1"><g transform="translate(216.984825, 130.061014)"><g><path d="M 25.984375 0 C 38.253906 0 40.996094 -8.902344 40.996094 -13.714844 C 40.996094 -18.285156 38.542969 -26.515625 27.859375 -27.378906 C 35.609375 -28.582031 37.675781 -34.644531 37.675781 -37.484375 C 37.675781 -40.660156 36.378906 -48.121094 24.925781 -48.121094 L 3.847656 -48.121094 L 3.847656 0 Z M 7.652344 -4.234375 C 7.652344 -4.90625 7.652344 -14.148438 7.699219 -24.203125 C 7.699219 -25.648438 8.660156 -26.609375 10.105469 -26.609375 L 21.75 -26.609375 C 31.375 -26.609375 36.425781 -21.558594 36.425781 -13.714844 C 36.425781 -5.871094 31.375 -0.960938 21.75 -0.960938 L 10.203125 -0.960938 C 8.46875 -0.960938 7.652344 -1.636719 7.652344 -4.234375 Z M 7.699219 -44.847656 C 7.890625 -46.675781 8.710938 -47.15625 10.203125 -47.15625 L 22.039062 -47.15625 C 29.59375 -47.15625 33.683594 -43.019531 33.683594 -37.628906 C 33.683594 -32.191406 29.59375 -27.574219 22.039062 -27.574219 L 10.105469 -27.574219 C 8.660156 -27.574219 7.699219 -28.535156 7.699219 -29.976562 Z M 7.699219 -44.847656 "/></g></g></g><g fill="#122a36" fill-opacity="1"><g transform="translate(260.194697, 130.061014)"><g><path d="M 5.195312 0 L 7.746094 -9 C 8.179688 -10.539062 9.335938 -12.605469 10.394531 -13.378906 C 13.183594 -15.398438 16.214844 -16.359375 19.296875 -16.359375 C 24.734375 -16.359375 31.953125 -13.136719 34.308594 -7.84375 L 37.820312 0 L 42.054688 0 L 20.59375 -48.121094 L 16.359375 -48.121094 L 17.371094 -45.859375 L 0.960938 0 Z M 10.441406 -18.238281 L 17.273438 -42.007812 C 17.515625 -42.777344 17.804688 -43.164062 18.140625 -43.164062 C 18.429688 -43.164062 18.765625 -42.828125 19.054688 -42.152344 L 31.46875 -14.339844 C 32.046875 -13.039062 31.757812 -12.800781 30.652344 -13.714844 C 26.996094 -16.699219 22.375 -18.863281 17.851562 -18.863281 C 15.734375 -18.863281 13.664062 -18.382812 11.742188 -17.324219 C 11.261719 -17.082031 10.921875 -16.9375 10.683594 -16.9375 C 10.25 -16.9375 10.203125 -17.371094 10.441406 -18.238281 Z M 10.441406 -18.238281 "/></g></g></g><g fill="#122a36" fill-opacity="1"><g transform="translate(302.394088, 130.061014)"><g><path d="M 2.40625 -24.058594 C 2.40625 -9.046875 13.183594 0.960938 26.417969 0.960938 C 34.644531 0.960938 42.539062 -1.589844 44.894531 -5.148438 L 44.894531 -10.539062 C 41.191406 -5.246094 33.972656 0 26.417969 0 C 15.300781 0 6.253906 -9.625 6.253906 -24.058594 C 6.253906 -38.496094 15.300781 -48.121094 26.417969 -48.121094 C 34.644531 -48.121094 41.671875 -42.441406 42.394531 -37.050781 C 42.394531 -37.050781 44.558594 -36.957031 44.558594 -39.699219 C 44.558594 -45.90625 35.128906 -49.082031 26.417969 -49.082031 C 13.183594 -49.082031 2.40625 -39.074219 2.40625 -24.058594 Z M 2.40625 -24.058594 "/></g></g></g><g fill="#122a36" fill-opacity="1"><g transform="translate(349.645858, 130.061014)"><g><path d="M 3.847656 0 L 7.699219 0 C 7.699219 0 7.652344 -11.597656 7.652344 -23 C 7.652344 -24.492188 8.277344 -25.359375 9.816406 -25.40625 L 10.203125 -25.40625 C 17.371094 -25.40625 25.886719 -5.003906 33.539062 0 L 39.21875 0 C 36.761719 -1.730469 32.625 -5.96875 29.207031 -10.875 C 22.617188 -20.304688 18.960938 -26.226562 12.800781 -26.226562 L 11.789062 -26.226562 C 10.347656 -26.226562 10.152344 -26.851562 11.308594 -27.71875 L 37.726562 -48.121094 L 31.710938 -48.121094 C 25.40625 -42.054688 17.273438 -34.261719 9.480469 -27.476562 C 9.046875 -27.089844 8.710938 -26.945312 8.421875 -26.945312 C 7.941406 -26.945312 7.652344 -27.378906 7.652344 -28.292969 L 7.652344 -48.121094 L 3.847656 -48.121094 Z M 3.847656 0 "/></g></g></g><g fill="#122a36" fill-opacity="1"><g transform="translate(389.824296, 130.061014)"><g/></g></g><g fill="#122a36" fill-opacity="1"><g transform="translate(404.259661, 130.061014)"><g><path d="M 2.886719 -48.121094 L 2.886719 -43.835938 C 6.832031 -45.570312 15.109375 -47.15625 16.9375 -47.15625 C 18.671875 -47.15625 19.488281 -46.484375 19.488281 -43.886719 L 19.488281 0 L 23.339844 0 L 23.339844 -43.886719 C 23.339844 -46.484375 24.15625 -47.15625 25.886719 -47.15625 C 27.71875 -47.15625 35.992188 -45.570312 39.9375 -43.835938 L 39.9375 -48.121094 Z M 2.886719 -48.121094 "/></g></g></g><g fill="#122a36" fill-opacity="1"><g transform="translate(447.08458, 130.061014)"><g><path d="M 26.417969 0.960938 C 39.652344 0.960938 50.476562 -9.046875 50.476562 -24.058594 C 50.476562 -39.074219 39.652344 -49.082031 26.417969 -49.082031 C 13.183594 -49.082031 2.40625 -39.074219 2.40625 -24.058594 C 2.40625 -9.046875 13.183594 0.960938 26.417969 0.960938 Z M 6.253906 -24.058594 C 6.253906 -38.496094 15.300781 -48.121094 26.417969 -48.121094 C 37.535156 -48.121094 46.628906 -38.496094 46.628906 -24.058594 C 46.628906 -9.625 37.535156 0 26.417969 0 C 15.300781 0 6.253906 -9.625 6.253906 -24.058594 Z M 6.253906 -24.058594 "/></g></g></g><g fill="#122a36" fill-opacity="1"><g transform="translate(499.966138, 130.061014)"><g/></g></g><g fill="#122a36" fill-opacity="1"><g transform="translate(514.401503, 130.061014)"><g><path d="M 2.648438 -10.152344 C 2.648438 -3.5625 10.730469 0.960938 22.519531 0.960938 C 32.144531 0.960938 41.816406 -3.5625 41.816406 -13.378906 C 41.816406 -33.296875 6.785156 -23.097656 6.785156 -36.332031 C 6.785156 -43.980469 12.558594 -48.121094 21.652344 -48.121094 C 29.640625 -48.121094 36.90625 -44.171875 38.304688 -37.484375 C 39.699219 -37.964844 40.226562 -39.167969 40.226562 -40.660156 C 40.226562 -46.773438 30.121094 -49.082031 22.472656 -49.082031 C 13.472656 -49.082031 3.367188 -45.472656 3.367188 -36.089844 C 3.367188 -16.984375 38.351562 -30.027344 38.351562 -12.03125 C 38.351562 -4.089844 30.84375 0 22.519531 0 C 14.050781 0 6.351562 -5.292969 6.351562 -10.488281 C 6.351562 -11.980469 6.882812 -13.183594 8.277344 -13.664062 C 7.601562 -14.242188 6.882812 -14.484375 6.207031 -14.484375 C 4.332031 -14.484375 2.648438 -12.703125 2.648438 -10.152344 Z M 2.648438 -10.152344 "/></g></g></g><g fill="#122a36" fill-opacity="1"><g transform="translate(558.429371, 130.061014)"><g><path d="M 2.40625 -24.058594 C 2.40625 -9.046875 13.183594 0.960938 26.417969 0.960938 C 34.644531 0.960938 42.539062 -1.589844 44.894531 -5.148438 L 44.894531 -10.539062 C 41.191406 -5.246094 33.972656 0 26.417969 0 C 15.300781 0 6.253906 -9.625 6.253906 -24.058594 C 6.253906 -38.496094 15.300781 -48.121094 26.417969 -48.121094 C 34.644531 -48.121094 41.671875 -42.441406 42.394531 -37.050781 C 42.394531 -37.050781 44.558594 -36.957031 44.558594 -39.699219 C 44.558594 -45.90625 35.128906 -49.082031 26.417969 -49.082031 C 13.183594 -49.082031 2.40625 -39.074219 2.40625 -24.058594 Z M 2.40625 -24.058594 "/></g></g></g><g fill="#122a36" fill-opacity="1"><g transform="translate(605.681148, 130.061014)"><g><path d="M 7.699219 0 L 7.699219 -13.523438 C 7.699219 -23.195312 19.632812 -28.488281 28.246094 -28.488281 C 33.203125 -28.488281 37.050781 -26.753906 37.050781 -23.195312 L 37.050781 0 L 40.902344 0 L 40.902344 -48.121094 L 37.050781 -48.121094 L 37.050781 -27.089844 C 33.730469 -28.96875 29.546875 -29.929688 25.214844 -29.929688 C 18.671875 -29.929688 11.886719 -27.667969 7.699219 -22.808594 L 7.699219 -48.121094 L 3.847656 -48.121094 L 3.847656 0 Z M 7.699219 0 "/></g></g></g><g fill="#122a36" fill-opacity="1"><g transform="translate(650.430788, 130.061014)"><g><path d="M 26.417969 0.960938 C 39.652344 0.960938 50.476562 -9.046875 50.476562 -24.058594 C 50.476562 -39.074219 39.652344 -49.082031 26.417969 -49.082031 C 13.183594 -49.082031 2.40625 -39.074219 2.40625 -24.058594 C 2.40625 -9.046875 13.183594 0.960938 26.417969 0.960938 Z M 6.253906 -24.058594 C 6.253906 -38.496094 15.300781 -48.121094 26.417969 -48.121094 C 37.535156 -48.121094 46.628906 -38.496094 46.628906 -24.058594 C 46.628906 -9.625 37.535156 0 26.417969 0 C 15.300781 0 6.253906 -9.625 6.253906 -24.058594 Z M 6.253906 -24.058594 "/></g></g></g><g fill="#122a36" fill-opacity="1"><g transform="translate(703.312374, 130.061014)"><g><path d="M 26.417969 0.960938 C 39.652344 0.960938 50.476562 -9.046875 50.476562 -24.058594 C 50.476562 -39.074219 39.652344 -49.082031 26.417969 -49.082031 C 13.183594 -49.082031 2.40625 -39.074219 2.40625 -24.058594 C 2.40625 -9.046875 13.183594 0.960938 26.417969 0.960938 Z M 6.253906 -24.058594 C 6.253906 -38.496094 15.300781 -48.121094 26.417969 -48.121094 C 37.535156 -48.121094 46.628906 -38.496094 46.628906 -24.058594 C 46.628906 -9.625 37.535156 0 26.417969 0 C 15.300781 0 6.253906 -9.625 6.253906 -24.058594 Z M 6.253906 -24.058594 "/></g></g></g><g fill="#122a36" fill-opacity="1"><g transform="translate(756.193959, 130.061014)"><g><path d="M 37.195312 0 L 37.195312 -4.28125 C 32.289062 -2.648438 18.960938 -0.960938 10.203125 -0.960938 C 8.46875 -0.960938 7.652344 -1.636719 7.652344 -4.234375 L 7.652344 -48.121094 L 3.847656 -48.121094 L 3.847656 0 Z M 37.195312 0 "/></g></g></g><g clip-path="url(#id7)"><path fill="#000000" d="M 228.804688 355.378906 C 200.171875 355.378906 176.957031 378.460938 176.957031 406.933594 C 176.957031 435.410156 200.171875 458.492188 228.804688 458.492188 C 257.441406 458.492188 280.652344 435.410156 280.652344 406.933594 C 280.652344 378.460938 257.441406 355.378906 228.804688 355.378906 " fill-opacity="1" fill-rule="nonzero"/></g><g fill="#ffffff" fill-opacity="1"><g transform="translate(204.567104, 403.064436)"><g><path d="M 7.117188 -20.246094 L 0.296875 -18.011719 L 0.296875 -14.945312 L 2.648438 -14.945312 L 2.648438 0 L 7.117188 0 Z M 7.117188 -20.246094 "/></g></g></g><g fill="#ffffff" fill-opacity="1"><g transform="translate(213.468824, 403.064436)"><g><path d="M 9.167969 -16.492188 C 12.117188 -16.492188 12.832031 -12.652344 12.832031 -10.03125 C 12.832031 -7.355469 11.996094 -3.691406 9.167969 -3.691406 C 6.28125 -3.691406 5.507812 -7.292969 5.507812 -10.09375 C 5.507812 -12.652344 6.28125 -16.492188 9.167969 -16.492188 Z M 9.167969 0.355469 C 15.003906 0.355469 17.296875 -5.835938 17.296875 -10.0625 C 17.296875 -13.726562 15.363281 -20.542969 9.167969 -20.542969 C 2.976562 -20.542969 1.042969 -13.726562 1.042969 -10.0625 C 1.042969 -5.835938 3.335938 0.355469 9.167969 0.355469 Z M 9.167969 0.355469 "/></g></g></g><g fill="#ffffff" fill-opacity="1"><g transform="translate(231.808141, 403.064436)"><g><path d="M 12.890625 -20.246094 L 4.761719 0 L 8.277344 0 L 16.402344 -20.246094 Z M 5.0625 -11.015625 C 8.394531 -11.015625 9.527344 -13.992188 9.527344 -15.777344 C 9.527344 -17.296875 8.574219 -20.542969 5.0625 -20.542969 C 1.546875 -20.542969 0.59375 -17.296875 0.59375 -15.777344 C 0.59375 -13.992188 1.757812 -11.015625 5.0625 -11.015625 Z M 5.0625 -18.011719 C 6.253906 -18.011719 6.371094 -16.640625 6.371094 -15.75 C 6.371094 -14.558594 5.925781 -13.546875 5.0625 -13.546875 C 4.199219 -13.546875 3.78125 -14.527344 3.78125 -15.777344 C 3.78125 -16.640625 3.898438 -18.011719 5.0625 -18.011719 Z M 16.105469 0.296875 C 19.410156 0.296875 20.570312 -2.648438 20.570312 -4.4375 C 20.570312 -5.953125 19.621094 -9.230469 16.105469 -9.230469 C 12.59375 -9.230469 11.609375 -5.953125 11.609375 -4.4375 C 11.609375 -2.648438 12.773438 0.296875 16.105469 0.296875 Z M 16.105469 -6.699219 C 17.265625 -6.699219 17.386719 -5.328125 17.386719 -4.4375 C 17.386719 -3.214844 16.941406 -2.234375 16.105469 -2.234375 C 15.214844 -2.234375 14.796875 -3.1875 14.796875 -4.464844 C 14.796875 -5.328125 14.945312 -6.699219 16.105469 -6.699219 Z M 16.105469 -6.699219 "/></g></g></g><g fill="#ffffff" fill-opacity="1"><g transform="translate(202.309039, 431.595519)"><g><path d="M 17.417969 -10.152344 C 17.417969 -7.027344 14.589844 -4.167969 11.460938 -4.167969 C 8.335938 -4.167969 5.507812 -7.027344 5.507812 -10.152344 C 5.507812 -13.277344 8.335938 -16.105469 11.460938 -16.105469 C 14.589844 -16.105469 17.417969 -13.277344 17.417969 -10.152344 Z M 21.882812 -10.121094 C 21.882812 -15.71875 17.058594 -20.542969 11.460938 -20.542969 C 5.863281 -20.542969 1.042969 -15.71875 1.042969 -10.121094 C 1.042969 -4.523438 5.863281 0.296875 11.460938 0.296875 C 17.058594 0.296875 21.882812 -4.523438 21.882812 -10.121094 Z M 21.882812 -10.121094 "/></g></g></g><g fill="#ffffff" fill-opacity="1"><g transform="translate(225.233186, 431.595519)"><g><path d="M 13.21875 -8.128906 L 13.21875 -12.175781 L 6.253906 -12.175781 L 6.253906 -16.195312 L 13.515625 -16.195312 L 13.515625 -20.246094 L 1.785156 -20.246094 L 1.785156 0 L 6.253906 0 L 6.253906 -8.128906 Z M 13.21875 -8.128906 "/></g></g></g><g fill="#ffffff" fill-opacity="1"><g transform="translate(240.238084, 431.595519)"><g><path d="M 13.21875 -8.128906 L 13.21875 -12.175781 L 6.253906 -12.175781 L 6.253906 -16.195312 L 13.515625 -16.195312 L 13.515625 -20.246094 L 1.785156 -20.246094 L 1.785156 0 L 6.253906 0 L 6.253906 -8.128906 Z M 13.21875 -8.128906 "/></g></g></g><g clip-path="url(#id8)"><path fill="#ceb9a2" d="M 1018.410156 487.238281 L 1018.410156 301.9375 C 1015.558594 301.527344 1012.667969 301.3125 1009.828125 301.171875 C 987.59375 300.089844 964.695312 302.113281 944.53125 311.554688 C 924.378906 321.011719 907.277344 338.816406 902.769531 360.640625 C 899.234375 377.714844 903.097656 397.058594 893.363281 411.523438 C 882.652344 427.445312 860.878906 429.972656 842.792969 436.371094 C 818.199219 445.082031 797.472656 463.898438 785.867188 487.238281 Z M 1018.410156 487.238281 " fill-opacity="1" fill-rule="nonzero"/></g><g clip-path="url(#id9)"><path fill="#ffffff" d="M 1003.507812 279.335938 C 1008.441406 278.949219 1013.433594 278.628906 1018.410156 278.652344 L 1018.410156 275.148438 C 1016.710938 275.148438 1015.03125 275.195312 1013.328125 275.253906 C 987.417969 276.195312 960.480469 281.03125 938.410156 295.386719 C 919.46875 307.722656 904.128906 327.347656 900.9375 350.175781 C 899.175781 362.816406 901.148438 375.550781 900.277344 388.238281 C 899.84375 394.449219 898.609375 400.714844 895.6875 406.265625 C 893.253906 410.875 889.828125 414.804688 885.773438 418.058594 C 877.519531 424.738281 867.230469 428.503906 857.414062 432.242188 C 846.914062 436.25 836.636719 440.460938 827.230469 446.730469 C 811.800781 457.019531 799.082031 471.046875 790.167969 487.238281 L 794.171875 487.238281 C 804.398438 469.378906 819.527344 454.347656 837.660156 444.578125 C 847.242188 439.414062 857.636719 436.144531 867.652344 431.996094 C 877.121094 428.078125 886.703125 423.339844 893.5625 415.496094 C 910.742188 395.859375 900.101562 368.953125 905.28125 345.882812 C 910.308594 323.550781 927.019531 305.230469 946.773438 294.527344 C 958.351562 288.25 971.035156 284.273438 983.941406 281.863281 C 990.414062 280.652344 996.945312 279.839844 1003.507812 279.335938 Z M 1003.507812 279.335938 " fill-opacity="1" fill-rule="nonzero"/></g><g fill="#122a36" fill-opacity="1"><g transform="translate(260.612995, 162.017812)"><g><path d="M 9.34375 -8.445312 C 11.171875 -8.835938 12.304688 -10.132812 12.304688 -12.097656 C 12.304688 -14.34375 10.757812 -15.707031 8.304688 -15.914062 C 7.519531 -15.960938 7.101562 -15.960938 6.429688 -15.960938 L 2.242188 -15.960938 L 2.242188 0 L 6.871094 0 C 7.472656 0 7.910156 0 8.558594 -0.0703125 C 10.871094 -0.253906 12.90625 -1.710938 12.90625 -4.347656 C 12.90625 -6.546875 11.707031 -8.003906 9.34375 -8.445312 Z M 3.121094 -15.199219 L 6.476562 -15.199219 C 7.03125 -15.199219 7.425781 -15.199219 7.933594 -15.175781 C 9.667969 -15.082031 11.359375 -14.273438 11.359375 -11.984375 C 11.359375 -9.738281 9.714844 -8.90625 8.050781 -8.765625 C 7.542969 -8.746094 7.148438 -8.722656 6.777344 -8.722656 L 3.121094 -8.722656 Z M 8.28125 -0.808594 C 7.980469 -0.785156 7.585938 -0.761719 7.21875 -0.761719 L 3.121094 -0.761719 L 3.121094 -7.957031 L 7.078125 -7.957031 C 7.449219 -7.957031 7.773438 -7.957031 8.304688 -7.910156 C 11.011719 -7.773438 11.960938 -6.152344 11.960938 -4.28125 C 11.960938 -1.964844 10.132812 -0.949219 8.28125 -0.808594 Z M 8.28125 -0.808594 "/></g></g></g><g fill="#122a36" fill-opacity="1"><g transform="translate(274.422986, 162.017812)"><g><path d="M 5.667969 -12.515625 C 4.671875 -12.515625 3.792969 -12.027344 3.191406 -11.195312 L 2.542969 -9.714844 L 2.542969 -12.191406 L 1.664062 -12.191406 L 1.664062 0 L 2.542969 0 L 2.542969 -6.753906 C 2.542969 -10.457031 4.09375 -11.890625 6.292969 -11.726562 L 6.292969 -12.445312 C 6.105469 -12.492188 5.898438 -12.515625 5.667969 -12.515625 Z M 5.667969 -12.515625 "/></g></g></g><g fill="#122a36" fill-opacity="1"><g transform="translate(280.784373, 162.017812)"><g><path d="M 2.105469 -15.40625 C 1.734375 -15.40625 1.433594 -15.105469 1.433594 -14.734375 C 1.433594 -14.367188 1.734375 -14.066406 2.105469 -14.066406 C 2.476562 -14.066406 2.777344 -14.367188 2.777344 -14.734375 C 2.777344 -15.105469 2.476562 -15.40625 2.105469 -15.40625 Z M 2.542969 0 L 2.542969 -12.191406 L 1.664062 -12.191406 L 1.664062 0 Z M 2.542969 0 "/></g></g></g><g fill="#122a36" fill-opacity="1"><g transform="translate(285.01758, 162.017812)"><g><path d="M 10.988281 -8.8125 C 10.757812 -11.125 9.277344 -12.515625 6.753906 -12.515625 C 5.320312 -12.515625 4.023438 -12.007812 3.101562 -10.847656 L 2.542969 -9.578125 L 2.542969 -12.191406 L 1.664062 -12.191406 L 1.664062 0 L 2.542969 0 L 2.542969 -6.753906 C 2.542969 -10.246094 4.511719 -11.75 6.664062 -11.75 C 8.859375 -11.75 9.902344 -10.457031 10.109375 -8.558594 C 10.179688 -7.933594 10.203125 -7.402344 10.203125 -6.59375 L 10.203125 0 L 11.082031 0 L 11.082031 -6.800781 C 11.082031 -7.796875 11.058594 -8.1875 10.988281 -8.8125 Z M 10.988281 -8.8125 "/></g></g></g><g fill="#122a36" fill-opacity="1"><g transform="translate(297.64782, 162.017812)"><g><path d="M 11.3125 -12.261719 L 10.433594 -12.261719 L 10.433594 -9.714844 L 9.738281 -11.125 C 8.835938 -12.097656 7.75 -12.515625 6.339844 -12.515625 C 3.355469 -12.515625 0.695312 -10.339844 0.695312 -5.992188 C 0.695312 -2.3125 2.753906 0.324219 6.039062 0.324219 C 7.585938 0.324219 8.722656 -0.09375 9.714844 -1.203125 L 10.433594 -2.589844 L 10.433594 -2.175781 C 10.433594 -1.226562 10.433594 -0.671875 10.410156 0.09375 C 10.339844 2.589844 8.882812 4.28125 6.128906 4.28125 C 4.09375 4.28125 2.382812 3.402344 2.105469 1.273438 L 2.082031 0.972656 L 1.179688 0.972656 L 1.226562 1.273438 C 1.574219 4.003906 3.539062 5.042969 6.082031 5.042969 C 9.300781 5.042969 11.195312 3.121094 11.289062 0.160156 C 11.3125 -0.601562 11.3125 -1.550781 11.3125 -3.191406 Z M 6.128906 -0.417969 C 3.214844 -0.417969 1.664062 -3.03125 1.664062 -6.105469 C 1.664062 -9.53125 3.609375 -11.773438 6.339844 -11.773438 C 8.210938 -11.773438 10.433594 -10.59375 10.433594 -6.824219 L 10.433594 -5.644531 C 10.433594 -1.757812 8.445312 -0.417969 6.128906 -0.417969 Z M 6.128906 -0.417969 "/></g></g></g><g fill="#122a36" fill-opacity="1"><g transform="translate(310.648172, 162.017812)"><g/></g></g><g fill="#122a36" fill-opacity="1"><g transform="translate(315.089574, 162.017812)"><g><path d="M 5.042969 -12.515625 C 2.753906 -12.515625 1.15625 -11.125 1.15625 -9.160156 C 1.15625 -7.078125 2.84375 -6.269531 4.835938 -5.78125 C 7.542969 -5.136719 8.488281 -4.441406 8.488281 -2.890625 C 8.488281 -1.273438 7.007812 -0.417969 5.25 -0.417969 C 3.378906 -0.417969 1.875 -1.25 1.503906 -3.609375 L 0.601562 -3.609375 C 0.902344 -0.832031 2.84375 0.324219 5.183594 0.324219 C 7.609375 0.324219 9.390625 -0.902344 9.390625 -2.9375 C 9.390625 -4.996094 8.003906 -5.921875 5.203125 -6.570312 C 3.332031 -7.007812 2.058594 -7.632812 2.058594 -9.230469 C 2.058594 -10.824219 3.378906 -11.773438 4.996094 -11.773438 C 6.847656 -11.773438 7.910156 -10.804688 8.375 -8.835938 L 9.277344 -8.835938 C 8.953125 -10.917969 7.632812 -12.515625 5.042969 -12.515625 Z M 5.042969 -12.515625 "/></g></g></g><g fill="#122a36" fill-opacity="1"><g transform="translate(325.290918, 162.017812)"><g><path d="M 3.007812 -1.898438 C 2.984375 -2.222656 2.984375 -2.519531 2.984375 -3.121094 L 2.984375 -11.40625 L 5.34375 -11.40625 L 5.34375 -12.097656 L 2.984375 -12.097656 L 2.984375 -14.6875 L 2.105469 -14.6875 L 2.105469 -12.097656 L 0.601562 -12.097656 L 0.601562 -11.40625 L 2.105469 -11.40625 L 2.105469 -3.167969 C 2.105469 -2.476562 2.105469 -2.058594 2.152344 -1.550781 C 2.242188 -0.371094 2.867188 0.160156 4.070312 0.160156 C 4.511719 0.160156 4.996094 0.140625 5.367188 0.09375 L 5.367188 -0.601562 C 3.632812 -0.347656 3.101562 -0.695312 3.007812 -1.898438 Z M 3.007812 -1.898438 "/></g></g></g><g fill="#122a36" fill-opacity="1"><g transform="translate(331.189661, 162.017812)"><g><path d="M 10.871094 -12.191406 L 9.992188 -12.191406 L 9.992188 -5.4375 C 9.992188 -1.964844 8.050781 -0.441406 5.898438 -0.441406 C 3.746094 -0.441406 2.660156 -1.710938 2.429688 -3.609375 C 2.359375 -4.234375 2.335938 -4.789062 2.335938 -5.527344 L 2.335938 -12.191406 L 1.457031 -12.191406 L 1.457031 -5.296875 C 1.457031 -4.300781 1.480469 -3.886719 1.550781 -3.261719 C 1.828125 -1.0625 3.308594 0.324219 5.78125 0.324219 C 7.21875 0.324219 8.488281 -0.207031 9.4375 -1.339844 L 9.992188 -2.613281 L 9.992188 0 L 10.871094 0 Z M 10.871094 -12.191406 "/></g></g></g><g fill="#122a36" fill-opacity="1"><g transform="translate(343.750506, 162.017812)"><g><path d="M 11.3125 -17.003906 L 10.433594 -17.003906 L 10.433594 -9.714844 L 9.738281 -11.125 C 8.835938 -12.097656 7.75 -12.515625 6.339844 -12.515625 C 3.355469 -12.515625 0.695312 -10.339844 0.695312 -5.992188 C 0.695312 -2.3125 2.753906 0.324219 6.039062 0.324219 C 7.585938 0.324219 8.722656 -0.09375 9.714844 -1.203125 L 10.433594 -2.589844 L 10.433594 0 L 11.3125 0 Z M 6.128906 -0.417969 C 3.214844 -0.417969 1.664062 -3.03125 1.664062 -6.105469 C 1.664062 -9.53125 3.609375 -11.773438 6.339844 -11.773438 C 8.210938 -11.773438 10.433594 -10.59375 10.433594 -6.824219 L 10.433594 -5.644531 C 10.433594 -1.757812 8.445312 -0.417969 6.128906 -0.417969 Z M 6.128906 -0.417969 "/></g></g></g><g fill="#122a36" fill-opacity="1"><g transform="translate(356.750858, 162.017812)"><g><path d="M 11.359375 -6.429688 C 11.359375 -9.601562 9.667969 -12.515625 6.222656 -12.515625 C 3.121094 -12.515625 0.695312 -9.992188 0.695312 -6.128906 C 0.695312 -1.851562 3.101562 0.324219 6.015625 0.324219 C 8.375 0.324219 10.503906 -1.039062 11.171875 -3.792969 L 10.269531 -3.792969 C 9.667969 -1.480469 7.910156 -0.417969 6.0625 -0.417969 C 3.933594 -0.417969 1.757812 -1.898438 1.621094 -5.851562 L 11.335938 -5.851562 C 11.359375 -6.152344 11.359375 -6.316406 11.359375 -6.429688 Z M 6.175781 -11.773438 C 8.234375 -11.773438 10.316406 -10.386719 10.457031 -6.617188 L 1.621094 -6.617188 C 1.757812 -10.109375 4.046875 -11.773438 6.175781 -11.773438 Z M 6.175781 -11.773438 "/></g></g></g><g fill="#122a36" fill-opacity="1"><g transform="translate(368.96472, 162.017812)"><g><path d="M 10.988281 -8.8125 C 10.757812 -11.125 9.277344 -12.515625 6.753906 -12.515625 C 5.320312 -12.515625 4.023438 -12.007812 3.101562 -10.847656 L 2.542969 -9.578125 L 2.542969 -12.191406 L 1.664062 -12.191406 L 1.664062 0 L 2.542969 0 L 2.542969 -6.753906 C 2.542969 -10.246094 4.511719 -11.75 6.664062 -11.75 C 8.859375 -11.75 9.902344 -10.457031 10.109375 -8.558594 C 10.179688 -7.933594 10.203125 -7.402344 10.203125 -6.59375 L 10.203125 0 L 11.082031 0 L 11.082031 -6.800781 C 11.082031 -7.796875 11.058594 -8.1875 10.988281 -8.8125 Z M 10.988281 -8.8125 "/></g></g></g><g fill="#122a36" fill-opacity="1"><g transform="translate(381.59496, 162.017812)"><g><path d="M 3.007812 -1.898438 C 2.984375 -2.222656 2.984375 -2.519531 2.984375 -3.121094 L 2.984375 -11.40625 L 5.34375 -11.40625 L 5.34375 -12.097656 L 2.984375 -12.097656 L 2.984375 -14.6875 L 2.105469 -14.6875 L 2.105469 -12.097656 L 0.601562 -12.097656 L 0.601562 -11.40625 L 2.105469 -11.40625 L 2.105469 -3.167969 C 2.105469 -2.476562 2.105469 -2.058594 2.152344 -1.550781 C 2.242188 -0.371094 2.867188 0.160156 4.070312 0.160156 C 4.511719 0.160156 4.996094 0.140625 5.367188 0.09375 L 5.367188 -0.601562 C 3.632812 -0.347656 3.101562 -0.695312 3.007812 -1.898438 Z M 3.007812 -1.898438 "/></g></g></g><g fill="#122a36" fill-opacity="1"><g transform="translate(387.493702, 162.017812)"><g/></g></g><g fill="#122a36" fill-opacity="1"><g transform="translate(391.935104, 162.017812)"><g><path d="M 3.121094 0 L 3.121094 -15.960938 L 2.242188 -15.960938 L 2.242188 0 Z M 3.121094 0 "/></g></g></g><g fill="#122a36" fill-opacity="1"><g transform="translate(396.746629, 162.017812)"><g><path d="M 8.699219 -15.914062 C 8.050781 -15.960938 7.679688 -15.960938 6.917969 -15.960938 L 2.242188 -15.960938 L 2.242188 0 L 6.894531 0 C 7.65625 0 8.121094 0 8.929688 -0.09375 C 11.449219 -0.394531 15.011719 -2.683594 15.011719 -8.074219 C 15.011719 -13.507812 11.449219 -15.660156 8.699219 -15.914062 Z M 8.8125 -0.878906 C 8.121094 -0.785156 7.609375 -0.761719 6.847656 -0.761719 L 3.121094 -0.761719 L 3.121094 -15.199219 L 6.894531 -15.199219 C 7.726562 -15.199219 8.121094 -15.199219 8.628906 -15.128906 C 11.195312 -14.851562 14.042969 -12.722656 14.042969 -8.074219 C 14.042969 -3.539062 11.382812 -1.203125 8.8125 -0.878906 Z M 8.8125 -0.878906 "/></g></g></g><g fill="#122a36" fill-opacity="1"><g transform="translate(412.638521, 162.017812)"><g/></g></g><g fill="#122a36" fill-opacity="1"><g transform="translate(417.079924, 162.017812)"><g><path d="M 3.007812 -1.898438 C 2.984375 -2.222656 2.984375 -2.519531 2.984375 -3.121094 L 2.984375 -11.40625 L 5.34375 -11.40625 L 5.34375 -12.097656 L 2.984375 -12.097656 L 2.984375 -14.6875 L 2.105469 -14.6875 L 2.105469 -12.097656 L 0.601562 -12.097656 L 0.601562 -11.40625 L 2.105469 -11.40625 L 2.105469 -3.167969 C 2.105469 -2.476562 2.105469 -2.058594 2.152344 -1.550781 C 2.242188 -0.371094 2.867188 0.160156 4.070312 0.160156 C 4.511719 0.160156 4.996094 0.140625 5.367188 0.09375 L 5.367188 -0.601562 C 3.632812 -0.347656 3.101562 -0.695312 3.007812 -1.898438 Z M 3.007812 -1.898438 "/></g></g></g><g fill="#122a36" fill-opacity="1"><g transform="translate(422.978666, 162.017812)"><g><path d="M 6.5 -12.515625 C 2.890625 -12.515625 0.695312 -9.855469 0.695312 -6.082031 C 0.695312 -2.335938 2.890625 0.324219 6.5 0.324219 C 10.109375 0.324219 12.304688 -2.335938 12.304688 -6.082031 C 12.304688 -9.855469 10.109375 -12.515625 6.5 -12.515625 Z M 6.5 -0.417969 C 3.910156 -0.417969 1.664062 -2.3125 1.664062 -6.082031 C 1.664062 -9.878906 3.910156 -11.773438 6.5 -11.773438 C 9.089844 -11.773438 11.359375 -9.878906 11.359375 -6.082031 C 11.359375 -2.3125 9.089844 -0.417969 6.5 -0.417969 Z M 6.5 -0.417969 "/></g></g></g><g fill="#122a36" fill-opacity="1"><g transform="translate(435.979017, 162.017812)"><g/></g></g><g fill="#122a36" fill-opacity="1"><g transform="translate(440.420419, 162.017812)"><g><path d="M 5.667969 -12.515625 C 4.671875 -12.515625 3.792969 -12.027344 3.191406 -11.195312 L 2.542969 -9.714844 L 2.542969 -12.191406 L 1.664062 -12.191406 L 1.664062 0 L 2.542969 0 L 2.542969 -6.753906 C 2.542969 -10.457031 4.09375 -11.890625 6.292969 -11.726562 L 6.292969 -12.445312 C 6.105469 -12.492188 5.898438 -12.515625 5.667969 -12.515625 Z M 5.667969 -12.515625 "/></g></g></g><g fill="#122a36" fill-opacity="1"><g transform="translate(446.781806, 162.017812)"><g><path d="M 11.359375 -6.429688 C 11.359375 -9.601562 9.667969 -12.515625 6.222656 -12.515625 C 3.121094 -12.515625 0.695312 -9.992188 0.695312 -6.128906 C 0.695312 -1.851562 3.101562 0.324219 6.015625 0.324219 C 8.375 0.324219 10.503906 -1.039062 11.171875 -3.792969 L 10.269531 -3.792969 C 9.667969 -1.480469 7.910156 -0.417969 6.0625 -0.417969 C 3.933594 -0.417969 1.757812 -1.898438 1.621094 -5.851562 L 11.335938 -5.851562 C 11.359375 -6.152344 11.359375 -6.316406 11.359375 -6.429688 Z M 6.175781 -11.773438 C 8.234375 -11.773438 10.316406 -10.386719 10.457031 -6.617188 L 1.621094 -6.617188 C 1.757812 -10.109375 4.046875 -11.773438 6.175781 -11.773438 Z M 6.175781 -11.773438 "/></g></g></g><g fill="#122a36" fill-opacity="1"><g transform="translate(458.99568, 162.017812)"><g><path d="M 6.316406 -12.515625 C 3.261719 -12.515625 0.695312 -10.085938 0.695312 -6.082031 C 0.695312 -1.941406 3.101562 0.324219 6.105469 0.324219 C 8.652344 0.324219 10.640625 -1.15625 11.148438 -3.703125 L 10.246094 -3.703125 C 9.808594 -1.574219 8.144531 -0.417969 6.175781 -0.417969 C 3.863281 -0.417969 1.664062 -2.242188 1.664062 -6.222656 C 1.664062 -9.992188 4.070312 -11.796875 6.269531 -11.796875 C 8.535156 -11.796875 9.945312 -10.480469 10.363281 -8.328125 L 11.265625 -8.328125 C 10.894531 -10.824219 9.023438 -12.515625 6.316406 -12.515625 Z M 6.316406 -12.515625 "/></g></g></g><g fill="#122a36" fill-opacity="1"><g transform="translate(471.024486, 162.017812)"><g><path d="M 11.359375 -6.429688 C 11.359375 -9.601562 9.667969 -12.515625 6.222656 -12.515625 C 3.121094 -12.515625 0.695312 -9.992188 0.695312 -6.128906 C 0.695312 -1.851562 3.101562 0.324219 6.015625 0.324219 C 8.375 0.324219 10.503906 -1.039062 11.171875 -3.792969 L 10.269531 -3.792969 C 9.667969 -1.480469 7.910156 -0.417969 6.0625 -0.417969 C 3.933594 -0.417969 1.757812 -1.898438 1.621094 -5.851562 L 11.335938 -5.851562 C 11.359375 -6.152344 11.359375 -6.316406 11.359375 -6.429688 Z M 6.175781 -11.773438 C 8.234375 -11.773438 10.316406 -10.386719 10.457031 -6.617188 L 1.621094 -6.617188 C 1.757812 -10.109375 4.046875 -11.773438 6.175781 -11.773438 Z M 6.175781 -11.773438 "/></g></g></g><g fill="#122a36" fill-opacity="1"><g transform="translate(483.23836, 162.017812)"><g><path d="M 2.105469 -15.40625 C 1.734375 -15.40625 1.433594 -15.105469 1.433594 -14.734375 C 1.433594 -14.367188 1.734375 -14.066406 2.105469 -14.066406 C 2.476562 -14.066406 2.777344 -14.367188 2.777344 -14.734375 C 2.777344 -15.105469 2.476562 -15.40625 2.105469 -15.40625 Z M 2.542969 0 L 2.542969 -12.191406 L 1.664062 -12.191406 L 1.664062 0 Z M 2.542969 0 "/></g></g></g><g fill="#122a36" fill-opacity="1"><g transform="translate(487.471567, 162.017812)"><g><path d="M 10.917969 -12.191406 L 9.96875 -12.191406 L 5.597656 -0.671875 L 1.226562 -12.191406 L 0.230469 -12.191406 L 4.996094 0 L 6.152344 0 Z M 10.917969 -12.191406 "/></g></g></g><g fill="#122a36" fill-opacity="1"><g transform="translate(498.575085, 162.017812)"><g><path d="M 11.359375 -6.429688 C 11.359375 -9.601562 9.667969 -12.515625 6.222656 -12.515625 C 3.121094 -12.515625 0.695312 -9.992188 0.695312 -6.128906 C 0.695312 -1.851562 3.101562 0.324219 6.015625 0.324219 C 8.375 0.324219 10.503906 -1.039062 11.171875 -3.792969 L 10.269531 -3.792969 C 9.667969 -1.480469 7.910156 -0.417969 6.0625 -0.417969 C 3.933594 -0.417969 1.757812 -1.898438 1.621094 -5.851562 L 11.335938 -5.851562 C 11.359375 -6.152344 11.359375 -6.316406 11.359375 -6.429688 Z M 6.175781 -11.773438 C 8.234375 -11.773438 10.316406 -10.386719 10.457031 -6.617188 L 1.621094 -6.617188 C 1.757812 -10.109375 4.046875 -11.773438 6.175781 -11.773438 Z M 6.175781 -11.773438 "/></g></g></g><g fill="#122a36" fill-opacity="1"><g transform="translate(510.788958, 162.017812)"><g/></g></g><g fill="#122a36" fill-opacity="1"><g transform="translate(515.23036, 162.017812)"><g><path d="M 11.3125 -17.003906 L 10.433594 -17.003906 L 10.433594 -9.714844 L 9.738281 -11.125 C 8.835938 -12.097656 7.75 -12.515625 6.339844 -12.515625 C 3.355469 -12.515625 0.695312 -10.339844 0.695312 -5.992188 C 0.695312 -2.3125 2.753906 0.324219 6.039062 0.324219 C 7.585938 0.324219 8.722656 -0.09375 9.714844 -1.203125 L 10.433594 -2.589844 L 10.433594 0 L 11.3125 0 Z M 6.128906 -0.417969 C 3.214844 -0.417969 1.664062 -3.03125 1.664062 -6.105469 C 1.664062 -9.53125 3.609375 -11.773438 6.339844 -11.773438 C 8.210938 -11.773438 10.433594 -10.59375 10.433594 -6.824219 L 10.433594 -5.644531 C 10.433594 -1.757812 8.445312 -0.417969 6.128906 -0.417969 Z M 6.128906 -0.417969 "/></g></g></g><g fill="#122a36" fill-opacity="1"><g transform="translate(528.230712, 162.017812)"><g><path d="M 2.105469 -15.40625 C 1.734375 -15.40625 1.433594 -15.105469 1.433594 -14.734375 C 1.433594 -14.367188 1.734375 -14.066406 2.105469 -14.066406 C 2.476562 -14.066406 2.777344 -14.367188 2.777344 -14.734375 C 2.777344 -15.105469 2.476562 -15.40625 2.105469 -15.40625 Z M 2.542969 0 L 2.542969 -12.191406 L 1.664062 -12.191406 L 1.664062 0 Z M 2.542969 0 "/></g></g></g><g fill="#122a36" fill-opacity="1"><g transform="translate(532.46392, 162.017812)"><g><path d="M 5.042969 -12.515625 C 2.753906 -12.515625 1.15625 -11.125 1.15625 -9.160156 C 1.15625 -7.078125 2.84375 -6.269531 4.835938 -5.78125 C 7.542969 -5.136719 8.488281 -4.441406 8.488281 -2.890625 C 8.488281 -1.273438 7.007812 -0.417969 5.25 -0.417969 C 3.378906 -0.417969 1.875 -1.25 1.503906 -3.609375 L 0.601562 -3.609375 C 0.902344 -0.832031 2.84375 0.324219 5.183594 0.324219 C 7.609375 0.324219 9.390625 -0.902344 9.390625 -2.9375 C 9.390625 -4.996094 8.003906 -5.921875 5.203125 -6.570312 C 3.332031 -7.007812 2.058594 -7.632812 2.058594 -9.230469 C 2.058594 -10.824219 3.378906 -11.773438 4.996094 -11.773438 C 6.847656 -11.773438 7.910156 -10.804688 8.375 -8.835938 L 9.277344 -8.835938 C 8.953125 -10.917969 7.632812 -12.515625 5.042969 -12.515625 Z M 5.042969 -12.515625 "/></g></g></g><g fill="#122a36" fill-opacity="1"><g transform="translate(542.665275, 162.017812)"><g><path d="M 6.316406 -12.515625 C 3.261719 -12.515625 0.695312 -10.085938 0.695312 -6.082031 C 0.695312 -1.941406 3.101562 0.324219 6.105469 0.324219 C 8.652344 0.324219 10.640625 -1.15625 11.148438 -3.703125 L 10.246094 -3.703125 C 9.808594 -1.574219 8.144531 -0.417969 6.175781 -0.417969 C 3.863281 -0.417969 1.664062 -2.242188 1.664062 -6.222656 C 1.664062 -9.992188 4.070312 -11.796875 6.269531 -11.796875 C 8.535156 -11.796875 9.945312 -10.480469 10.363281 -8.328125 L 11.265625 -8.328125 C 10.894531 -10.824219 9.023438 -12.515625 6.316406 -12.515625 Z M 6.316406 -12.515625 "/></g></g></g><g fill="#122a36" fill-opacity="1"><g transform="translate(554.694082, 162.017812)"><g><path d="M 6.5 -12.515625 C 2.890625 -12.515625 0.695312 -9.855469 0.695312 -6.082031 C 0.695312 -2.335938 2.890625 0.324219 6.5 0.324219 C 10.109375 0.324219 12.304688 -2.335938 12.304688 -6.082031 C 12.304688 -9.855469 10.109375 -12.515625 6.5 -12.515625 Z M 6.5 -0.417969 C 3.910156 -0.417969 1.664062 -2.3125 1.664062 -6.082031 C 1.664062 -9.878906 3.910156 -11.773438 6.5 -11.773438 C 9.089844 -11.773438 11.359375 -9.878906 11.359375 -6.082031 C 11.359375 -2.3125 9.089844 -0.417969 6.5 -0.417969 Z M 6.5 -0.417969 "/></g></g></g><g fill="#122a36" fill-opacity="1"><g transform="translate(567.694433, 162.017812)"><g><path d="M 10.871094 -12.191406 L 9.992188 -12.191406 L 9.992188 -5.4375 C 9.992188 -1.964844 8.050781 -0.441406 5.898438 -0.441406 C 3.746094 -0.441406 2.660156 -1.710938 2.429688 -3.609375 C 2.359375 -4.234375 2.335938 -4.789062 2.335938 -5.527344 L 2.335938 -12.191406 L 1.457031 -12.191406 L 1.457031 -5.296875 C 1.457031 -4.300781 1.480469 -3.886719 1.550781 -3.261719 C 1.828125 -1.0625 3.308594 0.324219 5.78125 0.324219 C 7.21875 0.324219 8.488281 -0.207031 9.4375 -1.339844 L 9.992188 -2.613281 L 9.992188 0 L 10.871094 0 Z M 10.871094 -12.191406 "/></g></g></g><g fill="#122a36" fill-opacity="1"><g transform="translate(580.25529, 162.017812)"><g><path d="M 10.988281 -8.8125 C 10.757812 -11.125 9.277344 -12.515625 6.753906 -12.515625 C 5.320312 -12.515625 4.023438 -12.007812 3.101562 -10.847656 L 2.542969 -9.578125 L 2.542969 -12.191406 L 1.664062 -12.191406 L 1.664062 0 L 2.542969 0 L 2.542969 -6.753906 C 2.542969 -10.246094 4.511719 -11.75 6.664062 -11.75 C 8.859375 -11.75 9.902344 -10.457031 10.109375 -8.558594 C 10.179688 -7.933594 10.203125 -7.402344 10.203125 -6.59375 L 10.203125 0 L 11.082031 0 L 11.082031 -6.800781 C 11.082031 -7.796875 11.058594 -8.1875 10.988281 -8.8125 Z M 10.988281 -8.8125 "/></g></g></g><g fill="#122a36" fill-opacity="1"><g transform="translate(592.885531, 162.017812)"><g><path d="M 3.007812 -1.898438 C 2.984375 -2.222656 2.984375 -2.519531 2.984375 -3.121094 L 2.984375 -11.40625 L 5.34375 -11.40625 L 5.34375 -12.097656 L 2.984375 -12.097656 L 2.984375 -14.6875 L 2.105469 -14.6875 L 2.105469 -12.097656 L 0.601562 -12.097656 L 0.601562 -11.40625 L 2.105469 -11.40625 L 2.105469 -3.167969 C 2.105469 -2.476562 2.105469 -2.058594 2.152344 -1.550781 C 2.242188 -0.371094 2.867188 0.160156 4.070312 0.160156 C 4.511719 0.160156 4.996094 0.140625 5.367188 0.09375 L 5.367188 -0.601562 C 3.632812 -0.347656 3.101562 -0.695312 3.007812 -1.898438 Z M 3.007812 -1.898438 "/></g></g></g><g fill="#122a36" fill-opacity="1"><g transform="translate(598.784273, 162.017812)"><g/></g></g><g fill="#122a36" fill-opacity="1"><g transform="translate(603.225675, 162.017812)"><g><path d="M 6.5 -12.515625 C 2.890625 -12.515625 0.695312 -9.855469 0.695312 -6.082031 C 0.695312 -2.335938 2.890625 0.324219 6.5 0.324219 C 10.109375 0.324219 12.304688 -2.335938 12.304688 -6.082031 C 12.304688 -9.855469 10.109375 -12.515625 6.5 -12.515625 Z M 6.5 -0.417969 C 3.910156 -0.417969 1.664062 -2.3125 1.664062 -6.082031 C 1.664062 -9.878906 3.910156 -11.773438 6.5 -11.773438 C 9.089844 -11.773438 11.359375 -9.878906 11.359375 -6.082031 C 11.359375 -2.3125 9.089844 -0.417969 6.5 -0.417969 Z M 6.5 -0.417969 "/></g></g></g><g fill="#122a36" fill-opacity="1"><g transform="translate(616.226026, 162.017812)"><g><path d="M 10.988281 -8.8125 C 10.757812 -11.125 9.277344 -12.515625 6.753906 -12.515625 C 5.320312 -12.515625 4.023438 -12.007812 3.101562 -10.847656 L 2.542969 -9.578125 L 2.542969 -12.191406 L 1.664062 -12.191406 L 1.664062 0 L 2.542969 0 L 2.542969 -6.753906 C 2.542969 -10.246094 4.511719 -11.75 6.664062 -11.75 C 8.859375 -11.75 9.902344 -10.457031 10.109375 -8.558594 C 10.179688 -7.933594 10.203125 -7.402344 10.203125 -6.59375 L 10.203125 0 L 11.082031 0 L 11.082031 -6.800781 C 11.082031 -7.796875 11.058594 -8.1875 10.988281 -8.8125 Z M 10.988281 -8.8125 "/></g></g></g><g fill="#122a36" fill-opacity="1"><g transform="translate(628.856267, 162.017812)"><g/></g></g><g fill="#122a36" fill-opacity="1"><g transform="translate(633.297669, 162.017812)"><g><path d="M 5.042969 -12.515625 C 2.753906 -12.515625 1.15625 -11.125 1.15625 -9.160156 C 1.15625 -7.078125 2.84375 -6.269531 4.835938 -5.78125 C 7.542969 -5.136719 8.488281 -4.441406 8.488281 -2.890625 C 8.488281 -1.273438 7.007812 -0.417969 5.25 -0.417969 C 3.378906 -0.417969 1.875 -1.25 1.503906 -3.609375 L 0.601562 -3.609375 C 0.902344 -0.832031 2.84375 0.324219 5.183594 0.324219 C 7.609375 0.324219 9.390625 -0.902344 9.390625 -2.9375 C 9.390625 -4.996094 8.003906 -5.921875 5.203125 -6.570312 C 3.332031 -7.007812 2.058594 -7.632812 2.058594 -9.230469 C 2.058594 -10.824219 3.378906 -11.773438 4.996094 -11.773438 C 6.847656 -11.773438 7.910156 -10.804688 8.375 -8.835938 L 9.277344 -8.835938 C 8.953125 -10.917969 7.632812 -12.515625 5.042969 -12.515625 Z M 5.042969 -12.515625 "/></g></g></g><g fill="#122a36" fill-opacity="1"><g transform="translate(643.499025, 162.017812)"><g><path d="M 11.359375 -6.429688 C 11.359375 -9.601562 9.667969 -12.515625 6.222656 -12.515625 C 3.121094 -12.515625 0.695312 -9.992188 0.695312 -6.128906 C 0.695312 -1.851562 3.101562 0.324219 6.015625 0.324219 C 8.375 0.324219 10.503906 -1.039062 11.171875 -3.792969 L 10.269531 -3.792969 C 9.667969 -1.480469 7.910156 -0.417969 6.0625 -0.417969 C 3.933594 -0.417969 1.757812 -1.898438 1.621094 -5.851562 L 11.335938 -5.851562 C 11.359375 -6.152344 11.359375 -6.316406 11.359375 -6.429688 Z M 6.175781 -11.773438 C 8.234375 -11.773438 10.316406 -10.386719 10.457031 -6.617188 L 1.621094 -6.617188 C 1.757812 -10.109375 4.046875 -11.773438 6.175781 -11.773438 Z M 6.175781 -11.773438 "/></g></g></g><g fill="#122a36" fill-opacity="1"><g transform="translate(655.712898, 162.017812)"><g><path d="M 5.667969 -12.515625 C 4.671875 -12.515625 3.792969 -12.027344 3.191406 -11.195312 L 2.542969 -9.714844 L 2.542969 -12.191406 L 1.664062 -12.191406 L 1.664062 0 L 2.542969 0 L 2.542969 -6.753906 C 2.542969 -10.457031 4.09375 -11.890625 6.292969 -11.726562 L 6.292969 -12.445312 C 6.105469 -12.492188 5.898438 -12.515625 5.667969 -12.515625 Z M 5.667969 -12.515625 "/></g></g></g><g fill="#122a36" fill-opacity="1"><g transform="translate(662.074262, 162.017812)"><g><path d="M 10.917969 -12.191406 L 9.96875 -12.191406 L 5.597656 -0.671875 L 1.226562 -12.191406 L 0.230469 -12.191406 L 4.996094 0 L 6.152344 0 Z M 10.917969 -12.191406 "/></g></g></g><g fill="#122a36" fill-opacity="1"><g transform="translate(673.177779, 162.017812)"><g><path d="M 2.105469 -15.40625 C 1.734375 -15.40625 1.433594 -15.105469 1.433594 -14.734375 C 1.433594 -14.367188 1.734375 -14.066406 2.105469 -14.066406 C 2.476562 -14.066406 2.777344 -14.367188 2.777344 -14.734375 C 2.777344 -15.105469 2.476562 -15.40625 2.105469 -15.40625 Z M 2.542969 0 L 2.542969 -12.191406 L 1.664062 -12.191406 L 1.664062 0 Z M 2.542969 0 "/></g></g></g><g fill="#122a36" fill-opacity="1"><g transform="translate(677.410987, 162.017812)"><g><path d="M 6.316406 -12.515625 C 3.261719 -12.515625 0.695312 -10.085938 0.695312 -6.082031 C 0.695312 -1.941406 3.101562 0.324219 6.105469 0.324219 C 8.652344 0.324219 10.640625 -1.15625 11.148438 -3.703125 L 10.246094 -3.703125 C 9.808594 -1.574219 8.144531 -0.417969 6.175781 -0.417969 C 3.863281 -0.417969 1.664062 -2.242188 1.664062 -6.222656 C 1.664062 -9.992188 4.070312 -11.796875 6.269531 -11.796875 C 8.535156 -11.796875 9.945312 -10.480469 10.363281 -8.328125 L 11.265625 -8.328125 C 10.894531 -10.824219 9.023438 -12.515625 6.316406 -12.515625 Z M 6.316406 -12.515625 "/></g></g></g><g fill="#122a36" fill-opacity="1"><g transform="translate(689.439793, 162.017812)"><g><path d="M 11.359375 -6.429688 C 11.359375 -9.601562 9.667969 -12.515625 6.222656 -12.515625 C 3.121094 -12.515625 0.695312 -9.992188 0.695312 -6.128906 C 0.695312 -1.851562 3.101562 0.324219 6.015625 0.324219 C 8.375 0.324219 10.503906 -1.039062 11.171875 -3.792969 L 10.269531 -3.792969 C 9.667969 -1.480469 7.910156 -0.417969 6.0625 -0.417969 C 3.933594 -0.417969 1.757812 -1.898438 1.621094 -5.851562 L 11.335938 -5.851562 C 11.359375 -6.152344 11.359375 -6.316406 11.359375 -6.429688 Z M 6.175781 -11.773438 C 8.234375 -11.773438 10.316406 -10.386719 10.457031 -6.617188 L 1.621094 -6.617188 C 1.757812 -10.109375 4.046875 -11.773438 6.175781 -11.773438 Z M 6.175781 -11.773438 "/></g></g></g><g fill="#122a36" fill-opacity="1"><g transform="translate(701.653667, 162.017812)"><g/></g></g><g fill="#122a36" fill-opacity="1"><g transform="translate(706.095046, 162.017812)"><g><path d="M 3.007812 -1.898438 C 2.984375 -2.222656 2.984375 -2.519531 2.984375 -3.121094 L 2.984375 -11.40625 L 5.34375 -11.40625 L 5.34375 -12.097656 L 2.984375 -12.097656 L 2.984375 -14.6875 L 2.105469 -14.6875 L 2.105469 -12.097656 L 0.601562 -12.097656 L 0.601562 -11.40625 L 2.105469 -11.40625 L 2.105469 -3.167969 C 2.105469 -2.476562 2.105469 -2.058594 2.152344 -1.550781 C 2.242188 -0.371094 2.867188 0.160156 4.070312 0.160156 C 4.511719 0.160156 4.996094 0.140625 5.367188 0.09375 L 5.367188 -0.601562 C 3.632812 -0.347656 3.101562 -0.695312 3.007812 -1.898438 Z M 3.007812 -1.898438 "/></g></g></g><g fill="#122a36" fill-opacity="1"><g transform="translate(711.993766, 162.017812)"><g><path d="M 6.5 -12.515625 C 2.890625 -12.515625 0.695312 -9.855469 0.695312 -6.082031 C 0.695312 -2.335938 2.890625 0.324219 6.5 0.324219 C 10.109375 0.324219 12.304688 -2.335938 12.304688 -6.082031 C 12.304688 -9.855469 10.109375 -12.515625 6.5 -12.515625 Z M 6.5 -0.417969 C 3.910156 -0.417969 1.664062 -2.3125 1.664062 -6.082031 C 1.664062 -9.878906 3.910156 -11.773438 6.5 -11.773438 C 9.089844 -11.773438 11.359375 -9.878906 11.359375 -6.082031 C 11.359375 -2.3125 9.089844 -0.417969 6.5 -0.417969 Z M 6.5 -0.417969 "/></g></g></g><g fill="#122a36" fill-opacity="1"><g transform="translate(724.994117, 162.017812)"><g><path d="M 3.007812 -1.898438 C 2.984375 -2.222656 2.984375 -2.519531 2.984375 -3.121094 L 2.984375 -11.40625 L 5.34375 -11.40625 L 5.34375 -12.097656 L 2.984375 -12.097656 L 2.984375 -14.6875 L 2.105469 -14.6875 L 2.105469 -12.097656 L 0.601562 -12.097656 L 0.601562 -11.40625 L 2.105469 -11.40625 L 2.105469 -3.167969 C 2.105469 -2.476562 2.105469 -2.058594 2.152344 -1.550781 C 2.242188 -0.371094 2.867188 0.160156 4.070312 0.160156 C 4.511719 0.160156 4.996094 0.140625 5.367188 0.09375 L 5.367188 -0.601562 C 3.632812 -0.347656 3.101562 -0.695312 3.007812 -1.898438 Z M 3.007812 -1.898438 "/></g></g></g><g fill="#122a36" fill-opacity="1"><g transform="translate(730.892836, 162.017812)"><g><path d="M 9.277344 0 L 10.179688 0 C 10.039062 -1.550781 9.96875 -2.453125 9.96875 -3.722656 L 9.96875 -7.703125 C 9.96875 -8.304688 9.96875 -8.699219 9.925781 -9.300781 C 9.738281 -11.335938 8.445312 -12.515625 5.921875 -12.515625 C 3.445312 -12.515625 1.664062 -10.917969 1.503906 -8.746094 L 2.40625 -8.746094 C 2.660156 -10.871094 4.234375 -11.773438 5.921875 -11.773438 C 7.84375 -11.773438 8.90625 -10.847656 9.042969 -9.207031 C 9.089844 -8.699219 9.089844 -8.210938 9.089844 -7.65625 L 9.089844 -7.101562 L 8.304688 -7.101562 C 4.257812 -7.101562 1.019531 -5.828125 1.019531 -3.007812 C 1.019531 -0.808594 2.542969 0.324219 4.835938 0.324219 C 6.363281 0.324219 7.703125 -0.253906 8.535156 -1.433594 L 9.113281 -2.660156 Z M 5.042969 -0.417969 C 3.007812 -0.417969 1.988281 -1.410156 1.988281 -3.054688 C 1.988281 -5.667969 5.574219 -6.59375 9.089844 -6.363281 L 9.089844 -4.789062 C 9.089844 -2.429688 7.472656 -0.417969 5.042969 -0.417969 Z M 5.042969 -0.417969 "/></g></g></g><g fill="#122a36" fill-opacity="1"><g transform="translate(742.528404, 162.017812)"><g><path d="M 2.476562 -17.003906 L 1.597656 -17.003906 L 1.597656 -2.9375 C 1.597656 -2.128906 1.597656 -1.710938 1.621094 -1.25 C 1.664062 -0.183594 2.222656 0.117188 2.984375 0.117188 C 3.261719 0.117188 3.5625 0.117188 3.839844 0.046875 L 3.839844 -0.648438 C 2.84375 -0.53125 2.542969 -0.71875 2.5 -1.480469 C 2.476562 -1.828125 2.476562 -2.265625 2.476562 -2.960938 Z M 2.476562 -17.003906 "/></g></g></g><g fill="#122a36" fill-opacity="1"><g transform="translate(746.969829, 162.017812)"><g><path d="M 2.84375 -2.960938 L 2.984375 -15.960938 L 1.921875 -15.960938 L 2.058594 -2.960938 Z M 2.453125 -1.109375 C 2.058594 -1.109375 1.734375 -0.808594 1.734375 -0.394531 C 1.734375 0.0234375 2.058594 0.324219 2.453125 0.324219 C 2.867188 0.324219 3.167969 0.0234375 3.167969 -0.394531 C 3.167969 -0.808594 2.867188 -1.109375 2.453125 -1.109375 Z M 2.453125 -1.109375 "/></g></g></g></svg>