<svg xmlns="http://www.w3.org/2000/svg" xmlns:xlink="http://www.w3.org/1999/xlink" width="500" zoomAndPan="magnify" viewBox="0 0 375 374.999991" height="500" preserveAspectRatio="xMidYMid meet" version="1.0"><defs><clipPath id="id1"><path d="M 134 8.796875 L 176 8.796875 L 176 22 L 134 22 Z M 134 8.796875 " clip-rule="nonzero"/></clipPath></defs><path fill="#bf8a7c" d="M 62.402344 133.511719 C 61.011719 133.511719 62.851562 142.195312 62.402344 144.90625 C 60.378906 157.039062 58.527344 168.1875 56.058594 183 C 49.800781 195.515625 51.441406 209.949219 48.019531 223.636719 C 46.699219 228.910156 38.8125 263.527344 39.550781 264.273438 C 47.789062 272.515625 60.050781 271.625 69.859375 273.585938 C 76.132812 274.84375 80.558594 274.667969 86.542969 277.0625 C 89.828125 278.378906 93.007812 278.355469 96.671875 279.089844 C 101.816406 280.121094 132.191406 289.574219 135.003906 286.757812 C 135.644531 286.117188 139.25 280.753906 139.410156 279.9375 C 140.992188 272.019531 146.6875 265.046875 148.007812 257.132812 C 148.949219 251.484375 150.988281 245.179688 152.320312 239.847656 C 158.394531 215.53125 163.300781 190.660156 174.53125 168.1875 C 175.890625 165.453125 179.105469 160.410156 177.914062 158.027344 C 173.289062 148.773438 140.089844 140.976562 130.101562 138.980469 C 119.691406 136.898438 107.351562 135.292969 96.671875 133.511719 C 82.789062 131.195312 76.625 133.511719 62.402344 133.511719 Z M 62.402344 133.511719 " fill-opacity="1" fill-rule="evenodd"/><path fill="#d9b9aa" d="M 178.902344 219.09375 C 178.902344 219.09375 185.65625 225.308594 186.710938 227.84375 C 191.441406 239.195312 196.382812 248.925781 202.152344 262.792969 C 206.699219 276.738281 212.285156 288.78125 216.664062 302.195312 C 218.34375 307.363281 232.003906 340.28125 233.027344 340.523438 C 244.382812 343.125 254.296875 335.855469 263.648438 332.304688 C 269.632812 330.035156 273.285156 327.535156 279.628906 326.382812 C 283.109375 325.753906 285.796875 324.042969 289.289062 322.71875 C 294.191406 320.855469 324.949219 312.726562 325.839844 308.84375 C 326.039062 307.960938 326.242188 301.5 325.945312 300.722656 C 323.082031 293.175781 324.207031 284.242188 321.125 276.835938 C 318.921875 271.546875 317.304688 265.125 315.601562 259.898438 C 307.835938 236.066406 296.253906 211.253906 293.839844 186.246094 C 293.546875 183.199219 291.5625 176.359375 289.289062 174.972656 C 280.457031 169.589844 252.742188 182.628906 243.21875 186.246094 C 233.292969 190.011719 221.984375 195.210938 211.992188 199.375 C 199 204.792969 190.0625 210.09375 178.003906 217.65625 C 176.824219 218.398438 177.765625 219.199219 178.902344 219.09375 Z M 178.902344 219.09375 " fill-opacity="1" fill-rule="evenodd"/><path fill="#000000" d="M 96.082031 131.898438 L 96.292969 130.976562 C 97 127.25 97.894531 123.507812 98.867188 119.769531 C 100.347656 114.113281 102.011719 108.476562 103.515625 102.917969 C 106.710938 91.128906 109.859375 79.320312 113.199219 67.574219 C 115.417969 59.753906 117.726562 51.960938 120.179688 44.210938 C 122.023438 38.40625 124.035156 32.921875 126.914062 27.339844 C 129.421875 22.476562 132.59375 17.535156 136.875 12.226562 C 137.515625 11.4375 137.398438 10.285156 136.613281 9.648438 C 135.832031 9.003906 134.675781 9.125 134.039062 9.90625 C 129.515625 15.390625 126.164062 20.511719 123.496094 25.554688 C 120.457031 31.3125 118.304688 36.96875 116.335938 42.96875 C 113.785156 50.730469 111.390625 58.542969 109.078125 66.382812 C 105.617188 78.109375 102.347656 89.898438 99.027344 101.679688 C 97.464844 107.234375 95.742188 112.871094 94.203125 118.527344 C 93.160156 122.359375 92.207031 126.199219 91.4375 130.03125 C 91.386719 130.300781 91.007812 131.996094 91.109375 132.636719 C 91.308594 133.863281 92.082031 134.46875 92.835938 134.734375 C 94.125 135.1875 95.542969 134.5 95.992188 133.210938 C 96.144531 132.773438 96.171875 132.320312 96.082031 131.898438 Z M 96.082031 131.898438 " fill-opacity="1" fill-rule="evenodd"/><path fill="#000000" d="M 170.992188 19.78125 C 171.164062 24.769531 171 30.433594 170.582031 35.957031 C 170.140625 41.765625 169.425781 47.425781 168.53125 51.984375 C 164.757812 71.164062 153.984375 116.371094 149.554688 136.289062 C 148.414062 141.425781 147.691406 144.929688 147.585938 145.964844 C 147.457031 147.222656 148.371094 148.347656 149.625 148.476562 C 150.878906 148.605469 152.003906 147.695312 152.136719 146.4375 C 152.554688 142.453125 162.710938 100.671875 169.222656 71.773438 C 170.894531 64.375 172.324219 57.8125 173.300781 52.933594 C 174.242188 48.210938 175.003906 42.355469 175.480469 36.335938 C 175.929688 30.628906 176.113281 24.777344 175.949219 19.617188 C 175.90625 18.25 174.757812 17.175781 173.386719 17.21875 C 172.019531 17.265625 170.945312 18.414062 170.992188 19.78125 Z M 170.992188 19.78125 " fill-opacity="1" fill-rule="evenodd"/><g clip-path="url(#id1)"><path fill="#000000" d="M 135.992188 12.988281 L 145.535156 15.089844 C 152.234375 16.683594 158.328125 18.722656 164.71875 20.179688 C 167.515625 20.816406 170.363281 21.34375 173.339844 21.679688 C 174.578125 21.828125 175.703125 20.941406 175.855469 19.699219 C 176 18.460938 175.113281 17.332031 173.875 17.183594 C 171.074219 16.835938 168.398438 16.304688 165.773438 15.675781 C 159.410156 14.148438 153.355469 12.039062 146.683594 10.375 L 137.007812 8.128906 C 135.667969 7.847656 134.355469 8.707031 134.074219 10.050781 C 133.789062 11.390625 134.652344 12.707031 135.992188 12.988281 Z M 135.992188 12.988281 " fill-opacity="1" fill-rule="evenodd"/></g><path fill="#000000" d="M 61.546875 133.9375 C 67.394531 133.011719 73.761719 133.054688 80.09375 133.671875 C 86.488281 134.296875 92.847656 135.515625 98.628906 136.964844 C 114.011719 140.785156 130.316406 144.421875 146.609375 148.664062 C 153.972656 150.582031 161.3125 152.699219 168.613281 154.890625 C 171.746094 155.828125 174.886719 156.695312 177.996094 157.691406 C 179.339844 158.195312 180.839844 157.511719 181.339844 156.167969 C 181.839844 154.824219 181.160156 153.328125 179.816406 152.824219 C 176.75 151.507812 173.6875 150.199219 170.539062 149.058594 C 163.246094 146.417969 155.75 144.296875 148.253906 142.339844 C 131.921875 138.078125 115.449219 134.964844 99.964844 131.378906 C 93.90625 129.988281 87.242188 128.851562 80.5625 128.335938 C 73.769531 127.8125 66.957031 127.925781 60.722656 129.039062 C 59.375 129.265625 58.460938 130.546875 58.6875 131.898438 C 58.917969 133.25 60.195312 134.160156 61.546875 133.9375 Z M 61.546875 133.9375 " fill-opacity="1" fill-rule="evenodd"/><path fill="#000000" d="M 176.789062 156.238281 C 177.585938 157.871094 176.921875 163.257812 176.113281 169.246094 C 174.964844 177.769531 173.066406 187.375 172.292969 190.414062 C 168.152344 206.765625 163.65625 222.976562 159.550781 239.3125 C 156.8125 250.214844 154.25 261.167969 152.082031 272.257812 C 150.179688 282.007812 149.386719 291.996094 147.824219 301.832031 C 147.4375 304.261719 147.007812 306.675781 146.496094 309.078125 C 146.300781 309.980469 146.875 310.875 147.777344 311.070312 C 148.679688 311.269531 149.570312 310.695312 149.769531 309.792969 C 150.316406 307.335938 150.785156 304.867188 151.207031 302.386719 C 152.867188 292.613281 153.753906 282.679688 155.75 272.996094 C 158.015625 261.996094 160.679688 251.136719 163.507812 240.328125 C 167.78125 224.039062 172.441406 207.875 176.75 191.566406 C 177.6875 188.015625 180.234375 175.683594 181.375 166.261719 C 182.070312 160.519531 182.054688 155.75 181.261719 154.085938 C 180.667969 152.851562 179.183594 152.332031 177.949219 152.929688 C 176.714844 153.523438 176.199219 155.007812 176.789062 156.238281 Z M 176.789062 156.238281 " fill-opacity="1" fill-rule="evenodd"/><path fill="#000000" d="M 58.460938 130.882812 C 56.527344 138.78125 54.972656 144.96875 53.695312 149.949219 C 51.238281 159.53125 49.800781 164.65625 48.640625 168.933594 C 42.703125 190.8125 36.417969 212.8125 31.355469 235.046875 C 27.972656 249.917969 25.136719 264.894531 23.316406 280.011719 C 23.191406 281.007812 23.902344 281.917969 24.898438 282.042969 C 25.894531 282.167969 26.804688 281.460938 26.929688 280.460938 C 28.871094 265.496094 31.824219 250.675781 35.3125 235.964844 C 40.5625 213.835938 47.035156 191.953125 53.152344 170.183594 C 54.355469 165.902344 55.84375 160.769531 58.398438 151.179688 C 59.722656 146.195312 61.335938 140.003906 63.347656 132.101562 C 63.683594 130.753906 62.863281 129.386719 61.511719 129.046875 C 60.167969 128.714844 58.796875 129.535156 58.460938 130.882812 Z M 58.460938 130.882812 " fill-opacity="1" fill-rule="evenodd"/><path fill="#000000" d="M 25.34375 282.339844 L 65.429688 294.863281 C 70.953125 296.503906 76.410156 297.847656 81.824219 298.980469 C 103.742188 303.585938 124.980469 304.960938 147.308594 311.246094 C 148.355469 311.550781 149.449219 310.945312 149.753906 309.902344 C 150.058594 308.855469 149.453125 307.757812 148.410156 307.453125 C 126.117188 300.746094 104.839844 298.945312 82.925781 293.949219 C 77.667969 292.75 72.371094 291.367188 67.015625 289.683594 C 61.015625 287.816406 51.730469 284.648438 42.964844 282 C 36.789062 280.136719 30.863281 278.566406 26.601562 277.539062 C 25.277344 277.195312 23.921875 277.984375 23.574219 279.308594 C 23.226562 280.636719 24.019531 281.996094 25.34375 282.339844 Z M 25.34375 282.339844 " fill-opacity="1" fill-rule="evenodd"/><path fill="#000000" d="M 134.578125 285.296875 C 133.164062 285.167969 130.460938 284.691406 126.851562 283.972656 C 115.488281 281.714844 95.484375 277.039062 78.144531 272.996094 C 61.707031 269.164062 47.664062 265.902344 45.769531 265.378906 C 44.921875 265.140625 43.894531 265.058594 41.21875 263.339844 C 40.878906 261.148438 42.136719 254.070312 43.894531 245.324219 C 46.890625 230.417969 51.582031 210.914062 53.578125 201.5 C 56.027344 190.023438 61.898438 170.117188 63.988281 153.023438 C 65.015625 144.644531 65.109375 136.917969 63.59375 131.0625 C 63.238281 129.738281 61.878906 128.949219 60.554688 129.304688 C 59.230469 129.65625 58.445312 131.015625 58.796875 132.339844 C 60.683594 139.265625 60.003906 149.082031 58.394531 159.371094 C 56.023438 174.578125 51.554688 190.773438 49.570312 200.667969 C 47.375 211.515625 41.832031 235.75 39.121094 250.945312 C 37.914062 257.703125 37.328125 262.78125 37.71875 264.402344 C 37.917969 265.253906 38.703125 266.210938 39.925781 266.964844 C 41.511719 267.945312 43.867188 268.730469 44.738281 268.988281 C 46.765625 269.589844 62.726562 273.789062 80.714844 278.1875 C 93.109375 281.21875 106.472656 284.308594 116.839844 286.59375 C 124.464844 288.277344 130.492188 289.496094 133.390625 289.871094 C 135.539062 290.148438 136.789062 289.597656 137.054688 289.367188 C 140.4375 286.328125 143.203125 280.671875 145.679688 273.347656 C 149.242188 262.804688 152.390625 248.691406 156.136719 234.414062 C 159.304688 222.375 163.828125 204.332031 169.382812 186.71875 C 172.832031 175.777344 176.675781 165.007812 180.835938 155.957031 C 181.226562 155.113281 180.855469 154.109375 180.011719 153.71875 C 179.167969 153.328125 178.164062 153.695312 177.773438 154.542969 C 173.523438 163.691406 169.578125 174.589844 166.035156 185.65625 C 160.378906 203.300781 155.734375 221.382812 152.492188 233.441406 C 148.675781 247.585938 145.617188 261.621094 141.855469 272.003906 C 139.703125 277.941406 137.367188 282.628906 134.578125 285.296875 Z M 134.578125 285.296875 " fill-opacity="1" fill-rule="evenodd"/><path fill="#000000" d="M 140.792969 196.296875 C 140.761719 196.320312 140.742188 196.398438 140.726562 196.429688 L 140.792969 196.296875 C 140.804688 196.28125 140.816406 196.277344 140.832031 196.292969 C 141.035156 196.464844 140.390625 196.71875 140.082031 196.976562 C 138.851562 197.988281 137.265625 199.203125 136.480469 199.941406 C 135.6875 200.6875 135.335938 201.359375 135.328125 201.726562 C 135.289062 203.152344 135.566406 204.464844 135.867188 205.796875 C 136.257812 207.527344 136.675781 209.257812 136.820312 211.003906 C 136.949219 212.53125 136.734375 214.082031 135.652344 215.726562 C 134.964844 216.777344 133.746094 216.824219 132.523438 216.898438 C 130.605469 217.019531 128.546875 216.925781 126.945312 217.625 C 125.273438 218.351562 123.921875 219.714844 123.519531 222.386719 C 123.1875 223.914062 123.503906 225.453125 124.230469 227.007812 C 125.179688 229.035156 126.917969 231.117188 128.34375 233.285156 C 129.472656 235.007812 130.449219 236.769531 130.109375 238.6875 C 129.558594 241.769531 127.222656 247.375 124.015625 250.699219 C 123.804688 250.914062 123.589844 251.125 123.371094 251.316406 C 120.335938 248.589844 116.140625 248.390625 114.476562 249.304688 C 113.140625 250.042969 112.554688 251.203125 112.777344 252.570312 C 112.921875 253.445312 113.582031 254.773438 115.589844 256.011719 C 117.628906 257.265625 119.617188 257.5625 121.492188 257.140625 C 123.101562 258.3125 124.007812 262.523438 123.789062 263.53125 C 123.5 264.867188 126.382812 264.34375 127.292969 263.316406 C 128.375 262.0625 128.636719 260.496094 128.148438 258.792969 C 127.757812 257.421875 126.769531 255.90625 125.953125 254.6875 C 126.339844 254.347656 126.710938 253.980469 127.074219 253.582031 C 130.746094 249.59375 133.351562 242.957031 133.914062 239.320312 C 134.15625 237.753906 133.925781 236.242188 133.367188 234.78125 C 132.324219 232.082031 130.074219 229.554688 128.40625 227.125 C 127.457031 225.738281 126.628906 224.441406 126.890625 223.070312 C 127.066406 222.351562 127.371094 221.863281 127.753906 221.523438 C 128.101562 221.222656 128.539062 221.113281 128.992188 221 C 129.953125 220.757812 131.023438 220.671875 132.082031 220.574219 C 134.699219 220.328125 137.148438 219.777344 138.484375 217.476562 C 139.519531 215.6875 139.898438 214.019531 139.917969 212.394531 C 139.949219 209.835938 138.859375 207.433594 138.597656 204.886719 C 138.535156 204.289062 138.578125 203.699219 138.683594 203.101562 C 139.304688 203.59375 141.304688 201.828125 142.636719 201.074219 C 143.871094 200.382812 144.730469 199.480469 145.109375 198.871094 C 146.042969 197.320312 146.726562 195.523438 147.300781 193.613281 C 148.082031 191.019531 148.710938 188.230469 149.402344 185.601562 C 149.679688 184.554688 149.90625 183.523438 150.273438 182.566406 C 150.871094 181.179688 150.230469 179.5625 148.84375 178.964844 C 147.453125 178.363281 145.839844 179.007812 145.242188 180.394531 C 144.710938 181.492188 144.234375 182.667969 143.878906 183.910156 C 142.703125 188.042969 142.550781 192.816406 140.792969 196.296875 Z M 140.792969 196.296875 " fill-opacity="1" fill-rule="evenodd"/><path fill="#000000" d="M 208.027344 199.65625 L 207.699219 198.773438 C 206.246094 195.265625 204.941406 191.648438 203.707031 187.988281 C 201.839844 182.449219 200.140625 176.824219 198.347656 171.351562 C 194.554688 159.738281 190.710938 148.140625 187.058594 136.484375 C 184.625 128.730469 182.277344 120.949219 180.082031 113.121094 C 178.4375 107.257812 177.113281 101.566406 176.460938 95.320312 C 175.886719 89.878906 175.828125 84.003906 176.496094 77.214844 C 176.601562 76.207031 175.867188 75.308594 174.863281 75.203125 C 173.855469 75.09375 172.957031 75.828125 172.851562 76.835938 C 172.078125 83.902344 172.085938 90.023438 172.625 95.703125 C 173.234375 102.183594 174.539062 108.09375 176.1875 114.195312 C 178.3125 122.082031 180.59375 129.925781 182.960938 137.75 C 186.5 149.457031 190.230469 161.109375 193.917969 172.777344 C 195.65625 178.277344 197.304688 183.9375 199.125 189.511719 C 200.355469 193.289062 201.664062 197.023438 203.121094 200.644531 C 203.226562 200.902344 203.839844 202.523438 204.273438 203.003906 C 205.113281 203.921875 206.09375 204 206.867188 203.808594 C 208.195312 203.480469 209.003906 202.128906 208.671875 200.804688 C 208.5625 200.355469 208.335938 199.960938 208.027344 199.65625 Z M 208.027344 199.65625 " fill-opacity="1" fill-rule="evenodd"/><path fill="#000000" d="M 209.160156 64.808594 C 212.042969 68.882812 215.011719 73.707031 217.691406 78.554688 C 220.507812 83.652344 223.011719 88.777344 224.765625 93.082031 C 232.128906 111.183594 247.921875 154.890625 255.140625 173.976562 C 257.003906 178.898438 258.320312 182.222656 258.804688 183.144531 C 259.382812 184.269531 260.761719 184.707031 261.882812 184.125 C 263.003906 183.546875 263.445312 182.164062 262.863281 181.042969 C 261.027344 177.480469 246.605469 136.976562 236.199219 109.242188 C 233.539062 102.136719 231.132812 95.867188 229.273438 91.253906 C 227.472656 86.789062 224.898438 81.472656 221.992188 76.179688 C 219.238281 71.164062 216.183594 66.167969 213.21875 61.949219 C 212.429688 60.828125 210.878906 60.5625 209.761719 61.347656 C 208.640625 62.136719 208.375 63.6875 209.160156 64.808594 Z M 209.160156 64.808594 " fill-opacity="1" fill-rule="evenodd"/><path fill="#000000" d="M 176.210938 78.359375 L 185.34375 74.878906 C 191.816406 72.535156 198.027344 70.894531 204.171875 68.605469 C 206.855469 67.601562 209.527344 66.480469 212.199219 65.128906 C 213.316406 64.570312 213.773438 63.210938 213.214844 62.089844 C 212.660156 60.976562 211.300781 60.519531 210.183594 61.074219 C 207.652344 62.320312 205.121094 63.347656 202.582031 64.261719 C 196.425781 66.476562 190.207031 68.039062 183.714844 70.308594 L 174.394531 73.742188 C 173.121094 74.242188 172.492188 75.683594 172.992188 76.960938 C 173.492188 78.234375 174.933594 78.863281 176.210938 78.359375 Z M 176.210938 78.359375 " fill-opacity="1" fill-rule="evenodd"/><path fill="#000000" d="M 180.273438 220.320312 C 184.65625 216.335938 190.003906 212.878906 195.636719 209.917969 C 201.324219 206.929688 207.308594 204.457031 212.933594 202.496094 C 227.890625 197.246094 243.515625 191.335938 259.464844 185.9375 C 266.671875 183.5 273.96875 181.238281 281.277344 179.0625 C 284.410156 178.128906 287.507812 177.128906 290.65625 176.257812 C 292.054688 175.941406 292.933594 174.546875 292.617188 173.144531 C 292.300781 171.75 290.90625 170.871094 289.507812 171.183594 C 286.222656 171.769531 282.941406 172.359375 279.6875 173.132812 C 272.140625 174.929688 264.710938 177.265625 257.371094 179.75 C 241.378906 185.148438 225.898438 191.589844 210.988281 197.089844 C 205.160156 199.253906 198.964844 201.960938 193.097656 205.199219 C 187.132812 208.492188 181.5 212.324219 176.898438 216.675781 C 175.894531 217.609375 175.835938 219.179688 176.769531 220.1875 C 177.699219 221.191406 179.269531 221.25 180.273438 220.320312 Z M 180.273438 220.320312 " fill-opacity="1" fill-rule="evenodd"/><path fill="#000000" d="M 288.882812 175.726562 C 290.441406 176.65625 292.84375 181.523438 295.453125 186.972656 C 299.167969 194.726562 302.847656 203.800781 303.867188 206.765625 C 309.375 222.710938 314.507812 238.730469 320.03125 254.640625 C 323.722656 265.257812 327.589844 275.824219 331.859375 286.285156 C 335.613281 295.480469 340.429688 304.265625 344.519531 313.347656 C 345.527344 315.589844 346.492188 317.84375 347.382812 320.132812 C 347.714844 320.996094 348.683594 321.429688 349.542969 321.097656 C 350.410156 320.765625 350.839844 319.796875 350.507812 318.933594 C 349.621094 316.582031 348.660156 314.257812 347.652344 311.953125 C 343.679688 302.875 338.96875 294.078125 335.328125 284.890625 C 331.191406 274.449219 327.460938 263.90625 323.898438 253.316406 C 318.535156 237.355469 313.570312 221.285156 308.226562 205.285156 C 307.0625 201.800781 302.425781 190.09375 298.210938 181.589844 C 295.644531 176.40625 293.015625 172.429688 291.441406 171.472656 C 290.269531 170.765625 288.742188 171.144531 288.039062 172.320312 C 287.332031 173.496094 287.710938 175.023438 288.882812 175.726562 Z M 288.882812 175.726562 " fill-opacity="1" fill-rule="evenodd"/><path fill="#000000" d="M 176.019531 219.460938 C 178.734375 227.128906 180.828125 233.152344 182.492188 238.019531 C 185.691406 247.375 187.304688 252.453125 188.675781 256.664062 C 195.714844 278.214844 202.523438 300.058594 210.488281 321.421875 C 215.816406 335.710938 221.660156 349.789062 228.429688 363.425781 C 228.871094 364.328125 229.964844 364.703125 230.863281 364.257812 C 231.765625 363.816406 232.136719 362.726562 231.695312 361.820312 C 225.109375 348.242188 219.449219 334.234375 214.300781 320.019531 C 206.554688 298.636719 199.960938 276.789062 193.136719 255.230469 C 191.792969 250.988281 190.222656 245.882812 187.097656 236.464844 C 185.472656 231.570312 183.425781 225.507812 180.773438 217.800781 C 180.316406 216.484375 178.878906 215.792969 177.566406 216.25 C 176.253906 216.710938 175.5625 218.148438 176.019531 219.460938 Z M 176.019531 219.460938 " fill-opacity="1" fill-rule="evenodd"/><path fill="#000000" d="M 231.382812 364.304688 L 271.8125 352.75 C 277.328125 351.089844 282.625 349.21875 287.777344 347.191406 C 308.625 339.011719 327.132812 328.5 349.246094 321.5 C 350.289062 321.179688 350.871094 320.074219 350.554688 319.035156 C 350.234375 317.992188 349.128906 317.40625 348.089844 317.722656 C 325.773438 324.351562 306.996094 334.527344 285.9375 342.382812 C 280.882812 344.265625 275.699219 346.019531 270.296875 347.550781 C 264.257812 349.28125 254.738281 351.734375 245.941406 354.335938 C 239.746094 356.171875 233.921875 358.113281 229.796875 359.59375 C 228.5 360.035156 227.800781 361.441406 228.238281 362.742188 C 228.675781 364.042969 230.082031 364.738281 231.382812 364.304688 Z M 231.382812 364.304688 " fill-opacity="1" fill-rule="evenodd"/><path fill="#000000" d="M 324.34375 306.769531 C 323.09375 307.441406 320.566406 308.523438 317.160156 309.90625 C 306.417969 314.253906 287.132812 321.324219 270.417969 327.464844 C 254.574219 333.285156 241.042969 338.265625 239.175781 338.867188 C 238.335938 339.136719 235.292969 340.960938 234.253906 339.660156 C 232.160156 337.039062 229.9375 331.410156 226.609375 323.128906 C 220.9375 309.027344 214.160156 290.144531 210.667969 281.179688 C 206.421875 270.238281 200.414062 250.375 192.785156 234.9375 C 189.046875 227.371094 184.886719 220.855469 180.40625 216.796875 C 179.386719 215.882812 177.816406 215.96875 176.902344 216.992188 C 175.988281 218.011719 176.078125 219.582031 177.097656 220.496094 C 182.476562 225.25 187.289062 233.832031 191.589844 243.3125 C 197.945312 257.328125 203.09375 273.320312 206.859375 282.683594 C 210.972656 292.957031 219.632812 316.261719 225.699219 330.453125 C 228.394531 336.765625 230.691406 341.332031 231.90625 342.472656 C 232.542969 343.074219 233.726562 343.441406 235.15625 343.402344 C 237.023438 343.351562 239.421875 342.714844 240.289062 342.453125 C 242.316406 341.84375 257.964844 336.589844 275.417969 330.394531 C 287.4375 326.125 300.304688 321.371094 310.226562 317.589844 C 317.523438 314.8125 323.230469 312.523438 325.863281 311.246094 C 327.808594 310.300781 328.550781 309.148438 328.644531 308.8125 C 329.808594 304.417969 329.019531 298.167969 327.070312 290.6875 C 324.269531 279.914062 319.160156 266.386719 314.457031 252.394531 C 310.507812 240.59375 304.390625 223.023438 299.375 205.253906 C 296.257812 194.210938 293.566406 183.09375 292.078125 173.246094 C 291.941406 172.328125 291.082031 171.691406 290.164062 171.828125 C 289.242188 171.964844 288.605469 172.824219 288.742188 173.746094 C 290.207031 183.726562 292.886719 195 295.992188 206.199219 C 300.945312 224.058594 306.976562 241.722656 310.878906 253.585938 C 315.449219 267.5 320.589844 280.917969 323.140625 291.664062 C 324.59375 297.808594 325.214844 303.007812 324.34375 306.769531 Z M 324.34375 306.769531 " fill-opacity="1" fill-rule="evenodd"/><path fill="#000000" d="M 280.761719 228.976562 C 280.75 229.015625 280.773438 229.089844 280.777344 229.125 L 280.761719 228.976562 C 280.761719 228.960938 280.773438 228.949219 280.792969 228.953125 C 281.054688 228.984375 280.65625 229.554688 280.539062 229.9375 C 280.066406 231.460938 279.40625 233.34375 279.15625 234.390625 C 278.898438 235.453125 278.976562 236.207031 279.171875 236.515625 C 279.921875 237.734375 280.871094 238.675781 281.855469 239.625 C 283.128906 240.859375 284.425781 242.078125 285.507812 243.457031 C 286.453125 244.660156 287.121094 246.074219 287.121094 248.042969 C 287.121094 249.300781 286.128906 250.007812 285.148438 250.742188 C 283.609375 251.898438 281.835938 252.945312 280.878906 254.410156 C 279.882812 255.9375 279.5 257.816406 280.628906 260.273438 C 281.1875 261.730469 282.296875 262.84375 283.757812 263.746094 C 285.664062 264.921875 288.257812 265.707031 290.640625 266.734375 C 292.527344 267.558594 294.3125 268.492188 295.078125 270.285156 C 296.308594 273.164062 297.429688 279.132812 296.570312 283.671875 C 296.511719 283.964844 296.449219 284.257812 296.371094 284.539062 C 292.339844 283.925781 288.71875 286.0625 287.832031 287.738281 C 287.121094 289.089844 287.265625 290.382812 288.203125 291.402344 C 288.804688 292.054688 290.085938 292.800781 292.441406 292.734375 C 294.832031 292.667969 296.660156 291.824219 297.996094 290.441406 C 299.492188 290.417969 302.644531 293.3125 303.417969 294.523438 C 304.15625 295.671875 306.035156 293.777344 306.230469 292.421875 C 306.449219 290.777344 305.808594 289.324219 304.464844 288.167969 C 303.386719 287.234375 301.730469 286.511719 300.378906 285.941406 C 300.515625 285.445312 300.625 284.933594 300.710938 284.402344 C 301.59375 279.050781 300.132812 272.074219 298.605469 268.726562 C 297.949219 267.28125 296.929688 266.144531 295.65625 265.230469 C 293.308594 263.542969 290.039062 262.667969 287.3125 261.550781 C 285.757812 260.910156 284.355469 260.28125 283.824219 258.996094 C 283.574219 258.292969 283.5625 257.71875 283.695312 257.226562 C 283.820312 256.785156 284.128906 256.449219 284.445312 256.109375 C 285.117188 255.378906 285.960938 254.71875 286.792969 254.054688 C 288.84375 252.414062 290.59375 250.609375 290.445312 247.953125 C 290.332031 245.890625 289.734375 244.285156 288.859375 242.917969 C 287.480469 240.761719 285.253906 239.351562 283.636719 237.367188 C 283.257812 236.902344 282.96875 236.378906 282.730469 235.824219 C 283.519531 235.898438 284.222656 233.324219 284.921875 231.960938 C 285.574219 230.703125 285.800781 229.480469 285.78125 228.761719 C 285.710938 226.953125 285.296875 225.074219 284.730469 223.164062 C 283.960938 220.566406 282.957031 217.886719 282.09375 215.3125 C 281.75 214.28125 281.375 213.296875 281.15625 212.296875 C 280.894531 210.808594 279.472656 209.808594 277.984375 210.070312 C 276.492188 210.328125 275.496094 211.753906 275.757812 213.242188 C 275.917969 214.453125 276.164062 215.695312 276.550781 216.929688 C 277.832031 221.03125 280.320312 225.105469 280.761719 228.976562 Z M 280.761719 228.976562 " fill-opacity="1" fill-rule="evenodd"/></svg>