<svg xmlns="http://www.w3.org/2000/svg" xmlns:xlink="http://www.w3.org/1999/xlink" width="1350" zoomAndPan="magnify" viewBox="0 0 1012.5 1012.499969" height="1350" preserveAspectRatio="xMidYMid meet" version="1.0"><defs><g/><clipPath id="id1"><path d="M 0 0 L 1012 0 L 1012 1012 L 0 1012 Z M 0 0 " clip-rule="nonzero"/></clipPath><clipPath id="id2"><path d="M 0 0 L 367.90625 0 L 367.90625 306 L 0 306 Z M 0 0 " clip-rule="nonzero"/></clipPath><clipPath id="id3"><path d="M 665 739 L 1012 739 L 1012 1012 L 665 1012 Z M 665 739 " clip-rule="nonzero"/></clipPath><clipPath id="id4"><path d="M 671 701.578125 L 1012 701.578125 L 1012 1012 L 671 1012 Z M 671 701.578125 " clip-rule="nonzero"/></clipPath><clipPath id="id5"><path d="M 101.25 101.25 L 911.25 101.25 L 911.25 911.25 L 101.25 911.25 Z M 101.25 101.25 " clip-rule="nonzero"/></clipPath><clipPath id="id6"><path d="M 253 443.863281 L 759.871094 443.863281 L 759.871094 911.113281 L 253 911.113281 Z M 253 443.863281 " clip-rule="nonzero"/></clipPath><clipPath id="id7"><path d="M 819.726562 9.726562 L 1002.726562 9.726562 L 1002.726562 192.726562 L 819.726562 192.726562 Z M 819.726562 9.726562 " clip-rule="nonzero"/></clipPath><clipPath id="id8"><path d="M 46.136719 756.378906 L 252.972656 756.378906 L 252.972656 962.054688 L 46.136719 962.054688 Z M 46.136719 756.378906 " clip-rule="nonzero"/></clipPath></defs><g clip-path="url(#id1)"><path fill="#ffffff" d="M 0 0 L 1012.5 0 L 1012.5 1020 L 0 1020 Z M 0 0 " fill-opacity="1" fill-rule="nonzero"/><path fill="#f1e2d2" d="M 0 0 L 1012.5 0 L 1012.5 1012.5 L 0 1012.5 Z M 0 0 " fill-opacity="1" fill-rule="nonzero"/><path fill="#ffffff" d="M 0 0 L 1012.5 0 L 1012.5 1012.5 L 0 1012.5 Z M 0 0 " fill-opacity="1" fill-rule="nonzero"/><path fill="#f1e2d2" d="M 0 0 L 1012.5 0 L 1012.5 1012.5 L 0 1012.5 Z M 0 0 " fill-opacity="1" fill-rule="nonzero"/></g><g clip-path="url(#id2)"><path fill="#ceb9a2" d="M -13.855469 0 L -13.855469 303.980469 C -9.171875 304.652344 -4.433594 305 0.230469 305.234375 C 36.707031 307.007812 74.277344 303.691406 107.363281 288.199219 C 140.425781 272.691406 168.480469 243.484375 175.878906 207.679688 C 181.679688 179.671875 175.339844 147.9375 191.3125 124.210938 C 208.886719 98.09375 244.609375 93.945312 274.285156 83.449219 C 314.632812 69.15625 348.640625 38.292969 367.675781 0 Z M -13.855469 0 " fill-opacity="1" fill-rule="nonzero"/></g><path fill="#ffffff" d="M 10.597656 341.054688 C 2.503906 341.691406 -5.683594 342.210938 -13.855469 342.175781 L -13.855469 347.921875 C -11.0625 347.921875 -8.304688 347.84375 -5.511719 347.75 C 36.996094 346.207031 81.195312 338.277344 117.402344 314.722656 C 148.480469 294.488281 173.644531 262.292969 178.886719 224.851562 C 181.777344 204.113281 178.539062 183.222656 179.964844 162.40625 C 180.679688 152.222656 182.703125 141.9375 187.5 132.835938 C 191.488281 125.273438 197.113281 118.828125 203.761719 113.484375 C 217.308594 102.527344 234.1875 96.355469 250.292969 90.222656 C 267.519531 83.644531 284.378906 76.738281 299.8125 66.457031 C 325.132812 49.578125 346 26.5625 360.625 0 L 354.054688 0 C 337.273438 29.300781 312.453125 53.957031 282.703125 69.984375 C 266.980469 78.453125 249.929688 83.816406 233.492188 90.625 C 217.960938 97.050781 202.238281 104.824219 190.988281 117.691406 C 162.796875 149.90625 180.253906 194.042969 171.757812 231.890625 C 163.511719 268.523438 136.089844 298.578125 103.683594 316.132812 C 84.683594 326.433594 63.875 332.953125 42.699219 336.90625 C 32.082031 338.894531 21.367188 340.226562 10.597656 341.054688 Z M 10.597656 341.054688 " fill-opacity="1" fill-rule="nonzero"/><g clip-path="url(#id3)"><path fill="#ceb9a2" d="M 1012.234375 1017.328125 L 1012.234375 741.519531 C 1007.972656 740.90625 1003.660156 740.589844 999.417969 740.382812 C 966.234375 738.769531 932.050781 741.78125 901.949219 755.835938 C 871.867188 769.910156 846.34375 796.40625 839.613281 828.894531 C 834.335938 854.308594 840.101562 883.097656 825.570312 904.628906 C 809.582031 928.328125 777.082031 932.089844 750.085938 941.609375 C 713.375 954.582031 682.433594 982.585938 665.113281 1017.328125 Z M 1012.234375 1017.328125 " fill-opacity="1" fill-rule="nonzero"/></g><g clip-path="url(#id4)"><path fill="#ffffff" d="M 989.988281 707.878906 C 997.351562 707.300781 1004.800781 706.828125 1012.234375 706.863281 L 1012.234375 701.648438 C 1009.691406 701.648438 1007.183594 701.71875 1004.644531 701.804688 C 965.972656 703.207031 925.757812 710.398438 892.816406 731.769531 C 864.539062 750.128906 841.644531 779.34375 836.878906 813.316406 C 834.246094 832.132812 837.191406 851.085938 835.894531 869.972656 C 835.246094 879.214844 833.40625 888.542969 829.042969 896.804688 C 825.414062 903.664062 820.292969 909.511719 814.246094 914.359375 C 801.921875 924.300781 786.566406 929.902344 771.910156 935.46875 C 756.238281 941.4375 740.898438 947.703125 726.855469 957.03125 C 703.820312 972.347656 684.835938 993.226562 671.53125 1017.328125 L 677.507812 1017.328125 C 692.777344 990.742188 715.355469 968.371094 742.421875 953.828125 C 756.726562 946.144531 772.242188 941.277344 787.195312 935.101562 C 801.324219 929.273438 815.628906 922.21875 825.867188 910.542969 C 851.515625 881.3125 835.632812 841.269531 843.363281 806.925781 C 850.867188 773.6875 875.8125 746.421875 905.296875 730.492188 C 922.582031 721.144531 941.515625 715.230469 960.78125 711.640625 C 970.441406 709.839844 980.1875 708.632812 989.988281 707.878906 Z M 989.988281 707.878906 " fill-opacity="1" fill-rule="nonzero"/></g><g clip-path="url(#id5)"><path fill="#847a73" d="M 103.371094 110.625 C 103.371094 106.644531 106.601562 103.417969 110.582031 103.417969 L 141.246094 103.417969 L 141.246094 101.25 L 110.625 101.25 C 105.453125 101.25 101.25 105.453125 101.25 110.625 L 101.25 129.523438 L 103.371094 129.523438 L 103.371094 110.625 M 106.734375 114.738281 C 106.734375 110.316406 110.316406 106.734375 114.738281 106.734375 L 141.246094 106.734375 L 141.246094 106.160156 L 114.738281 106.160156 C 110.007812 106.160156 106.160156 110.007812 106.160156 114.738281 L 106.160156 129.335938 L 106.734375 129.335938 L 106.734375 114.738281 M 101.25 129.335938 L 103.371094 129.335938 L 103.371094 890.109375 L 101.25 890.109375 L 101.25 129.335938 M 106.203125 129.335938 L 106.777344 129.335938 L 106.777344 890.109375 L 106.203125 890.109375 L 106.203125 129.335938 M 110.625 909.125 C 106.644531 909.125 103.417969 905.898438 103.417969 901.917969 L 103.417969 890.109375 L 101.25 890.109375 L 101.25 901.917969 C 101.25 907.09375 105.453125 911.292969 110.625 911.292969 L 141.570312 911.292969 L 141.570312 909.125 L 110.625 909.125 M 114.738281 905.765625 C 110.316406 905.765625 106.734375 902.183594 106.734375 897.761719 L 106.734375 890.109375 L 106.160156 890.109375 L 106.160156 897.761719 C 106.160156 902.492188 110.007812 906.339844 114.738281 906.339844 L 141.246094 906.339844 L 141.246094 905.765625 L 114.738281 905.765625 M 141.246094 909.125 L 834.625 909.125 L 834.625 911.25 L 141.246094 911.25 L 141.246094 909.125 M 141.246094 905.765625 L 834.625 905.765625 L 834.625 906.339844 L 141.246094 906.339844 L 141.246094 905.765625 M 909.125 890.109375 L 909.125 901.917969 C 909.125 905.898438 905.898438 909.125 901.917969 909.125 L 834.625 909.125 L 834.625 911.25 L 901.917969 911.25 C 907.09375 911.25 911.292969 907.046875 911.292969 901.875 L 911.292969 890.109375 L 909.125 890.109375 M 905.765625 897.761719 C 905.765625 902.183594 902.183594 905.765625 897.761719 905.765625 L 834.625 905.765625 L 834.625 906.339844 L 897.761719 906.339844 C 902.492188 906.339844 906.339844 902.492188 906.339844 897.761719 L 906.339844 890.109375 L 905.765625 890.109375 L 905.765625 897.761719 M 909.125 129.335938 L 911.25 129.335938 L 911.25 890.109375 L 909.125 890.109375 L 909.125 129.335938 M 905.765625 129.335938 L 906.339844 129.335938 L 906.339844 890.109375 L 905.765625 890.109375 L 905.765625 129.335938 M 901.917969 103.371094 C 905.898438 103.371094 909.125 106.601562 909.125 110.582031 L 909.125 129.335938 L 911.25 129.335938 L 911.25 110.625 C 911.25 105.453125 907.046875 101.25 901.875 101.25 L 834.304688 101.25 L 834.304688 103.371094 L 901.917969 103.371094 M 897.761719 106.203125 L 834.625 106.203125 L 834.625 106.777344 L 897.761719 106.777344 C 902.183594 106.777344 905.765625 110.363281 905.765625 114.785156 L 905.765625 129.523438 L 906.339844 129.523438 L 906.339844 114.738281 C 906.339844 110.007812 902.492188 106.203125 897.761719 106.203125 M 141.246094 101.25 L 834.625 101.25 L 834.625 103.371094 L 141.246094 103.371094 L 141.246094 101.25 M 141.246094 106.203125 L 834.625 106.203125 L 834.625 106.777344 L 141.246094 106.777344 L 141.246094 106.203125 " fill-opacity="1" fill-rule="nonzero"/></g><g clip-path="url(#id6)"><path fill="#000000" d="M 600.453125 469.808594 C 604.242188 469.808594 611.707031 458.789062 611.707031 453.21875 C 611.707031 458.789062 619.171875 469.808594 622.964844 469.808594 C 619.171875 469.808594 611.707031 480.828125 611.707031 486.398438 C 611.707031 480.828125 604.125 469.808594 600.453125 469.808594 Z M 546.183594 570.292969 C 542.390625 570.292969 534.925781 559.273438 534.925781 553.703125 C 534.925781 559.273438 527.460938 570.292969 523.671875 570.292969 C 527.460938 570.292969 534.925781 581.3125 534.925781 586.882812 C 534.925781 581.3125 542.390625 570.292969 546.183594 570.292969 Z M 446.890625 435.917969 C 446.890625 430.347656 454.355469 419.328125 458.144531 419.328125 C 454.355469 419.328125 446.890625 408.308594 446.890625 402.738281 C 446.890625 408.308594 439.425781 419.328125 435.632812 419.328125 C 439.425781 419.449219 446.890625 430.46875 446.890625 435.917969 Z M 758.515625 574.203125 C 757.332031 573.019531 755.199219 573.019531 753.539062 573.847656 C 752.355469 574.441406 751.289062 575.390625 750.339844 576.457031 C 749.984375 576.21875 749.628906 575.980469 749.273438 575.863281 C 744.058594 573.847656 737.425781 582.855469 734.582031 586.171875 C 729.722656 591.859375 725.8125 597.785156 721.664062 603.945312 C 717.519531 609.988281 712.542969 615.320312 708.394531 621.246094 C 704.246094 627.171875 701.285156 633.6875 696.546875 639.257812 C 691.6875 644.945312 686.355469 649.804688 680.785156 654.898438 C 675.097656 660.230469 669.53125 665.683594 663.722656 670.898438 C 660.523438 673.742188 657.445312 676.585938 654.246094 679.429688 C 652.46875 681.085938 649.980469 683.929688 647.253906 683.339844 C 648.203125 678.71875 652.941406 674.453125 656.261719 671.253906 C 661 666.75 665.859375 662.484375 670.597656 658.097656 C 675.097656 654.070312 680.074219 650.277344 683.984375 645.65625 C 687.539062 641.390625 689.4375 635.703125 692.042969 630.726562 C 696.78125 621.601562 702.113281 612.597656 707.445312 603.710938 C 711.59375 596.835938 717.753906 588.542969 718.820312 580.128906 C 720.835938 576.8125 722.613281 573.492188 723.441406 569.820312 C 723.796875 568.277344 723.917969 566.5 722.730469 565.433594 C 721.664062 564.367188 719.652344 564.367188 718.109375 565.078125 C 716.570312 565.789062 715.503906 567.09375 714.554688 568.277344 C 714.4375 568.398438 714.320312 568.515625 714.320312 568.632812 C 712.898438 568.398438 711.710938 569.226562 710.410156 569.9375 C 706.261719 572.425781 703.179688 576.457031 699.980469 580.128906 C 692.871094 588.304688 686.355469 596.957031 679.246094 605.132812 C 665.148438 621.484375 650.691406 637.71875 634.578125 652.054688 C 626.402344 659.402344 617.160156 665.800781 608.390625 672.320312 C 600.214844 678.363281 592.75 685.351562 584.691406 691.398438 C 582.324219 688.199219 591.683594 677.53125 593.460938 674.808594 C 597.371094 669 601.398438 664.378906 607.085938 660.230469 C 612.417969 656.320312 617.515625 652.765625 621.542969 647.554688 C 624.859375 643.289062 628.535156 636.769531 627.113281 631.082031 C 626.875 630.253906 626.636719 629.542969 626.28125 628.949219 C 628.414062 627.171875 630.429688 625.15625 632.207031 623.023438 C 633.511719 621.367188 634.695312 619.351562 634.101562 617.574219 C 633.511719 615.914062 631.140625 615.085938 629.007812 615.320312 C 626.875 615.558594 624.859375 616.625 622.847656 617.691406 C 619.527344 619.589844 616.210938 621.484375 613.128906 623.617188 C 609.929688 625.867188 607.207031 628.121094 605.429688 631.082031 C 601.398438 633.6875 597.726562 636.296875 595.710938 637.597656 C 589.667969 641.273438 583.746094 644 579.359375 649.804688 C 575.570312 654.898438 572.015625 660.230469 567.867188 665.089844 C 563.246094 670.421875 558.386719 675.042969 554.476562 681.085938 C 550.449219 687.132812 549.144531 693.886719 547.132812 700.757812 C 542.984375 715.097656 538.246094 729.078125 535.28125 743.652344 C 532.558594 757.042969 530.304688 771.144531 529.714844 784.652344 C 529.003906 799.109375 530.78125 813.804688 532.558594 828.140625 C 534.214844 842.003906 534.925781 856.34375 534.691406 870.324219 C 534.453125 885.257812 533.742188 900.304688 532.792969 915.234375 C 532.320312 922.464844 531.609375 929.691406 531.136719 936.921875 C 530.660156 943.554688 528.292969 951.140625 529.476562 957.777344 C 530.304688 962.988281 531.492188 955.523438 531.726562 953.628906 C 532.082031 950.074219 532.4375 946.519531 532.792969 942.84375 C 533.503906 935.617188 533.859375 928.269531 534.335938 921.042969 C 535.402344 906.941406 536.46875 892.722656 536.46875 878.621094 C 536.46875 864.046875 535.992188 849.589844 535.164062 835.015625 C 534.335938 821.386719 531.847656 807.761719 531.609375 794.132812 C 531.253906 779.792969 533.859375 765.339844 536.230469 751.238281 C 538.601562 736.898438 542.746094 723.152344 547.132812 709.171875 C 549.027344 703.128906 550.804688 697.085938 552.464844 691.042969 C 554.121094 685.117188 557.914062 680.257812 561.824219 675.636719 C 565.972656 670.660156 570.238281 665.921875 574.265625 660.824219 C 578.175781 655.964844 581.492188 649.6875 586.707031 646.132812 C 592.15625 642.339844 598.082031 639.257812 603.769531 635.820312 C 603.886719 638.191406 605.785156 640.324219 609.101562 639.851562 C 611.117188 639.613281 612.894531 638.429688 614.550781 637.363281 C 617.988281 635.109375 621.304688 632.859375 624.503906 630.371094 C 626.402344 633.808594 623.914062 639.613281 622.371094 642.457031 C 619.171875 648.382812 614.433594 652.292969 608.984375 656.203125 C 603.53125 660.113281 598.675781 663.550781 594.765625 669.121094 C 590.617188 674.925781 585.996094 680.96875 582.914062 687.488281 C 582.203125 689.144531 580.308594 693.648438 582.914062 694.597656 C 584.335938 695.1875 588.484375 690.921875 589.90625 689.855469 C 595.121094 685.828125 600.097656 681.324219 605.429688 677.296875 C 615.972656 669.121094 627.46875 662.007812 637.183594 652.765625 C 647.492188 643.167969 657.324219 633.097656 666.804688 622.667969 C 676.285156 612.242188 685.40625 601.101562 694.414062 590.320312 C 698.558594 585.222656 702.46875 579.535156 707.210938 575.035156 C 708.277344 573.96875 710.289062 571.953125 712.066406 571.242188 C 711.238281 572.425781 710.410156 573.613281 709.699219 574.796875 C 707.683594 577.878906 706.5 580.839844 706.855469 584.277344 C 707.089844 586.882812 709.933594 589.015625 712.898438 587.59375 C 713.726562 587.121094 714.4375 586.527344 715.03125 585.699219 C 713.609375 589.253906 711.59375 592.6875 709.816406 595.652344 C 706.144531 601.8125 702.589844 607.976562 699.035156 614.136719 C 695.480469 620.179688 691.6875 626.105469 688.605469 632.386719 C 685.527344 638.664062 683.039062 643.523438 677.824219 648.265625 C 668.226562 656.914062 657.207031 665.328125 648.914062 675.28125 C 647.375 677.058594 644.175781 680.96875 644.410156 683.457031 C 644.648438 686.417969 647.375 686.539062 649.507812 685.589844 C 655.074219 683.101562 660.523438 676.820312 665.027344 672.675781 C 670.121094 667.933594 675.21875 663.074219 680.3125 658.21875 C 684.933594 653.832031 690.265625 650.042969 694.53125 645.183594 C 696.902344 642.457031 699.625 639.730469 701.757812 636.769531 C 703.773438 633.925781 704.839844 630.488281 706.855469 627.527344 C 710.644531 621.957031 714.792969 616.507812 718.941406 611.175781 C 726.996094 600.746094 733.160156 587.476562 744.058594 579.417969 C 745.957031 577.996094 747.378906 577.878906 748.445312 578.46875 C 746.667969 580.601562 745.007812 582.855469 743.46875 585.105469 C 741.097656 588.542969 739.558594 591.976562 739.675781 595.890625 C 739.792969 598.851562 742.757812 601.339844 746.074219 599.5625 C 746.429688 599.445312 746.667969 599.207031 747.023438 598.96875 C 745.71875 601.339844 744.296875 603.710938 742.875 605.84375 C 739.082031 611.648438 734.816406 616.980469 730.671875 622.550781 C 726.996094 627.410156 724.152344 633.453125 721.191406 638.785156 C 718.109375 644.117188 714.554688 649.566406 712.777344 655.492188 C 710.882812 661.652344 708.988281 667.222656 704.484375 672.199219 C 699.980469 677.296875 694.414062 681.324219 689.199219 685.589844 C 684.222656 689.855469 680.074219 695.1875 675.335938 699.808594 C 673.558594 701.585938 668.820312 704.550781 667.988281 706.800781 C 666.6875 710.476562 671.070312 707.273438 672.253906 706.207031 C 677.113281 701.585938 681.496094 696.609375 686.238281 691.871094 C 695.359375 682.746094 707.800781 675.875 712.898438 663.433594 C 715.265625 657.625 716.570312 651.9375 719.769531 646.367188 C 722.851562 641.15625 725.21875 634.398438 729.484375 630.132812 C 735.292969 655.964844 722.140625 680.019531 706.617188 699.808594 C 702.46875 705.140625 698.085938 710.121094 693.9375 715.570312 C 692.160156 717.941406 690.382812 720.308594 688.605469 722.679688 C 688.132812 723.390625 684.339844 727.65625 687.304688 727.417969 C 688.960938 727.300781 691.804688 722.5625 692.753906 721.375 C 694.769531 718.769531 696.664062 716.164062 698.558594 713.4375 C 701.640625 709.171875 705.195312 703.246094 709.460938 700.046875 C 711.355469 706.328125 712.660156 713.910156 710.054688 720.191406 C 707.210938 727.0625 701.757812 733.226562 697.492188 739.269531 C 693.226562 745.195312 689.082031 751.117188 685.289062 757.398438 C 681.617188 763.679688 678.296875 770.789062 673.558594 776.476562 C 669.53125 781.335938 665.621094 785.601562 661.234375 789.984375 C 650.097656 801.125 637.894531 811.195312 625.214844 820.558594 C 619.054688 825.058594 613.25 829.445312 609.695312 836.4375 C 606.496094 842.835938 605.664062 850.417969 604.597656 857.410156 C 599.859375 887.980469 601.28125 918.671875 601.992188 949.480469 C 601.992188 950.785156 601.398438 958.605469 603.652344 958.011719 C 604.953125 957.65625 604.363281 951.851562 604.363281 950.546875 C 604.363281 942.488281 604.242188 934.433594 603.652344 926.492188 C 603.296875 919.5 602.585938 912.390625 602.820312 905.402344 C 603.058594 897.582031 603.886719 889.757812 604.242188 881.9375 C 604.597656 874.828125 605.308594 867.835938 606.375 860.847656 C 607.441406 853.855469 608.035156 846.269531 610.761719 839.636719 C 616.09375 826.957031 629.125 821.503906 639.199219 813.09375 C 650.570312 803.496094 662.066406 793.304688 671.898438 782.164062 C 681.496094 771.382812 687.183594 757.875 695.480469 746.023438 C 703.300781 734.886719 714.4375 723.984375 713.964844 709.527344 C 713.964844 707.628906 713.84375 705.496094 713.371094 703.601562 C 713.015625 702.0625 712.066406 700.640625 711.949219 698.980469 C 711.59375 695.78125 714.4375 693.886719 715.976562 691.515625 C 720.125 685.589844 723.324219 678.835938 726.167969 672.199219 C 729.128906 665.328125 731.738281 658.691406 732.566406 651.226562 C 733.394531 643.523438 732.210938 636.296875 731.617188 628.59375 C 731.261719 624.566406 733.515625 622.90625 735.882812 619.824219 C 738.253906 616.863281 740.269531 613.664062 742.402344 610.582031 C 746.3125 604.894531 750.339844 598.96875 752.234375 592.214844 C 755.078125 588.066406 757.6875 583.800781 758.871094 579.0625 C 759.464844 577.523438 759.699219 575.390625 758.515625 574.203125 Z M 479.355469 868.785156 C 478.527344 853.855469 477.816406 838.925781 477.578125 823.875 C 477.339844 809.894531 478.171875 795.554688 479.710938 781.691406 C 481.371094 767.351562 483.265625 752.660156 482.554688 738.203125 C 481.960938 724.574219 479.710938 710.472656 476.984375 697.085938 C 474.023438 682.507812 469.285156 668.410156 465.136719 654.1875 C 463.121094 647.316406 461.820312 640.5625 457.789062 634.398438 C 453.878906 628.476562 449.023438 623.734375 444.519531 618.402344 C 440.371094 613.542969 436.816406 608.210938 433.027344 603.117188 C 428.761719 597.191406 422.835938 594.585938 416.675781 590.792969 C 414.660156 589.488281 410.988281 586.882812 406.957031 584.277344 C 405.0625 581.3125 402.457031 578.945312 399.257812 576.8125 C 396.058594 574.679688 392.859375 572.664062 389.539062 570.769531 C 387.644531 569.699219 385.511719 568.632812 383.378906 568.398438 C 381.246094 568.160156 378.875 568.871094 378.285156 570.648438 C 377.691406 572.425781 378.875 574.441406 380.179688 576.101562 C 381.957031 578.234375 383.851562 580.246094 386.105469 582.023438 C 385.75 582.617188 385.511719 583.328125 385.273438 584.15625 C 383.734375 589.726562 387.527344 596.363281 390.84375 600.628906 C 394.871094 605.960938 399.96875 609.515625 405.300781 613.425781 C 410.988281 617.574219 415.015625 622.195312 418.808594 628 C 420.585938 630.726562 429.945312 641.390625 427.574219 644.589844 C 419.519531 638.429688 412.054688 631.554688 403.878906 625.394531 C 395.109375 618.757812 385.867188 612.359375 377.691406 605.011719 C 361.578125 590.554688 347.121094 574.324219 333.140625 557.96875 C 326.148438 549.792969 319.632812 541.023438 312.523438 532.96875 C 309.324219 529.414062 306.359375 525.265625 302.09375 522.777344 C 300.792969 521.945312 299.605469 521.234375 298.183594 521.355469 C 298.066406 521.234375 297.949219 521.117188 297.949219 521 C 296.882812 519.695312 295.816406 518.511719 294.394531 517.800781 C 292.851562 517.089844 290.957031 517.089844 289.773438 518.15625 C 288.585938 519.222656 288.707031 521 289.0625 522.539062 C 289.890625 526.214844 291.667969 529.53125 293.683594 532.847656 C 294.75 541.378906 300.910156 549.558594 305.058594 556.429688 C 310.269531 565.316406 315.601562 574.324219 320.460938 583.445312 C 323.066406 588.421875 324.84375 594.113281 328.519531 598.378906 C 332.308594 603 337.40625 606.910156 341.789062 610.9375 C 346.648438 615.320312 351.503906 619.589844 356.125 624.089844 C 359.445312 627.289062 364.183594 631.554688 365.132812 636.175781 C 362.40625 636.769531 359.917969 633.925781 358.140625 632.265625 C 354.941406 629.421875 351.859375 626.578125 348.78125 623.734375 C 342.972656 618.523438 337.40625 613.070312 331.71875 607.738281 C 326.265625 602.644531 320.816406 597.902344 316.078125 592.097656 C 311.457031 586.527344 308.492188 580.011719 304.347656 574.085938 C 300.199219 568.160156 295.105469 562.828125 291.074219 556.785156 C 286.929688 550.625 283.019531 544.699219 278.160156 539.011719 C 275.316406 535.691406 268.679688 526.570312 263.46875 528.703125 C 263.113281 528.820312 262.636719 529.058594 262.402344 529.292969 C 261.453125 528.464844 260.386719 527.515625 259.203125 526.804688 C 257.542969 525.976562 255.292969 525.976562 254.226562 527.160156 C 253.039062 528.464844 253.277344 530.480469 253.75 532.136719 C 255.054688 536.757812 257.542969 541.144531 260.386719 545.289062 C 262.28125 552.046875 266.3125 557.96875 270.101562 563.65625 C 272.234375 566.738281 274.367188 569.9375 276.621094 572.902344 C 278.988281 575.980469 281.242188 577.640625 280.886719 581.667969 C 280.292969 589.371094 278.988281 596.601562 279.820312 604.300781 C 280.648438 611.765625 283.253906 618.523438 286.21875 625.277344 C 289.0625 631.910156 292.378906 638.664062 296.40625 644.589844 C 298.066406 646.960938 300.792969 648.855469 300.4375 652.054688 C 300.316406 653.597656 299.371094 655.136719 299.015625 656.675781 C 298.539062 658.574219 298.421875 660.707031 298.421875 662.601562 C 297.949219 677.058594 309.085938 687.960938 316.90625 699.097656 C 325.082031 710.949219 330.769531 724.457031 340.367188 735.359375 C 350.320312 746.496094 361.695312 756.6875 373.070312 766.285156 C 383.023438 774.699219 396.058594 780.148438 401.390625 792.828125 C 404.234375 799.464844 404.707031 807.050781 405.773438 814.039062 C 406.839844 821.148438 407.550781 828.023438 407.789062 835.132812 C 408.144531 842.953125 408.855469 850.773438 409.089844 858.59375 C 409.328125 865.585938 408.617188 872.695312 408.261719 879.6875 C 407.789062 887.746094 407.550781 895.800781 407.550781 903.742188 C 407.550781 905.164062 406.957031 910.96875 408.261719 911.207031 C 410.511719 911.800781 409.921875 903.980469 409.921875 902.675781 C 410.632812 871.867188 412.054688 841.175781 407.433594 810.605469 C 406.367188 803.613281 405.535156 796.027344 402.335938 789.628906 C 398.78125 782.757812 392.976562 778.253906 386.816406 773.75 C 374.136719 764.390625 361.933594 754.316406 350.792969 743.0625 C 346.410156 738.675781 342.382812 734.292969 338.472656 729.550781 C 333.851562 723.863281 330.53125 716.875 326.859375 710.472656 C 323.1875 704.195312 318.921875 698.269531 314.773438 692.34375 C 310.507812 686.300781 305.175781 680.140625 302.214844 673.148438 C 299.605469 666.867188 300.910156 659.285156 302.804688 653.003906 C 307.070312 656.203125 310.625 662.128906 313.589844 666.511719 C 315.484375 669.238281 317.378906 671.84375 319.394531 674.453125 C 320.34375 675.636719 323.1875 680.375 324.84375 680.496094 C 327.808594 680.613281 324.132812 676.347656 323.542969 675.753906 C 321.882812 673.386719 319.988281 671.015625 318.210938 668.644531 C 314.179688 663.3125 309.796875 658.21875 305.648438 652.886719 C 290.246094 633.097656 277.09375 609.042969 282.898438 583.210938 C 287.164062 587.476562 289.535156 594.230469 292.617188 599.445312 C 295.816406 604.894531 297.117188 610.699219 299.488281 616.507812 C 304.582031 628.832031 317.023438 635.820312 326.148438 644.945312 C 330.886719 649.6875 335.152344 654.78125 340.128906 659.285156 C 341.316406 660.351562 345.582031 663.667969 344.394531 659.875 C 343.566406 657.625 338.828125 654.542969 337.050781 652.886719 C 332.308594 648.265625 328.164062 642.8125 323.1875 638.664062 C 317.972656 634.28125 312.523438 630.253906 307.902344 625.15625 C 303.515625 620.179688 301.621094 614.609375 299.605469 608.449219 C 297.828125 602.523438 294.273438 597.074219 291.195312 591.742188 C 288.230469 586.410156 285.386719 580.367188 281.714844 575.507812 C 277.566406 569.9375 273.300781 564.605469 269.511719 558.800781 C 268.089844 556.546875 266.667969 554.296875 265.363281 551.808594 C 265.71875 552.046875 265.957031 552.28125 266.3125 552.402344 C 269.628906 554.179688 272.710938 551.691406 272.710938 548.726562 C 272.828125 544.699219 271.289062 541.378906 268.917969 537.824219 C 267.378906 535.574219 265.71875 533.324219 263.941406 531.191406 C 265.007812 530.597656 266.429688 530.714844 268.324219 532.136719 C 279.226562 540.195312 285.386719 553.46875 293.445312 563.894531 C 297.59375 569.226562 301.738281 574.679688 305.53125 580.246094 C 307.546875 583.210938 308.613281 586.644531 310.625 589.488281 C 312.757812 592.453125 315.484375 595.175781 317.855469 597.902344 C 322.121094 602.761719 327.332031 606.554688 331.953125 610.9375 C 337.050781 615.796875 342.144531 620.535156 347.238281 625.394531 C 351.625 629.542969 357.074219 635.820312 362.761719 638.308594 C 364.894531 639.257812 367.621094 639.140625 367.855469 636.175781 C 368.09375 633.6875 364.894531 629.777344 363.355469 628 C 355.058594 618.046875 344.039062 609.632812 334.5625 600.984375 C 329.347656 596.246094 326.859375 591.386719 323.898438 585.105469 C 321.054688 579.417969 317.261719 573.492188 313.707031 567.449219 C 310.152344 561.289062 306.597656 555.007812 302.925781 548.964844 C 301.148438 546 299.132812 542.566406 297.710938 539.011719 C 298.304688 539.722656 298.894531 540.433594 299.84375 540.90625 C 302.804688 542.445312 305.648438 540.3125 305.886719 537.707031 C 306.242188 534.152344 305.058594 531.308594 303.042969 528.226562 C 302.332031 527.042969 301.503906 525.859375 300.671875 524.671875 C 302.449219 525.382812 304.464844 527.398438 305.53125 528.464844 C 310.269531 532.96875 314.179688 538.773438 318.328125 543.75 C 327.332031 554.652344 336.339844 565.789062 345.816406 576.21875 C 355.296875 586.644531 365.25 596.71875 375.441406 606.316406 C 385.15625 615.558594 396.648438 622.667969 407.195312 630.84375 C 412.410156 634.875 417.386719 639.375 422.597656 643.40625 C 424.019531 644.472656 428.167969 648.738281 429.589844 648.144531 C 432.078125 647.199219 430.300781 642.578125 429.589844 641.035156 C 426.507812 634.519531 421.886719 628.476562 417.859375 622.667969 C 413.949219 617.097656 409.089844 613.664062 403.640625 609.753906 C 398.191406 605.84375 393.449219 601.933594 390.371094 596.007812 C 388.828125 593.164062 386.339844 587.355469 388.238281 583.921875 C 391.4375 586.410156 394.753906 588.660156 398.191406 590.910156 C 399.847656 591.976562 401.625 593.164062 403.640625 593.398438 C 406.957031 593.875 408.855469 591.859375 408.972656 589.371094 C 414.660156 592.808594 420.464844 595.890625 425.917969 599.679688 C 431.128906 603.234375 434.449219 609.515625 438.359375 614.375 C 442.386719 619.46875 446.652344 624.328125 450.800781 629.1875 C 454.710938 633.808594 458.5 638.664062 460.160156 644.589844 C 461.820312 650.632812 463.597656 656.675781 465.375 662.71875 C 469.640625 676.585938 473.785156 690.332031 476.15625 704.785156 C 478.527344 718.886719 481.015625 733.34375 480.660156 747.683594 C 480.304688 761.308594 477.816406 774.9375 476.984375 788.5625 C 476.039062 803.136719 475.5625 817.59375 475.5625 832.171875 C 475.5625 846.390625 476.628906 860.492188 477.695312 874.589844 C 478.289062 881.820312 478.527344 889.167969 479.238281 896.394531 C 479.59375 899.949219 479.949219 903.625 480.304688 907.179688 C 480.539062 908.957031 481.605469 916.421875 482.554688 911.324219 C 483.621094 904.691406 481.25 897.105469 480.894531 890.46875 C 480.421875 883.242188 479.710938 876.015625 479.355469 868.785156 Z M 479.355469 868.785156 " fill-opacity="1" fill-rule="nonzero"/></g><g clip-path="url(#id7)"><path fill="#000000" d="M 884.238281 74.238281 C 910.332031 48.144531 911.101562 15.910156 911.125 9.726562 C 911.171875 15.992188 912.050781 48.199219 938.15625 74.300781 C 964.261719 100.398438 996.464844 101.285156 1002.730469 101.332031 C 996.546875 101.359375 964.3125 102.125 938.21875 128.21875 C 933.847656 132.589844 911.492188 155.828125 911.332031 192.730469 C 911.285156 186.464844 910.40625 154.257812 884.300781 128.15625 C 858.195312 102.054688 825.992188 101.171875 819.726562 101.125 C 825.910156 101.105469 858.144531 100.332031 884.238281 74.238281 Z M 884.238281 74.238281 " fill-opacity="1" fill-rule="nonzero"/></g><g fill="#122a36" fill-opacity="1"><g transform="translate(139.57031, 330.681075)"><g><path d="M 32.9375 0 C 48.492188 0 51.96875 -11.285156 51.96875 -17.382812 C 51.96875 -23.179688 48.859375 -33.609375 35.316406 -34.707031 C 45.136719 -36.234375 47.761719 -43.917969 47.761719 -47.515625 C 47.761719 -51.542969 46.113281 -60.996094 31.597656 -60.996094 L 4.878906 -60.996094 L 4.878906 0 Z M 9.699219 -5.367188 C 9.699219 -6.222656 9.699219 -17.933594 9.757812 -30.683594 C 9.757812 -32.511719 10.980469 -33.730469 12.808594 -33.730469 L 27.570312 -33.730469 C 39.769531 -33.730469 46.175781 -27.328125 46.175781 -17.382812 C 46.175781 -7.441406 39.769531 -1.21875 27.570312 -1.21875 L 12.929688 -1.21875 C 10.734375 -1.21875 9.699219 -2.074219 9.699219 -5.367188 Z M 9.757812 -56.851562 C 10.003906 -59.167969 11.039062 -59.777344 12.929688 -59.777344 L 27.9375 -59.777344 C 37.511719 -59.777344 42.699219 -54.53125 42.699219 -47.699219 C 42.699219 -40.808594 37.511719 -34.953125 27.9375 -34.953125 L 12.808594 -34.953125 C 10.980469 -34.953125 9.757812 -36.171875 9.757812 -38 Z M 9.757812 -56.851562 "/></g></g></g><g fill="#122a36" fill-opacity="1"><g transform="translate(194.344815, 330.681075)"><g><path d="M 6.585938 0 L 9.820312 -11.40625 C 10.371094 -13.359375 11.832031 -15.980469 13.175781 -16.957031 C 16.714844 -19.519531 20.554688 -20.738281 24.460938 -20.738281 C 31.351562 -20.738281 40.503906 -16.652344 43.492188 -9.941406 L 47.945312 0 L 53.3125 0 L 26.105469 -60.996094 L 20.738281 -60.996094 L 22.019531 -58.128906 L 1.21875 0 Z M 13.238281 -23.117188 L 21.898438 -53.25 C 22.203125 -54.226562 22.570312 -54.714844 22.996094 -54.714844 C 23.363281 -54.714844 23.789062 -54.289062 24.15625 -53.433594 L 39.890625 -18.175781 C 40.625 -16.53125 40.257812 -16.226562 38.855469 -17.382812 C 34.21875 -21.167969 28.363281 -23.910156 22.628906 -23.910156 C 19.945312 -23.910156 17.324219 -23.300781 14.882812 -21.960938 C 14.273438 -21.652344 13.847656 -21.472656 13.542969 -21.472656 C 12.992188 -21.472656 12.929688 -22.019531 13.238281 -23.117188 Z M 13.238281 -23.117188 "/></g></g></g><g fill="#122a36" fill-opacity="1"><g transform="translate(247.838395, 330.681075)"><g><path d="M 3.050781 -30.5 C 3.050781 -11.46875 16.714844 1.21875 33.488281 1.21875 C 43.917969 1.21875 53.921875 -2.011719 56.910156 -6.527344 L 56.910156 -13.359375 C 52.214844 -6.648438 43.0625 0 33.488281 0 C 19.398438 0 7.929688 -12.199219 7.929688 -30.5 C 7.929688 -48.796875 19.398438 -60.996094 33.488281 -60.996094 C 43.917969 -60.996094 52.824219 -53.800781 53.738281 -46.96875 C 53.738281 -46.96875 56.484375 -46.847656 56.484375 -50.324219 C 56.484375 -58.191406 44.527344 -62.21875 33.488281 -62.21875 C 16.714844 -62.21875 3.050781 -49.53125 3.050781 -30.5 Z M 3.050781 -30.5 "/></g></g></g><g fill="#122a36" fill-opacity="1"><g transform="translate(307.736569, 330.681075)"><g><path d="M 4.878906 0 L 9.757812 0 C 9.757812 0 9.699219 -14.699219 9.699219 -29.15625 C 9.699219 -31.046875 10.492188 -32.144531 12.445312 -32.207031 L 12.929688 -32.207031 C 22.019531 -32.207031 32.816406 -6.34375 42.515625 0 L 49.714844 0 C 46.601562 -2.195312 41.355469 -7.5625 37.027344 -13.785156 C 28.667969 -25.742188 24.03125 -33.242188 16.226562 -33.242188 L 14.945312 -33.242188 C 13.113281 -33.242188 12.871094 -34.035156 14.335938 -35.132812 L 47.820312 -60.996094 L 40.199219 -60.996094 C 32.207031 -53.3125 21.898438 -43.429688 12.015625 -34.828125 C 11.46875 -34.339844 11.039062 -34.160156 10.675781 -34.160156 C 10.066406 -34.160156 9.699219 -34.707031 9.699219 -35.867188 L 9.699219 -60.996094 L 4.878906 -60.996094 Z M 4.878906 0 "/></g></g></g><g fill="#122a36" fill-opacity="1"><g transform="translate(358.668332, 330.681075)"><g/></g></g><g fill="#122a36" fill-opacity="1"><g transform="translate(376.967158, 330.681075)"><g><path d="M 3.660156 -60.996094 L 3.660156 -55.570312 C 8.660156 -57.765625 19.152344 -59.777344 21.472656 -59.777344 C 23.667969 -59.777344 24.703125 -58.921875 24.703125 -55.628906 L 24.703125 0 L 29.582031 0 L 29.582031 -55.628906 C 29.582031 -58.921875 30.621094 -59.777344 32.816406 -59.777344 C 35.132812 -59.777344 45.625 -57.765625 50.628906 -55.570312 L 50.628906 -60.996094 Z M 3.660156 -60.996094 "/></g></g></g><g fill="#122a36" fill-opacity="1"><g transform="translate(431.253688, 330.681075)"><g><path d="M 33.488281 1.21875 C 50.261719 1.21875 63.988281 -11.46875 63.988281 -30.5 C 63.988281 -49.53125 50.261719 -62.21875 33.488281 -62.21875 C 16.714844 -62.21875 3.050781 -49.53125 3.050781 -30.5 C 3.050781 -11.46875 16.714844 1.21875 33.488281 1.21875 Z M 7.929688 -30.5 C 7.929688 -48.796875 19.398438 -60.996094 33.488281 -60.996094 C 47.578125 -60.996094 59.105469 -48.796875 59.105469 -30.5 C 59.105469 -12.199219 47.578125 0 33.488281 0 C 19.398438 0 7.929688 -12.199219 7.929688 -30.5 Z M 7.929688 -30.5 "/></g></g></g><g fill="#122a36" fill-opacity="1"><g transform="translate(498.288408, 330.681075)"><g/></g></g><g fill="#122a36" fill-opacity="1"><g transform="translate(516.587256, 330.681075)"><g><path d="M 3.355469 -12.871094 C 3.355469 -4.515625 13.601562 1.21875 28.546875 1.21875 C 40.746094 1.21875 53.007812 -4.515625 53.007812 -16.957031 C 53.007812 -42.210938 8.601562 -29.277344 8.601562 -46.054688 C 8.601562 -55.75 15.921875 -60.996094 27.449219 -60.996094 C 37.574219 -60.996094 46.785156 -55.996094 48.554688 -47.515625 C 50.324219 -48.128906 50.992188 -49.652344 50.992188 -51.542969 C 50.992188 -59.289062 38.183594 -62.21875 28.484375 -62.21875 C 17.078125 -62.21875 4.269531 -57.644531 4.269531 -45.75 C 4.269531 -21.53125 48.613281 -38.0625 48.613281 -15.25 C 48.613281 -5.183594 39.097656 0 28.546875 0 C 17.8125 0 8.050781 -6.710938 8.050781 -13.296875 C 8.050781 -15.1875 8.722656 -16.714844 10.492188 -17.324219 C 9.636719 -18.054688 8.722656 -18.359375 7.867188 -18.359375 C 5.488281 -18.359375 3.355469 -16.101562 3.355469 -12.871094 Z M 3.355469 -12.871094 "/></g></g></g><g fill="#122a36" fill-opacity="1"><g transform="translate(572.398711, 330.681075)"><g><path d="M 3.050781 -30.5 C 3.050781 -11.46875 16.714844 1.21875 33.488281 1.21875 C 43.917969 1.21875 53.921875 -2.011719 56.910156 -6.527344 L 56.910156 -13.359375 C 52.214844 -6.648438 43.0625 0 33.488281 0 C 19.398438 0 7.929688 -12.199219 7.929688 -30.5 C 7.929688 -48.796875 19.398438 -60.996094 33.488281 -60.996094 C 43.917969 -60.996094 52.824219 -53.800781 53.738281 -46.96875 C 53.738281 -46.96875 56.484375 -46.847656 56.484375 -50.324219 C 56.484375 -58.191406 44.527344 -62.21875 33.488281 -62.21875 C 16.714844 -62.21875 3.050781 -49.53125 3.050781 -30.5 Z M 3.050781 -30.5 "/></g></g></g><g fill="#122a36" fill-opacity="1"><g transform="translate(632.296896, 330.681075)"><g><path d="M 9.757812 0 L 9.757812 -17.140625 C 9.757812 -29.402344 24.886719 -36.109375 35.804688 -36.109375 C 42.089844 -36.109375 46.96875 -33.914062 46.96875 -29.402344 L 46.96875 0 L 51.847656 0 L 51.847656 -60.996094 L 46.96875 -60.996094 L 46.96875 -34.339844 C 42.757812 -36.71875 37.453125 -37.941406 31.960938 -37.941406 C 23.667969 -37.941406 15.066406 -35.074219 9.757812 -28.914062 L 9.757812 -60.996094 L 4.878906 -60.996094 L 4.878906 0 Z M 9.757812 0 "/></g></g></g><g fill="#122a36" fill-opacity="1"><g transform="translate(689.023283, 330.681075)"><g><path d="M 33.488281 1.21875 C 50.261719 1.21875 63.988281 -11.46875 63.988281 -30.5 C 63.988281 -49.53125 50.261719 -62.21875 33.488281 -62.21875 C 16.714844 -62.21875 3.050781 -49.53125 3.050781 -30.5 C 3.050781 -11.46875 16.714844 1.21875 33.488281 1.21875 Z M 7.929688 -30.5 C 7.929688 -48.796875 19.398438 -60.996094 33.488281 -60.996094 C 47.578125 -60.996094 59.105469 -48.796875 59.105469 -30.5 C 59.105469 -12.199219 47.578125 0 33.488281 0 C 19.398438 0 7.929688 -12.199219 7.929688 -30.5 Z M 7.929688 -30.5 "/></g></g></g><g fill="#122a36" fill-opacity="1"><g transform="translate(756.058003, 330.681075)"><g><path d="M 33.488281 1.21875 C 50.261719 1.21875 63.988281 -11.46875 63.988281 -30.5 C 63.988281 -49.53125 50.261719 -62.21875 33.488281 -62.21875 C 16.714844 -62.21875 3.050781 -49.53125 3.050781 -30.5 C 3.050781 -11.46875 16.714844 1.21875 33.488281 1.21875 Z M 7.929688 -30.5 C 7.929688 -48.796875 19.398438 -60.996094 33.488281 -60.996094 C 47.578125 -60.996094 59.105469 -48.796875 59.105469 -30.5 C 59.105469 -12.199219 47.578125 0 33.488281 0 C 19.398438 0 7.929688 -12.199219 7.929688 -30.5 Z M 7.929688 -30.5 "/></g></g></g><g fill="#122a36" fill-opacity="1"><g transform="translate(823.092722, 330.681075)"><g><path d="M 47.152344 0 L 47.152344 -5.429688 C 40.929688 -3.355469 24.03125 -1.21875 12.929688 -1.21875 C 10.734375 -1.21875 9.699219 -2.074219 9.699219 -5.367188 L 9.699219 -60.996094 L 4.878906 -60.996094 L 4.878906 0 Z M 47.152344 0 "/></g></g></g><g clip-path="url(#id8)"><path fill="#000000" d="M 149.554688 756.378906 C 92.441406 756.378906 46.136719 802.421875 46.136719 859.214844 C 46.136719 916.011719 92.441406 962.054688 149.554688 962.054688 C 206.671875 962.054688 252.972656 916.011719 252.972656 859.214844 C 252.972656 802.421875 206.671875 756.378906 149.554688 756.378906 " fill-opacity="1" fill-rule="nonzero"/></g><g fill="#ffffff" fill-opacity="1"><g transform="translate(101.210477, 851.495115)"><g><path d="M 14.191406 -40.378906 L 0.59375 -35.925781 L 0.59375 -29.808594 L 5.285156 -29.808594 L 5.285156 0 L 14.191406 0 Z M 14.191406 -40.378906 "/></g></g></g><g fill="#ffffff" fill-opacity="1"><g transform="translate(118.966162, 851.495115)"><g><path d="M 18.289062 -32.898438 C 24.167969 -32.898438 25.59375 -25.238281 25.59375 -20.011719 C 25.59375 -14.667969 23.929688 -7.363281 18.289062 -7.363281 C 12.53125 -7.363281 10.984375 -14.550781 10.984375 -20.132812 C 10.984375 -25.238281 12.53125 -32.898438 18.289062 -32.898438 Z M 18.289062 0.710938 C 29.929688 0.710938 34.5 -11.640625 34.5 -20.070312 C 34.5 -27.375 30.640625 -40.972656 18.289062 -40.972656 C 5.9375 -40.972656 2.078125 -27.375 2.078125 -20.070312 C 2.078125 -11.640625 6.652344 0.710938 18.289062 0.710938 Z M 18.289062 0.710938 "/></g></g></g><g fill="#ffffff" fill-opacity="1"><g transform="translate(155.546413, 851.495115)"><g><path d="M 25.714844 -40.378906 L 9.5 0 L 16.507812 0 L 32.71875 -40.378906 Z M 10.09375 -21.972656 C 16.746094 -21.972656 19.003906 -27.910156 19.003906 -31.472656 C 19.003906 -34.5 17.101562 -40.972656 10.09375 -40.972656 C 3.089844 -40.972656 1.1875 -34.5 1.1875 -31.472656 C 1.1875 -27.910156 3.503906 -21.972656 10.09375 -21.972656 Z M 10.09375 -35.925781 C 12.46875 -35.925781 12.707031 -33.195312 12.707031 -31.414062 C 12.707031 -29.039062 11.816406 -27.019531 10.09375 -27.019531 C 8.375 -27.019531 7.542969 -28.980469 7.542969 -31.472656 C 7.542969 -33.195312 7.777344 -35.925781 10.09375 -35.925781 Z M 32.125 0.59375 C 38.71875 0.59375 41.035156 -5.285156 41.035156 -8.847656 C 41.035156 -11.875 39.132812 -18.410156 32.125 -18.410156 C 25.121094 -18.410156 23.160156 -11.875 23.160156 -8.847656 C 23.160156 -5.285156 25.476562 0.59375 32.125 0.59375 Z M 32.125 -13.359375 C 34.441406 -13.359375 34.679688 -10.628906 34.679688 -8.847656 C 34.679688 -6.414062 33.789062 -4.453125 32.125 -4.453125 C 30.34375 -4.453125 29.511719 -6.355469 29.511719 -8.90625 C 29.511719 -10.628906 29.808594 -13.359375 32.125 -13.359375 Z M 32.125 -13.359375 "/></g></g></g><g fill="#ffffff" fill-opacity="1"><g transform="translate(96.706462, 908.404221)"><g><path d="M 34.738281 -20.25 C 34.738281 -14.015625 29.097656 -8.3125 22.863281 -8.3125 C 16.628906 -8.3125 10.984375 -14.015625 10.984375 -20.25 C 10.984375 -26.484375 16.628906 -32.125 22.863281 -32.125 C 29.097656 -32.125 34.738281 -26.484375 34.738281 -20.25 Z M 43.648438 -20.191406 C 43.648438 -31.355469 34.027344 -40.972656 22.863281 -40.972656 C 11.699219 -40.972656 2.078125 -31.355469 2.078125 -20.191406 C 2.078125 -9.027344 11.699219 0.59375 22.863281 0.59375 C 34.027344 0.59375 43.648438 -9.027344 43.648438 -20.191406 Z M 43.648438 -20.191406 "/></g></g></g><g fill="#ffffff" fill-opacity="1"><g transform="translate(142.431775, 908.404221)"><g><path d="M 26.367188 -16.210938 L 26.367188 -24.289062 L 12.46875 -24.289062 L 12.46875 -32.304688 L 26.960938 -32.304688 L 26.960938 -40.378906 L 3.5625 -40.378906 L 3.5625 0 L 12.46875 0 L 12.46875 -16.210938 Z M 26.367188 -16.210938 "/></g></g></g><g fill="#ffffff" fill-opacity="1"><g transform="translate(172.361075, 908.404221)"><g><path d="M 26.367188 -16.210938 L 26.367188 -24.289062 L 12.46875 -24.289062 L 12.46875 -32.304688 L 26.960938 -32.304688 L 26.960938 -40.378906 L 3.5625 -40.378906 L 3.5625 0 L 12.46875 0 L 12.46875 -16.210938 Z M 26.367188 -16.210938 "/></g></g></g><g fill="#122a36" fill-opacity="1"><g transform="translate(164.027338, 381.936046)"><g><path d="M 17.371094 -15.695312 C 20.769531 -16.425781 22.875 -18.832031 22.875 -22.488281 C 22.875 -26.660156 19.992188 -29.195312 15.4375 -29.582031 C 13.972656 -29.667969 13.199219 -29.667969 11.953125 -29.667969 L 4.171875 -29.667969 L 4.171875 0 L 12.769531 0 C 13.886719 0 14.707031 0 15.910156 -0.128906 C 20.207031 -0.472656 23.992188 -3.183594 23.992188 -8.082031 C 23.992188 -12.167969 21.757812 -14.878906 17.371094 -15.695312 Z M 5.804688 -28.25 L 12.039062 -28.25 C 13.070312 -28.25 13.800781 -28.25 14.75 -28.207031 C 17.972656 -28.035156 21.113281 -26.53125 21.113281 -22.273438 C 21.113281 -18.101562 18.058594 -16.554688 14.964844 -16.296875 C 14.015625 -16.253906 13.285156 -16.210938 12.597656 -16.210938 L 5.804688 -16.210938 Z M 15.394531 -1.503906 C 14.835938 -1.460938 14.101562 -1.417969 13.414062 -1.417969 L 5.804688 -1.417969 L 5.804688 -14.792969 L 13.15625 -14.792969 C 13.84375 -14.792969 14.445312 -14.792969 15.4375 -14.707031 C 20.46875 -14.445312 22.230469 -11.4375 22.230469 -7.953125 C 22.230469 -3.65625 18.832031 -1.761719 15.394531 -1.503906 Z M 15.394531 -1.503906 "/></g></g></g><g fill="#122a36" fill-opacity="1"><g transform="translate(189.696043, 381.936046)"><g><path d="M 10.535156 -23.261719 C 8.683594 -23.261719 7.050781 -22.359375 5.933594 -20.8125 L 4.730469 -18.058594 L 4.730469 -22.660156 L 3.097656 -22.660156 L 3.097656 0 L 4.730469 0 L 4.730469 -12.554688 C 4.730469 -19.433594 7.609375 -22.101562 11.695312 -21.800781 L 11.695312 -23.132812 C 11.351562 -23.21875 10.964844 -23.261719 10.535156 -23.261719 Z M 10.535156 -23.261719 "/></g></g></g><g fill="#122a36" fill-opacity="1"><g transform="translate(201.519985, 381.936046)"><g><path d="M 3.914062 -28.636719 C 3.226562 -28.636719 2.664062 -28.078125 2.664062 -27.390625 C 2.664062 -26.703125 3.226562 -26.140625 3.914062 -26.140625 C 4.601562 -26.140625 5.160156 -26.703125 5.160156 -27.390625 C 5.160156 -28.078125 4.601562 -28.636719 3.914062 -28.636719 Z M 4.730469 0 L 4.730469 -22.660156 L 3.097656 -22.660156 L 3.097656 0 Z M 4.730469 0 "/></g></g></g><g fill="#122a36" fill-opacity="1"><g transform="translate(209.388278, 381.936046)"><g><path d="M 20.421875 -16.382812 C 19.992188 -20.683594 17.242188 -23.261719 12.554688 -23.261719 C 9.890625 -23.261719 7.480469 -22.316406 5.761719 -20.164062 L 4.730469 -17.800781 L 4.730469 -22.660156 L 3.097656 -22.660156 L 3.097656 0 L 4.730469 0 L 4.730469 -12.554688 C 4.730469 -19.046875 8.382812 -21.84375 12.382812 -21.84375 C 16.46875 -21.84375 18.402344 -19.433594 18.789062 -15.910156 C 18.917969 -14.75 18.960938 -13.757812 18.960938 -12.253906 L 18.960938 0 L 20.597656 0 L 20.597656 -12.640625 C 20.597656 -14.488281 20.554688 -15.222656 20.421875 -16.382812 Z M 20.421875 -16.382812 "/></g></g></g><g fill="#122a36" fill-opacity="1"><g transform="translate(232.864181, 381.936046)"><g><path d="M 21.027344 -22.789062 L 19.390625 -22.789062 L 19.390625 -18.058594 L 18.101562 -20.683594 C 16.425781 -22.488281 14.402344 -23.261719 11.78125 -23.261719 C 6.234375 -23.261719 1.289062 -19.21875 1.289062 -11.136719 C 1.289062 -4.300781 5.117188 0.601562 11.222656 0.601562 C 14.101562 0.601562 16.210938 -0.171875 18.058594 -2.234375 L 19.390625 -4.816406 L 19.390625 -4.042969 C 19.390625 -2.277344 19.390625 -1.246094 19.347656 0.171875 C 19.21875 4.816406 16.511719 7.953125 11.394531 7.953125 C 7.609375 7.953125 4.429688 6.320312 3.914062 2.363281 L 3.871094 1.804688 L 2.191406 1.804688 L 2.277344 2.363281 C 2.925781 7.4375 6.578125 9.375 11.308594 9.375 C 17.285156 9.375 20.8125 5.804688 20.984375 0.300781 C 21.027344 -1.117188 21.027344 -2.878906 21.027344 -5.933594 Z M 11.394531 -0.773438 C 5.976562 -0.773438 3.097656 -5.632812 3.097656 -11.351562 C 3.097656 -17.714844 6.707031 -21.886719 11.78125 -21.886719 C 15.265625 -21.886719 19.390625 -19.691406 19.390625 -12.683594 L 19.390625 -10.492188 C 19.390625 -3.269531 15.695312 -0.773438 11.394531 -0.773438 Z M 11.394531 -0.773438 "/></g></g></g><g fill="#122a36" fill-opacity="1"><g transform="translate(257.028022, 381.936046)"><g/></g></g><g fill="#122a36" fill-opacity="1"><g transform="translate(265.283285, 381.936046)"><g><path d="M 9.375 -23.261719 C 5.117188 -23.261719 2.148438 -20.683594 2.148438 -17.027344 C 2.148438 -13.15625 5.289062 -11.652344 8.988281 -10.75 C 14.015625 -9.546875 15.78125 -8.253906 15.78125 -5.375 C 15.78125 -2.363281 13.027344 -0.773438 9.761719 -0.773438 C 6.277344 -0.773438 3.484375 -2.320312 2.792969 -6.707031 L 1.117188 -6.707031 C 1.675781 -1.546875 5.289062 0.601562 9.632812 0.601562 C 14.144531 0.601562 17.457031 -1.675781 17.457031 -5.460938 C 17.457031 -9.289062 14.878906 -11.007812 9.675781 -12.210938 C 6.191406 -13.027344 3.828125 -14.1875 3.828125 -17.15625 C 3.828125 -20.121094 6.277344 -21.886719 9.289062 -21.886719 C 12.726562 -21.886719 14.707031 -20.078125 15.566406 -16.425781 L 17.242188 -16.425781 C 16.640625 -20.292969 14.1875 -23.261719 9.375 -23.261719 Z M 9.375 -23.261719 "/></g></g></g><g fill="#122a36" fill-opacity="1"><g transform="translate(284.244598, 381.936046)"><g><path d="M 5.589844 -3.527344 C 5.546875 -4.128906 5.546875 -4.6875 5.546875 -5.804688 L 5.546875 -21.199219 L 9.933594 -21.199219 L 9.933594 -22.488281 L 5.546875 -22.488281 L 5.546875 -27.304688 L 3.914062 -27.304688 L 3.914062 -22.488281 L 1.117188 -22.488281 L 1.117188 -21.199219 L 3.914062 -21.199219 L 3.914062 -5.890625 C 3.914062 -4.601562 3.914062 -3.828125 4 -2.878906 C 4.171875 -0.6875 5.332031 0.300781 7.566406 0.300781 C 8.382812 0.300781 9.289062 0.257812 9.976562 0.171875 L 9.976562 -1.117188 C 6.75 -0.644531 5.761719 -1.289062 5.589844 -3.527344 Z M 5.589844 -3.527344 "/></g></g></g><g fill="#122a36" fill-opacity="1"><g transform="translate(295.20862, 381.936046)"><g><path d="M 20.207031 -22.660156 L 18.574219 -22.660156 L 18.574219 -10.105469 C 18.574219 -3.65625 14.964844 -0.816406 10.964844 -0.816406 C 6.964844 -0.816406 4.945312 -3.183594 4.515625 -6.707031 C 4.386719 -7.867188 4.34375 -8.902344 4.34375 -10.277344 L 4.34375 -22.660156 L 2.707031 -22.660156 L 2.707031 -9.847656 C 2.707031 -7.996094 2.75 -7.222656 2.878906 -6.0625 C 3.398438 -1.976562 6.148438 0.601562 10.75 0.601562 C 13.414062 0.601562 15.78125 -0.386719 17.542969 -2.492188 L 18.574219 -4.859375 L 18.574219 0 L 20.207031 0 Z M 20.207031 -22.660156 "/></g></g></g><g fill="#122a36" fill-opacity="1"><g transform="translate(318.555537, 381.936046)"><g><path d="M 21.027344 -31.601562 L 19.390625 -31.601562 L 19.390625 -18.058594 L 18.101562 -20.683594 C 16.425781 -22.488281 14.402344 -23.261719 11.78125 -23.261719 C 6.234375 -23.261719 1.289062 -19.21875 1.289062 -11.136719 C 1.289062 -4.300781 5.117188 0.601562 11.222656 0.601562 C 14.101562 0.601562 16.210938 -0.171875 18.058594 -2.234375 L 19.390625 -4.816406 L 19.390625 0 L 21.027344 0 Z M 11.394531 -0.773438 C 5.976562 -0.773438 3.097656 -5.632812 3.097656 -11.351562 C 3.097656 -17.714844 6.707031 -21.886719 11.78125 -21.886719 C 15.265625 -21.886719 19.390625 -19.691406 19.390625 -12.683594 L 19.390625 -10.492188 C 19.390625 -3.269531 15.695312 -0.773438 11.394531 -0.773438 Z M 11.394531 -0.773438 "/></g></g></g><g fill="#122a36" fill-opacity="1"><g transform="translate(342.719379, 381.936046)"><g><path d="M 21.113281 -11.953125 C 21.113281 -17.84375 17.972656 -23.261719 11.566406 -23.261719 C 5.804688 -23.261719 1.289062 -18.574219 1.289062 -11.394531 C 1.289062 -3.441406 5.761719 0.601562 11.179688 0.601562 C 15.566406 0.601562 19.519531 -1.933594 20.769531 -7.050781 L 19.089844 -7.050781 C 17.972656 -2.75 14.707031 -0.773438 11.265625 -0.773438 C 7.308594 -0.773438 3.269531 -3.527344 3.011719 -10.878906 L 21.070312 -10.878906 C 21.113281 -11.4375 21.113281 -11.738281 21.113281 -11.953125 Z M 11.480469 -21.886719 C 15.308594 -21.886719 19.175781 -19.304688 19.433594 -12.296875 L 3.011719 -12.296875 C 3.269531 -18.789062 7.523438 -21.886719 11.480469 -21.886719 Z M 11.480469 -21.886719 "/></g></g></g><g fill="#122a36" fill-opacity="1"><g transform="translate(365.421352, 381.936046)"><g><path d="M 20.421875 -16.382812 C 19.992188 -20.683594 17.242188 -23.261719 12.554688 -23.261719 C 9.890625 -23.261719 7.480469 -22.316406 5.761719 -20.164062 L 4.730469 -17.800781 L 4.730469 -22.660156 L 3.097656 -22.660156 L 3.097656 0 L 4.730469 0 L 4.730469 -12.554688 C 4.730469 -19.046875 8.382812 -21.84375 12.382812 -21.84375 C 16.46875 -21.84375 18.402344 -19.433594 18.789062 -15.910156 C 18.917969 -14.75 18.960938 -13.757812 18.960938 -12.253906 L 18.960938 0 L 20.597656 0 L 20.597656 -12.640625 C 20.597656 -14.488281 20.554688 -15.222656 20.421875 -16.382812 Z M 20.421875 -16.382812 "/></g></g></g><g fill="#122a36" fill-opacity="1"><g transform="translate(388.897255, 381.936046)"><g><path d="M 5.589844 -3.527344 C 5.546875 -4.128906 5.546875 -4.6875 5.546875 -5.804688 L 5.546875 -21.199219 L 9.933594 -21.199219 L 9.933594 -22.488281 L 5.546875 -22.488281 L 5.546875 -27.304688 L 3.914062 -27.304688 L 3.914062 -22.488281 L 1.117188 -22.488281 L 1.117188 -21.199219 L 3.914062 -21.199219 L 3.914062 -5.890625 C 3.914062 -4.601562 3.914062 -3.828125 4 -2.878906 C 4.171875 -0.6875 5.332031 0.300781 7.566406 0.300781 C 8.382812 0.300781 9.289062 0.257812 9.976562 0.171875 L 9.976562 -1.117188 C 6.75 -0.644531 5.761719 -1.289062 5.589844 -3.527344 Z M 5.589844 -3.527344 "/></g></g></g><g fill="#122a36" fill-opacity="1"><g transform="translate(399.861288, 381.936046)"><g/></g></g><g fill="#122a36" fill-opacity="1"><g transform="translate(408.116552, 381.936046)"><g><path d="M 5.804688 0 L 5.804688 -29.667969 L 4.171875 -29.667969 L 4.171875 0 Z M 5.804688 0 "/></g></g></g><g fill="#122a36" fill-opacity="1"><g transform="translate(417.059742, 381.936046)"><g><path d="M 16.167969 -29.582031 C 14.964844 -29.667969 14.273438 -29.667969 12.855469 -29.667969 L 4.171875 -29.667969 L 4.171875 0 L 12.8125 0 C 14.230469 0 15.09375 0 16.597656 -0.171875 C 21.285156 -0.730469 27.90625 -4.988281 27.90625 -15.007812 C 27.90625 -25.109375 21.285156 -29.109375 16.167969 -29.582031 Z M 16.382812 -1.632812 C 15.09375 -1.460938 14.144531 -1.417969 12.726562 -1.417969 L 5.804688 -1.417969 L 5.804688 -28.25 L 12.8125 -28.25 C 14.359375 -28.25 15.09375 -28.25 16.039062 -28.121094 C 20.8125 -27.605469 26.097656 -23.648438 26.097656 -15.007812 C 26.097656 -6.578125 21.15625 -2.234375 16.382812 -1.632812 Z M 16.382812 -1.632812 "/></g></g></g><g fill="#122a36" fill-opacity="1"><g transform="translate(446.598106, 381.936046)"><g/></g></g><g fill="#122a36" fill-opacity="1"><g transform="translate(454.853369, 381.936046)"><g><path d="M 5.589844 -3.527344 C 5.546875 -4.128906 5.546875 -4.6875 5.546875 -5.804688 L 5.546875 -21.199219 L 9.933594 -21.199219 L 9.933594 -22.488281 L 5.546875 -22.488281 L 5.546875 -27.304688 L 3.914062 -27.304688 L 3.914062 -22.488281 L 1.117188 -22.488281 L 1.117188 -21.199219 L 3.914062 -21.199219 L 3.914062 -5.890625 C 3.914062 -4.601562 3.914062 -3.828125 4 -2.878906 C 4.171875 -0.6875 5.332031 0.300781 7.566406 0.300781 C 8.382812 0.300781 9.289062 0.257812 9.976562 0.171875 L 9.976562 -1.117188 C 6.75 -0.644531 5.761719 -1.289062 5.589844 -3.527344 Z M 5.589844 -3.527344 "/></g></g></g><g fill="#122a36" fill-opacity="1"><g transform="translate(465.81738, 381.936046)"><g><path d="M 12.082031 -23.261719 C 5.375 -23.261719 1.289062 -18.316406 1.289062 -11.308594 C 1.289062 -4.34375 5.375 0.601562 12.082031 0.601562 C 18.789062 0.601562 22.875 -4.34375 22.875 -11.308594 C 22.875 -18.316406 18.789062 -23.261719 12.082031 -23.261719 Z M 12.082031 -0.773438 C 7.265625 -0.773438 3.097656 -4.300781 3.097656 -11.308594 C 3.097656 -18.359375 7.265625 -21.886719 12.082031 -21.886719 C 16.898438 -21.886719 21.113281 -18.359375 21.113281 -11.308594 C 21.113281 -4.300781 16.898438 -0.773438 12.082031 -0.773438 Z M 12.082031 -0.773438 "/></g></g></g><g fill="#122a36" fill-opacity="1"><g transform="translate(489.98121, 381.936046)"><g/></g></g><g fill="#122a36" fill-opacity="1"><g transform="translate(498.236473, 381.936046)"><g><path d="M 10.535156 -23.261719 C 8.683594 -23.261719 7.050781 -22.359375 5.933594 -20.8125 L 4.730469 -18.058594 L 4.730469 -22.660156 L 3.097656 -22.660156 L 3.097656 0 L 4.730469 0 L 4.730469 -12.554688 C 4.730469 -19.433594 7.609375 -22.101562 11.695312 -21.800781 L 11.695312 -23.132812 C 11.351562 -23.21875 10.964844 -23.261719 10.535156 -23.261719 Z M 10.535156 -23.261719 "/></g></g></g><g fill="#122a36" fill-opacity="1"><g transform="translate(510.060416, 381.936046)"><g><path d="M 21.113281 -11.953125 C 21.113281 -17.84375 17.972656 -23.261719 11.566406 -23.261719 C 5.804688 -23.261719 1.289062 -18.574219 1.289062 -11.394531 C 1.289062 -3.441406 5.761719 0.601562 11.179688 0.601562 C 15.566406 0.601562 19.519531 -1.933594 20.769531 -7.050781 L 19.089844 -7.050781 C 17.972656 -2.75 14.707031 -0.773438 11.265625 -0.773438 C 7.308594 -0.773438 3.269531 -3.527344 3.011719 -10.878906 L 21.070312 -10.878906 C 21.113281 -11.4375 21.113281 -11.738281 21.113281 -11.953125 Z M 11.480469 -21.886719 C 15.308594 -21.886719 19.175781 -19.304688 19.433594 -12.296875 L 3.011719 -12.296875 C 3.269531 -18.789062 7.523438 -21.886719 11.480469 -21.886719 Z M 11.480469 -21.886719 "/></g></g></g><g fill="#122a36" fill-opacity="1"><g transform="translate(532.762378, 381.936046)"><g><path d="M 11.738281 -23.261719 C 6.0625 -23.261719 1.289062 -18.746094 1.289062 -11.308594 C 1.289062 -3.613281 5.761719 0.601562 11.351562 0.601562 C 16.082031 0.601562 19.777344 -2.148438 20.726562 -6.878906 L 19.046875 -6.878906 C 18.230469 -2.925781 15.136719 -0.773438 11.480469 -0.773438 C 7.179688 -0.773438 3.097656 -4.171875 3.097656 -11.566406 C 3.097656 -18.574219 7.566406 -21.929688 11.652344 -21.929688 C 15.867188 -21.929688 18.488281 -19.476562 19.261719 -15.480469 L 20.941406 -15.480469 C 20.25 -20.121094 16.769531 -23.261719 11.738281 -23.261719 Z M 11.738281 -23.261719 "/></g></g></g><g fill="#122a36" fill-opacity="1"><g transform="translate(555.120376, 381.936046)"><g><path d="M 21.113281 -11.953125 C 21.113281 -17.84375 17.972656 -23.261719 11.566406 -23.261719 C 5.804688 -23.261719 1.289062 -18.574219 1.289062 -11.394531 C 1.289062 -3.441406 5.761719 0.601562 11.179688 0.601562 C 15.566406 0.601562 19.519531 -1.933594 20.769531 -7.050781 L 19.089844 -7.050781 C 17.972656 -2.75 14.707031 -0.773438 11.265625 -0.773438 C 7.308594 -0.773438 3.269531 -3.527344 3.011719 -10.878906 L 21.070312 -10.878906 C 21.113281 -11.4375 21.113281 -11.738281 21.113281 -11.953125 Z M 11.480469 -21.886719 C 15.308594 -21.886719 19.175781 -19.304688 19.433594 -12.296875 L 3.011719 -12.296875 C 3.269531 -18.789062 7.523438 -21.886719 11.480469 -21.886719 Z M 11.480469 -21.886719 "/></g></g></g><g fill="#122a36" fill-opacity="1"><g transform="translate(577.822338, 381.936046)"><g><path d="M 3.914062 -28.636719 C 3.226562 -28.636719 2.664062 -28.078125 2.664062 -27.390625 C 2.664062 -26.703125 3.226562 -26.140625 3.914062 -26.140625 C 4.601562 -26.140625 5.160156 -26.703125 5.160156 -27.390625 C 5.160156 -28.078125 4.601562 -28.636719 3.914062 -28.636719 Z M 4.730469 0 L 4.730469 -22.660156 L 3.097656 -22.660156 L 3.097656 0 Z M 4.730469 0 "/></g></g></g><g fill="#122a36" fill-opacity="1"><g transform="translate(585.690608, 381.936046)"><g><path d="M 20.292969 -22.660156 L 18.53125 -22.660156 L 10.40625 -1.246094 L 2.277344 -22.660156 L 0.429688 -22.660156 L 9.289062 0 L 11.4375 0 Z M 20.292969 -22.660156 "/></g></g></g><g fill="#122a36" fill-opacity="1"><g transform="translate(606.328789, 381.936046)"><g><path d="M 21.113281 -11.953125 C 21.113281 -17.84375 17.972656 -23.261719 11.566406 -23.261719 C 5.804688 -23.261719 1.289062 -18.574219 1.289062 -11.394531 C 1.289062 -3.441406 5.761719 0.601562 11.179688 0.601562 C 15.566406 0.601562 19.519531 -1.933594 20.769531 -7.050781 L 19.089844 -7.050781 C 17.972656 -2.75 14.707031 -0.773438 11.265625 -0.773438 C 7.308594 -0.773438 3.269531 -3.527344 3.011719 -10.878906 L 21.070312 -10.878906 C 21.113281 -11.4375 21.113281 -11.738281 21.113281 -11.953125 Z M 11.480469 -21.886719 C 15.308594 -21.886719 19.175781 -19.304688 19.433594 -12.296875 L 3.011719 -12.296875 C 3.269531 -18.789062 7.523438 -21.886719 11.480469 -21.886719 Z M 11.480469 -21.886719 "/></g></g></g><g fill="#122a36" fill-opacity="1"><g transform="translate(629.030751, 381.936046)"><g/></g></g><g fill="#122a36" fill-opacity="1"><g transform="translate(637.286014, 381.936046)"><g><path d="M 21.027344 -31.601562 L 19.390625 -31.601562 L 19.390625 -18.058594 L 18.101562 -20.683594 C 16.425781 -22.488281 14.402344 -23.261719 11.78125 -23.261719 C 6.234375 -23.261719 1.289062 -19.21875 1.289062 -11.136719 C 1.289062 -4.300781 5.117188 0.601562 11.222656 0.601562 C 14.101562 0.601562 16.210938 -0.171875 18.058594 -2.234375 L 19.390625 -4.816406 L 19.390625 0 L 21.027344 0 Z M 11.394531 -0.773438 C 5.976562 -0.773438 3.097656 -5.632812 3.097656 -11.351562 C 3.097656 -17.714844 6.707031 -21.886719 11.78125 -21.886719 C 15.265625 -21.886719 19.390625 -19.691406 19.390625 -12.683594 L 19.390625 -10.492188 C 19.390625 -3.269531 15.695312 -0.773438 11.394531 -0.773438 Z M 11.394531 -0.773438 "/></g></g></g><g fill="#122a36" fill-opacity="1"><g transform="translate(661.449844, 381.936046)"><g><path d="M 3.914062 -28.636719 C 3.226562 -28.636719 2.664062 -28.078125 2.664062 -27.390625 C 2.664062 -26.703125 3.226562 -26.140625 3.914062 -26.140625 C 4.601562 -26.140625 5.160156 -26.703125 5.160156 -27.390625 C 5.160156 -28.078125 4.601562 -28.636719 3.914062 -28.636719 Z M 4.730469 0 L 4.730469 -22.660156 L 3.097656 -22.660156 L 3.097656 0 Z M 4.730469 0 "/></g></g></g><g fill="#122a36" fill-opacity="1"><g transform="translate(669.31816, 381.936046)"><g><path d="M 9.375 -23.261719 C 5.117188 -23.261719 2.148438 -20.683594 2.148438 -17.027344 C 2.148438 -13.15625 5.289062 -11.652344 8.988281 -10.75 C 14.015625 -9.546875 15.78125 -8.253906 15.78125 -5.375 C 15.78125 -2.363281 13.027344 -0.773438 9.761719 -0.773438 C 6.277344 -0.773438 3.484375 -2.320312 2.792969 -6.707031 L 1.117188 -6.707031 C 1.675781 -1.546875 5.289062 0.601562 9.632812 0.601562 C 14.144531 0.601562 17.457031 -1.675781 17.457031 -5.460938 C 17.457031 -9.289062 14.878906 -11.007812 9.675781 -12.210938 C 6.191406 -13.027344 3.828125 -14.1875 3.828125 -17.15625 C 3.828125 -20.121094 6.277344 -21.886719 9.289062 -21.886719 C 12.726562 -21.886719 14.707031 -20.078125 15.566406 -16.425781 L 17.242188 -16.425781 C 16.640625 -20.292969 14.1875 -23.261719 9.375 -23.261719 Z M 9.375 -23.261719 "/></g></g></g><g fill="#122a36" fill-opacity="1"><g transform="translate(688.279461, 381.936046)"><g><path d="M 11.738281 -23.261719 C 6.0625 -23.261719 1.289062 -18.746094 1.289062 -11.308594 C 1.289062 -3.613281 5.761719 0.601562 11.351562 0.601562 C 16.082031 0.601562 19.777344 -2.148438 20.726562 -6.878906 L 19.046875 -6.878906 C 18.230469 -2.925781 15.136719 -0.773438 11.480469 -0.773438 C 7.179688 -0.773438 3.097656 -4.171875 3.097656 -11.566406 C 3.097656 -18.574219 7.566406 -21.929688 11.652344 -21.929688 C 15.867188 -21.929688 18.488281 -19.476562 19.261719 -15.480469 L 20.941406 -15.480469 C 20.25 -20.121094 16.769531 -23.261719 11.738281 -23.261719 Z M 11.738281 -23.261719 "/></g></g></g><g fill="#122a36" fill-opacity="1"><g transform="translate(710.637459, 381.936046)"><g><path d="M 12.082031 -23.261719 C 5.375 -23.261719 1.289062 -18.316406 1.289062 -11.308594 C 1.289062 -4.34375 5.375 0.601562 12.082031 0.601562 C 18.789062 0.601562 22.875 -4.34375 22.875 -11.308594 C 22.875 -18.316406 18.789062 -23.261719 12.082031 -23.261719 Z M 12.082031 -0.773438 C 7.265625 -0.773438 3.097656 -4.300781 3.097656 -11.308594 C 3.097656 -18.359375 7.265625 -21.886719 12.082031 -21.886719 C 16.898438 -21.886719 21.113281 -18.359375 21.113281 -11.308594 C 21.113281 -4.300781 16.898438 -0.773438 12.082031 -0.773438 Z M 12.082031 -0.773438 "/></g></g></g><g fill="#122a36" fill-opacity="1"><g transform="translate(734.80129, 381.936046)"><g><path d="M 20.207031 -22.660156 L 18.574219 -22.660156 L 18.574219 -10.105469 C 18.574219 -3.65625 14.964844 -0.816406 10.964844 -0.816406 C 6.964844 -0.816406 4.945312 -3.183594 4.515625 -6.707031 C 4.386719 -7.867188 4.34375 -8.902344 4.34375 -10.277344 L 4.34375 -22.660156 L 2.707031 -22.660156 L 2.707031 -9.847656 C 2.707031 -7.996094 2.75 -7.222656 2.878906 -6.0625 C 3.398438 -1.976562 6.148438 0.601562 10.75 0.601562 C 13.414062 0.601562 15.78125 -0.386719 17.542969 -2.492188 L 18.574219 -4.859375 L 18.574219 0 L 20.207031 0 Z M 20.207031 -22.660156 "/></g></g></g><g fill="#122a36" fill-opacity="1"><g transform="translate(758.148195, 381.936046)"><g><path d="M 20.421875 -16.382812 C 19.992188 -20.683594 17.242188 -23.261719 12.554688 -23.261719 C 9.890625 -23.261719 7.480469 -22.316406 5.761719 -20.164062 L 4.730469 -17.800781 L 4.730469 -22.660156 L 3.097656 -22.660156 L 3.097656 0 L 4.730469 0 L 4.730469 -12.554688 C 4.730469 -19.046875 8.382812 -21.84375 12.382812 -21.84375 C 16.46875 -21.84375 18.402344 -19.433594 18.789062 -15.910156 C 18.917969 -14.75 18.960938 -13.757812 18.960938 -12.253906 L 18.960938 0 L 20.597656 0 L 20.597656 -12.640625 C 20.597656 -14.488281 20.554688 -15.222656 20.421875 -16.382812 Z M 20.421875 -16.382812 "/></g></g></g><g fill="#122a36" fill-opacity="1"><g transform="translate(781.624098, 381.936046)"><g><path d="M 5.589844 -3.527344 C 5.546875 -4.128906 5.546875 -4.6875 5.546875 -5.804688 L 5.546875 -21.199219 L 9.933594 -21.199219 L 9.933594 -22.488281 L 5.546875 -22.488281 L 5.546875 -27.304688 L 3.914062 -27.304688 L 3.914062 -22.488281 L 1.117188 -22.488281 L 1.117188 -21.199219 L 3.914062 -21.199219 L 3.914062 -5.890625 C 3.914062 -4.601562 3.914062 -3.828125 4 -2.878906 C 4.171875 -0.6875 5.332031 0.300781 7.566406 0.300781 C 8.382812 0.300781 9.289062 0.257812 9.976562 0.171875 L 9.976562 -1.117188 C 6.75 -0.644531 5.761719 -1.289062 5.589844 -3.527344 Z M 5.589844 -3.527344 "/></g></g></g><g fill="#122a36" fill-opacity="1"><g transform="translate(792.588131, 381.936046)"><g/></g></g><g fill="#122a36" fill-opacity="1"><g transform="translate(800.843394, 381.936046)"><g><path d="M 12.082031 -23.261719 C 5.375 -23.261719 1.289062 -18.316406 1.289062 -11.308594 C 1.289062 -4.34375 5.375 0.601562 12.082031 0.601562 C 18.789062 0.601562 22.875 -4.34375 22.875 -11.308594 C 22.875 -18.316406 18.789062 -23.261719 12.082031 -23.261719 Z M 12.082031 -0.773438 C 7.265625 -0.773438 3.097656 -4.300781 3.097656 -11.308594 C 3.097656 -18.359375 7.265625 -21.886719 12.082031 -21.886719 C 16.898438 -21.886719 21.113281 -18.359375 21.113281 -11.308594 C 21.113281 -4.300781 16.898438 -0.773438 12.082031 -0.773438 Z M 12.082031 -0.773438 "/></g></g></g><g fill="#122a36" fill-opacity="1"><g transform="translate(825.007225, 381.936046)"><g><path d="M 20.421875 -16.382812 C 19.992188 -20.683594 17.242188 -23.261719 12.554688 -23.261719 C 9.890625 -23.261719 7.480469 -22.316406 5.761719 -20.164062 L 4.730469 -17.800781 L 4.730469 -22.660156 L 3.097656 -22.660156 L 3.097656 0 L 4.730469 0 L 4.730469 -12.554688 C 4.730469 -19.046875 8.382812 -21.84375 12.382812 -21.84375 C 16.46875 -21.84375 18.402344 -19.433594 18.789062 -15.910156 C 18.917969 -14.75 18.960938 -13.757812 18.960938 -12.253906 L 18.960938 0 L 20.597656 0 L 20.597656 -12.640625 C 20.597656 -14.488281 20.554688 -15.222656 20.421875 -16.382812 Z M 20.421875 -16.382812 "/></g></g></g><g fill="#122a36" fill-opacity="1"><g transform="translate(396.046836, 416.436041)"><g><path d="M 9.375 -23.261719 C 5.117188 -23.261719 2.148438 -20.683594 2.148438 -17.027344 C 2.148438 -13.15625 5.289062 -11.652344 8.988281 -10.75 C 14.015625 -9.546875 15.78125 -8.253906 15.78125 -5.375 C 15.78125 -2.363281 13.027344 -0.773438 9.761719 -0.773438 C 6.277344 -0.773438 3.484375 -2.320312 2.792969 -6.707031 L 1.117188 -6.707031 C 1.675781 -1.546875 5.289062 0.601562 9.632812 0.601562 C 14.144531 0.601562 17.457031 -1.675781 17.457031 -5.460938 C 17.457031 -9.289062 14.878906 -11.007812 9.675781 -12.210938 C 6.191406 -13.027344 3.828125 -14.1875 3.828125 -17.15625 C 3.828125 -20.121094 6.277344 -21.886719 9.289062 -21.886719 C 12.726562 -21.886719 14.707031 -20.078125 15.566406 -16.425781 L 17.242188 -16.425781 C 16.640625 -20.292969 14.1875 -23.261719 9.375 -23.261719 Z M 9.375 -23.261719 "/></g></g></g><g fill="#122a36" fill-opacity="1"><g transform="translate(415.008149, 416.436041)"><g><path d="M 21.113281 -11.953125 C 21.113281 -17.84375 17.972656 -23.261719 11.566406 -23.261719 C 5.804688 -23.261719 1.289062 -18.574219 1.289062 -11.394531 C 1.289062 -3.441406 5.761719 0.601562 11.179688 0.601562 C 15.566406 0.601562 19.519531 -1.933594 20.769531 -7.050781 L 19.089844 -7.050781 C 17.972656 -2.75 14.707031 -0.773438 11.265625 -0.773438 C 7.308594 -0.773438 3.269531 -3.527344 3.011719 -10.878906 L 21.070312 -10.878906 C 21.113281 -11.4375 21.113281 -11.738281 21.113281 -11.953125 Z M 11.480469 -21.886719 C 15.308594 -21.886719 19.175781 -19.304688 19.433594 -12.296875 L 3.011719 -12.296875 C 3.269531 -18.789062 7.523438 -21.886719 11.480469 -21.886719 Z M 11.480469 -21.886719 "/></g></g></g><g fill="#122a36" fill-opacity="1"><g transform="translate(437.710123, 416.436041)"><g><path d="M 10.535156 -23.261719 C 8.683594 -23.261719 7.050781 -22.359375 5.933594 -20.8125 L 4.730469 -18.058594 L 4.730469 -22.660156 L 3.097656 -22.660156 L 3.097656 0 L 4.730469 0 L 4.730469 -12.554688 C 4.730469 -19.433594 7.609375 -22.101562 11.695312 -21.800781 L 11.695312 -23.132812 C 11.351562 -23.21875 10.964844 -23.261719 10.535156 -23.261719 Z M 10.535156 -23.261719 "/></g></g></g><g fill="#122a36" fill-opacity="1"><g transform="translate(449.534065, 416.436041)"><g><path d="M 20.292969 -22.660156 L 18.53125 -22.660156 L 10.40625 -1.246094 L 2.277344 -22.660156 L 0.429688 -22.660156 L 9.289062 0 L 11.4375 0 Z M 20.292969 -22.660156 "/></g></g></g><g fill="#122a36" fill-opacity="1"><g transform="translate(470.172223, 416.436041)"><g><path d="M 3.914062 -28.636719 C 3.226562 -28.636719 2.664062 -28.078125 2.664062 -27.390625 C 2.664062 -26.703125 3.226562 -26.140625 3.914062 -26.140625 C 4.601562 -26.140625 5.160156 -26.703125 5.160156 -27.390625 C 5.160156 -28.078125 4.601562 -28.636719 3.914062 -28.636719 Z M 4.730469 0 L 4.730469 -22.660156 L 3.097656 -22.660156 L 3.097656 0 Z M 4.730469 0 "/></g></g></g><g fill="#122a36" fill-opacity="1"><g transform="translate(478.040516, 416.436041)"><g><path d="M 11.738281 -23.261719 C 6.0625 -23.261719 1.289062 -18.746094 1.289062 -11.308594 C 1.289062 -3.613281 5.761719 0.601562 11.351562 0.601562 C 16.082031 0.601562 19.777344 -2.148438 20.726562 -6.878906 L 19.046875 -6.878906 C 18.230469 -2.925781 15.136719 -0.773438 11.480469 -0.773438 C 7.179688 -0.773438 3.097656 -4.171875 3.097656 -11.566406 C 3.097656 -18.574219 7.566406 -21.929688 11.652344 -21.929688 C 15.867188 -21.929688 18.488281 -19.476562 19.261719 -15.480469 L 20.941406 -15.480469 C 20.25 -20.121094 16.769531 -23.261719 11.738281 -23.261719 Z M 11.738281 -23.261719 "/></g></g></g><g fill="#122a36" fill-opacity="1"><g transform="translate(500.398526, 416.436041)"><g><path d="M 21.113281 -11.953125 C 21.113281 -17.84375 17.972656 -23.261719 11.566406 -23.261719 C 5.804688 -23.261719 1.289062 -18.574219 1.289062 -11.394531 C 1.289062 -3.441406 5.761719 0.601562 11.179688 0.601562 C 15.566406 0.601562 19.519531 -1.933594 20.769531 -7.050781 L 19.089844 -7.050781 C 17.972656 -2.75 14.707031 -0.773438 11.265625 -0.773438 C 7.308594 -0.773438 3.269531 -3.527344 3.011719 -10.878906 L 21.070312 -10.878906 C 21.113281 -11.4375 21.113281 -11.738281 21.113281 -11.953125 Z M 11.480469 -21.886719 C 15.308594 -21.886719 19.175781 -19.304688 19.433594 -12.296875 L 3.011719 -12.296875 C 3.269531 -18.789062 7.523438 -21.886719 11.480469 -21.886719 Z M 11.480469 -21.886719 "/></g></g></g><g fill="#122a36" fill-opacity="1"><g transform="translate(523.100499, 416.436041)"><g/></g></g><g fill="#122a36" fill-opacity="1"><g transform="translate(531.355762, 416.436041)"><g><path d="M 5.589844 -3.527344 C 5.546875 -4.128906 5.546875 -4.6875 5.546875 -5.804688 L 5.546875 -21.199219 L 9.933594 -21.199219 L 9.933594 -22.488281 L 5.546875 -22.488281 L 5.546875 -27.304688 L 3.914062 -27.304688 L 3.914062 -22.488281 L 1.117188 -22.488281 L 1.117188 -21.199219 L 3.914062 -21.199219 L 3.914062 -5.890625 C 3.914062 -4.601562 3.914062 -3.828125 4 -2.878906 C 4.171875 -0.6875 5.332031 0.300781 7.566406 0.300781 C 8.382812 0.300781 9.289062 0.257812 9.976562 0.171875 L 9.976562 -1.117188 C 6.75 -0.644531 5.761719 -1.289062 5.589844 -3.527344 Z M 5.589844 -3.527344 "/></g></g></g><g fill="#122a36" fill-opacity="1"><g transform="translate(542.319784, 416.436041)"><g><path d="M 12.082031 -23.261719 C 5.375 -23.261719 1.289062 -18.316406 1.289062 -11.308594 C 1.289062 -4.34375 5.375 0.601562 12.082031 0.601562 C 18.789062 0.601562 22.875 -4.34375 22.875 -11.308594 C 22.875 -18.316406 18.789062 -23.261719 12.082031 -23.261719 Z M 12.082031 -0.773438 C 7.265625 -0.773438 3.097656 -4.300781 3.097656 -11.308594 C 3.097656 -18.359375 7.265625 -21.886719 12.082031 -21.886719 C 16.898438 -21.886719 21.113281 -18.359375 21.113281 -11.308594 C 21.113281 -4.300781 16.898438 -0.773438 12.082031 -0.773438 Z M 12.082031 -0.773438 "/></g></g></g><g fill="#122a36" fill-opacity="1"><g transform="translate(566.483626, 416.436041)"><g><path d="M 5.589844 -3.527344 C 5.546875 -4.128906 5.546875 -4.6875 5.546875 -5.804688 L 5.546875 -21.199219 L 9.933594 -21.199219 L 9.933594 -22.488281 L 5.546875 -22.488281 L 5.546875 -27.304688 L 3.914062 -27.304688 L 3.914062 -22.488281 L 1.117188 -22.488281 L 1.117188 -21.199219 L 3.914062 -21.199219 L 3.914062 -5.890625 C 3.914062 -4.601562 3.914062 -3.828125 4 -2.878906 C 4.171875 -0.6875 5.332031 0.300781 7.566406 0.300781 C 8.382812 0.300781 9.289062 0.257812 9.976562 0.171875 L 9.976562 -1.117188 C 6.75 -0.644531 5.761719 -1.289062 5.589844 -3.527344 Z M 5.589844 -3.527344 "/></g></g></g><g fill="#122a36" fill-opacity="1"><g transform="translate(577.447648, 416.436041)"><g><path d="M 17.242188 0 L 18.917969 0 C 18.660156 -2.878906 18.53125 -4.558594 18.53125 -6.921875 L 18.53125 -14.316406 C 18.53125 -15.4375 18.53125 -16.167969 18.445312 -17.285156 C 18.101562 -21.070312 15.695312 -23.261719 11.007812 -23.261719 C 6.40625 -23.261719 3.097656 -20.292969 2.792969 -16.253906 L 4.472656 -16.253906 C 4.945312 -20.207031 7.867188 -21.886719 11.007812 -21.886719 C 14.574219 -21.886719 16.554688 -20.164062 16.8125 -17.113281 C 16.898438 -16.167969 16.898438 -15.265625 16.898438 -14.230469 L 16.898438 -13.199219 L 15.4375 -13.199219 C 7.910156 -13.199219 1.890625 -10.835938 1.890625 -5.589844 C 1.890625 -1.503906 4.730469 0.601562 8.988281 0.601562 C 11.824219 0.601562 14.316406 -0.472656 15.867188 -2.664062 L 16.941406 -4.945312 Z M 9.375 -0.773438 C 5.589844 -0.773438 3.699219 -2.621094 3.699219 -5.675781 C 3.699219 -10.535156 10.363281 -12.253906 16.898438 -11.824219 L 16.898438 -8.902344 C 16.898438 -4.515625 13.886719 -0.773438 9.375 -0.773438 Z M 9.375 -0.773438 "/></g></g></g><g fill="#122a36" fill-opacity="1"><g transform="translate(599.074701, 416.436041)"><g><path d="M 4.601562 -31.601562 L 2.96875 -31.601562 L 2.96875 -5.460938 C 2.96875 -3.957031 2.96875 -3.183594 3.011719 -2.320312 C 3.097656 -0.34375 4.128906 0.214844 5.546875 0.214844 C 6.0625 0.214844 6.621094 0.214844 7.136719 0.0859375 L 7.136719 -1.203125 C 5.289062 -0.988281 4.730469 -1.332031 4.644531 -2.75 C 4.601562 -3.398438 4.601562 -4.214844 4.601562 -5.503906 Z M 4.601562 -31.601562 "/></g></g></g><g fill="#122a36" fill-opacity="1"><g transform="translate(607.329964, 416.436041)"><g><path d="M 5.289062 -5.503906 L 5.546875 -29.667969 L 3.570312 -29.667969 L 3.828125 -5.503906 Z M 4.558594 -2.0625 C 3.828125 -2.0625 3.226562 -1.503906 3.226562 -0.730469 C 3.226562 0.0429688 3.828125 0.601562 4.558594 0.601562 C 5.332031 0.601562 5.890625 0.0429688 5.890625 -0.730469 C 5.890625 -1.503906 5.332031 -2.0625 4.558594 -2.0625 Z M 4.558594 -2.0625 "/></g></g></g></svg>