<svg xmlns="http://www.w3.org/2000/svg" xmlns:xlink="http://www.w3.org/1999/xlink" width="500" zoomAndPan="magnify" viewBox="0 0 375 374.999991" height="500" preserveAspectRatio="xMidYMid meet" version="1.0"><defs><clipPath id="id1"><path d="M 65 98 L 314.8125 98 L 314.8125 337.5 L 65 337.5 Z M 65 98 " clip-rule="nonzero"/></clipPath><clipPath id="id2"><path d="M 221 37.5 L 242 37.5 L 242 62 L 221 62 Z M 221 37.5 " clip-rule="nonzero"/></clipPath></defs><g clip-path="url(#id1)"><path fill="#100f0d" d="M 129.335938 192.058594 C 129.335938 192.058594 128.199219 191.550781 126.171875 190.589844 C 124.171875 189.550781 121.203125 188.300781 117.898438 186.3125 C 116.265625 185.296875 114.457031 184.207031 112.574219 183.0625 C 110.691406 181.894531 108.867188 180.476562 106.867188 179.078125 C 104.84375 177.71875 102.960938 176.054688 101.019531 174.421875 C 99.03125 172.835938 97.171875 171.015625 95.3125 169.183594 C 93.40625 167.414062 91.738281 165.402344 90.019531 163.488281 C 88.304688 161.585938 86.847656 159.480469 85.40625 157.519531 C 84.089844 155.449219 82.753906 153.488281 81.769531 151.464844 C 80.65625 149.507812 79.863281 147.507812 79.128906 145.6875 C 78.417969 143.832031 77.921875 142.082031 77.519531 140.558594 C 77.164062 138.972656 76.878906 137.613281 76.75 136.464844 C 76.476562 134.175781 76.609375 132.875 76.609375 132.875 L 77.296875 132.765625 C 77.296875 132.765625 77.378906 133.085938 77.625 133.628906 C 77.816406 134.175781 78.171875 134.964844 78.609375 135.984375 C 79.070312 136.960938 79.617188 138.183594 80.324219 139.527344 C 81.011719 140.863281 81.851562 142.355469 82.789062 143.9375 C 83.6875 145.542969 84.777344 147.234375 85.925781 149.007812 C 87.015625 150.816406 88.457031 152.554688 89.726562 154.46875 C 91.167969 156.265625 92.554688 158.226562 94.117188 160.085938 C 95.726562 161.902344 97.253906 163.84375 99.03125 165.589844 C 100.746094 167.363281 102.414062 169.207031 104.273438 170.851562 C 106.074219 172.484375 107.765625 174.234375 109.601562 175.699219 C 111.378906 177.234375 113.117188 178.699219 114.761719 180.097656 C 116.453125 181.429688 118.066406 182.683594 119.570312 183.855469 C 121.011719 185.0625 122.410156 186.089844 123.6875 186.960938 C 124.917969 187.894531 126.007812 188.679688 126.90625 189.339844 C 128.683594 190.699219 129.691406 191.492188 129.691406 191.492188 Z M 313.214844 256.136719 C 312.996094 256 292.40625 242.257812 260.761719 218.726562 C 240.992188 204.035156 218.875 190.261719 204.867188 181.867188 C 206.734375 184.027344 208.53125 186.296875 210.222656 188.660156 C 208.53125 186.300781 206.730469 184.03125 204.863281 181.867188 C 201.453125 177.886719 197.855469 174.257812 194.492188 170.9375 C 163.25 140.035156 134.804688 118.371094 107.410156 104.644531 C 97.480469 99.691406 85.074219 93.476562 74.535156 103.535156 C 66.972656 110.757812 64.792969 122.507812 65.253906 131.101562 C 65.550781 136.304688 67.222656 142.117188 69.980469 148.132812 C 70.640625 149.621094 71.386719 151.113281 72.179688 152.609375 C 71.386719 151.113281 70.636719 149.621094 69.980469 148.140625 C 64.570312 161.878906 60.558594 187.019531 82.128906 217.722656 C 108.421875 255.152344 160.140625 294.933594 194.382812 321.242188 C 202.246094 327.324219 209.046875 332.558594 214.398438 336.867188 C 214.914062 337.277344 215.515625 337.492188 216.117188 337.492188 C 216.90625 337.492188 217.699219 337.136719 218.246094 336.457031 C 219.203125 335.3125 219.011719 333.597656 217.835938 332.644531 C 212.429688 328.253906 205.605469 323.015625 197.714844 316.9375 C 163.746094 290.816406 112.4375 251.335938 86.605469 214.585938 C 68.449219 188.738281 69.378906 167.691406 73.28125 154.65625 C 73.28125 154.660156 73.28125 154.660156 73.28125 154.660156 C 86.257812 177.800781 113.035156 202.910156 138.652344 213.21875 C 146.675781 216.46875 154.84375 217.746094 162.683594 217.746094 C 183.101562 217.746094 201.402344 209.128906 209.914062 204.386719 C 211.878906 203.261719 213.359375 201.382812 213.929688 199.175781 C 214.121094 198.464844 214.199219 197.757812 214.199219 197.046875 C 214.199219 195.832031 213.929688 194.578125 213.363281 193.457031 C 226.386719 201.527344 242.605469 212.046875 257.484375 223.117188 C 289.265625 246.730469 309.964844 260.550781 310.183594 260.6875 C 310.648438 260.988281 311.167969 261.152344 311.6875 261.152344 C 312.558594 261.152344 313.433594 260.714844 313.953125 259.925781 C 314.796875 258.671875 314.46875 256.980469 313.214844 256.136719 " fill-opacity="1" fill-rule="nonzero"/></g><path fill="#100f0d" d="M 250.90625 119.042969 C 238.082031 114.820312 236.820312 101.660156 236.820312 101.660156 C 236.820312 101.660156 234.96875 114.75 221.96875 118.394531 C 234.792969 122.625 236.054688 135.78125 236.054688 135.78125 C 236.054688 135.78125 237.90625 122.691406 250.90625 119.042969 " fill-opacity="1" fill-rule="nonzero"/><g clip-path="url(#id2)"><path fill="#100f0d" d="M 241.703125 49.804688 C 232.632812 46.8125 231.742188 37.507812 231.742188 37.507812 C 231.742188 37.507812 230.433594 46.765625 221.238281 49.347656 C 230.308594 52.335938 231.199219 61.644531 231.199219 61.644531 C 231.199219 61.644531 232.507812 52.382812 241.703125 49.804688 " fill-opacity="1" fill-rule="nonzero"/></g><path fill="#100f0d" d="M 201.019531 77.710938 C 177.570312 69.984375 175.261719 45.914062 175.261719 45.914062 C 175.261719 45.914062 171.878906 69.855469 148.101562 76.527344 C 171.554688 84.253906 173.859375 108.320312 173.859375 108.320312 C 173.859375 108.320312 177.246094 84.382812 201.019531 77.710938 " fill-opacity="1" fill-rule="nonzero"/></svg>